<svg width="16" height="16" viewBox="0 0 16 16" fill="none" xmlns="http://www.w3.org/2000/svg">
<g id="Vector">
<path fill-rule="evenodd" clip-rule="evenodd" d="M6.31286 10.5214C8.63719 10.5214 10.5214 8.63719 10.5214 6.31286C10.5214 3.98853 8.63719 2.10429 6.31286 2.10429C3.98853 2.10429 2.10429 3.98853 2.10429 6.31286C2.10429 8.63719 3.98853 10.5214 6.31286 10.5214ZM6.31286 12.6257C9.79935 12.6257 12.6257 9.79935 12.6257 6.31286C12.6257 2.82636 9.79935 0 6.31286 0C2.82636 0 0 2.82636 0 6.31286C0 9.79935 2.82636 12.6257 6.31286 12.6257Z" fill="#CCCCCC"/>
<path fill-rule="evenodd" clip-rule="evenodd" d="M14.512 16L9.25133 10.7393L10.7393 9.25138L16 14.5121L14.512 16Z" fill="#CCCCCC"/>
</g>
</svg>
