<svg width="17" height="14" viewBox="0 0 17 14" fill="none" xmlns="http://www.w3.org/2000/svg">
<g id="eye-alt">
<path d="M9.96275 7C9.96275 7.85911 9.30786 8.55556 8.5 8.55556C7.69215 8.55556 7.03725 7.85911 7.03725 7C7.03725 6.14089 7.69215 5.44444 8.5 5.44444C9.30786 5.44444 9.96275 6.14089 9.96275 7Z" fill="#999999"/>
<path fill-rule="evenodd" clip-rule="evenodd" d="M8.5 0C4.4105 0 0.974286 2.97447 0 7C0.974286 11.0255 4.4105 14 8.5 14C12.5895 14 16.0257 11.0255 17 7C16.0257 2.97447 12.5895 0 8.5 0ZM11.4255 7C11.4255 8.71822 10.1157 10.1111 8.5 10.1111C6.88429 10.1111 5.5745 8.71822 5.5745 7C5.5745 5.28178 6.88429 3.88889 8.5 3.88889C10.1157 3.88889 11.4255 5.28178 11.4255 7Z" fill="#999999"/>
</g>
</svg>
