<svg width="30" height="30" viewBox="0 0 30 30" fill="none" xmlns="http://www.w3.org/2000/svg">
<g id="--&#62;">
<path id="Ellipse 9" d="M29.5016 15C29.5016 23.0081 23.0097 29.5 15.0016 29.5C6.99346 29.5 0.501591 23.0081 0.50159 15C0.501588 6.99187 6.99346 0.499999 15.0016 0.499997C23.0097 0.499996 29.5016 6.99187 29.5016 15Z" fill="white" stroke="#CCCCCC"/>
<g id="Rectangle 35">
<rect x="19.6353" y="15.8699" width="10.5" height="1.5" transform="rotate(180 19.6353 15.8699)" fill="white"/>
<rect x="19.6353" y="15.8699" width="10.5" height="1.5" transform="rotate(180 19.6353 15.8699)" fill="#CCCCCC"/>
</g>
<g id="Rectangle 36">
<rect x="20.6353" y="15.5415" width="7" height="1.5" transform="rotate(135 20.6353 15.5415)" fill="white"/>
<rect x="20.6353" y="15.5415" width="7" height="1.5" transform="rotate(135 20.6353 15.5415)" fill="#CCCCCC"/>
</g>
<g id="Rectangle 37">
<rect x="19.9409" y="16.2362" width="7.49091" height="1.5" transform="rotate(-135 19.9409 16.2362)" fill="white"/>
<rect x="19.9409" y="16.2362" width="7.49091" height="1.5" transform="rotate(-135 19.9409 16.2362)" fill="#CCCCCC"/>
</g>
</g>
</svg>
