<svg width="30" height="30" viewBox="0 0 30 30" fill="none" xmlns="http://www.w3.org/2000/svg">
<g id="--&#62;">
<path id="Ellipse 9" d="M0.499999 15C0.5 6.99187 6.99187 0.5 15 0.500001C23.0081 0.500001 29.5 6.99187 29.5 15C29.5 23.0081 23.0081 29.5 15 29.5C6.99187 29.5 0.499999 23.0081 0.499999 15Z" fill="white" stroke="#CCCCCC"/>
<g id="Rectangle 35">
<rect x="10.3662" y="14.1301" width="10.5" height="1.5" fill="white"/>
<rect x="10.3662" y="14.1301" width="10.5" height="1.5" fill="#CCCCCC"/>
</g>
<g id="Rectangle 36">
<rect x="9.36621" y="14.4585" width="7" height="1.5" transform="rotate(-45 9.36621 14.4585)" fill="white"/>
<rect x="9.36621" y="14.4585" width="7" height="1.5" transform="rotate(-45 9.36621 14.4585)" fill="#CCCCCC"/>
</g>
<g id="Rectangle 37">
<rect x="10.0607" y="13.7638" width="7.49091" height="1.5" transform="rotate(45 10.0607 13.7638)" fill="white"/>
<rect x="10.0607" y="13.7638" width="7.49091" height="1.5" transform="rotate(45 10.0607 13.7638)" fill="#CCCCCC"/>
</g>
</g>
</svg>
