<svg width="19" height="18" viewBox="0 0 19 18" fill="none" xmlns="http://www.w3.org/2000/svg">
<g id="Group 53">
<circle id="Ellipse 32" cx="9.5" cy="9" r="8.5" fill="#F7C034" stroke="#D69414"/>
<circle id="Ellipse 33" cx="9.5" cy="9" r="8" fill="#F7C034" stroke="#D69414" stroke-width="2"/>
<g id="Ellipse 34">
<mask id="path-3-inside-1_10178_476" fill="white">
<path d="M12.0939 5.48568C11.4333 4.998 10.6485 4.70645 9.8297 4.64445C9.01089 4.58245 8.19119 4.75253 7.46463 5.13517C6.73808 5.51781 6.13411 6.09751 5.72201 6.80777C5.3099 7.51803 5.10636 8.33007 5.13474 9.15073C5.16312 9.9714 5.42226 10.7674 5.88244 11.4475C6.34262 12.1276 6.9852 12.6642 7.73644 12.9958C8.48769 13.3273 9.31719 13.4404 10.1298 13.3219C10.9423 13.2035 11.7051 12.8585 12.3305 12.3263L11.1983 10.9957C10.823 11.315 10.3654 11.522 9.87783 11.5931C9.39029 11.6641 8.89259 11.5963 8.44184 11.3974C7.99109 11.1985 7.60555 10.8765 7.32944 10.4684C7.05333 10.0604 6.89785 9.58275 6.88082 9.09035C6.86379 8.59796 6.98592 8.11073 7.23318 7.68458C7.48044 7.25842 7.84282 6.9106 8.27876 6.68102C8.71469 6.45143 9.20651 6.34939 9.6978 6.38659C10.1891 6.42378 10.6599 6.59872 11.0563 6.89132L12.0939 5.48568Z"/>
</mask>
<path d="M12.0939 5.48568C11.4333 4.998 10.6485 4.70645 9.8297 4.64445C9.01089 4.58245 8.19119 4.75253 7.46463 5.13517C6.73808 5.51781 6.13411 6.09751 5.72201 6.80777C5.3099 7.51803 5.10636 8.33007 5.13474 9.15073C5.16312 9.9714 5.42226 10.7674 5.88244 11.4475C6.34262 12.1276 6.9852 12.6642 7.73644 12.9958C8.48769 13.3273 9.31719 13.4404 10.1298 13.3219C10.9423 13.2035 11.7051 12.8585 12.3305 12.3263L11.1983 10.9957C10.823 11.315 10.3654 11.522 9.87783 11.5931C9.39029 11.6641 8.89259 11.5963 8.44184 11.3974C7.99109 11.1985 7.60555 10.8765 7.32944 10.4684C7.05333 10.0604 6.89785 9.58275 6.88082 9.09035C6.86379 8.59796 6.98592 8.11073 7.23318 7.68458C7.48044 7.25842 7.84282 6.9106 8.27876 6.68102C8.71469 6.45143 9.20651 6.34939 9.6978 6.38659C10.1891 6.42378 10.6599 6.59872 11.0563 6.89132L12.0939 5.48568Z" fill="#F7C034" stroke="white" stroke-width="6" mask="url(#path-3-inside-1_10178_476)"/>
</g>
</g>
</svg>
