<svg width="50" height="50" viewBox="0 0 50 50" fill="none" xmlns="http://www.w3.org/2000/svg">
<g id="button_icons" opacity="0.3">
<rect width="50" height="50" fill="white"/>
<circle id="Ellipse 10" cx="25" cy="25" r="24.5" fill="white" stroke="#666666"/>
<g id="Vector">
<path d="M25 14C18.9249 14 14 18.9249 14 25C14 31.0751 18.9249 36 25 36C31.0751 36 36 31.0751 36 25C36 18.9249 31.0751 14 25 14ZM25 16C29.9706 16 34 20.0294 34 25C34 29.9706 29.9706 34 25 34C20.0294 34 16 29.9706 16 25C16 20.0294 20.0294 16 25 16Z" fill="black" fill-opacity="0.85"/>
<path d="M27.6056 28.0528C27.8526 27.5588 28.4532 27.3586 28.9472 27.6056C29.4412 27.8526 29.6414 28.4532 29.3944 28.9472C29.2169 29.3024 28.8799 29.778 28.3519 30.2474C27.4741 31.0277 26.3523 31.5 25 31.5C23.6477 31.5 22.5259 31.0277 21.6481 30.2474C21.1201 29.778 20.7831 29.3024 20.6056 28.9472C20.3586 28.4532 20.5588 27.8526 21.0528 27.6056C21.5115 27.3762 22.0622 27.5325 22.3363 27.9515L22.3944 28.0528C22.4669 28.1976 22.6612 28.472 22.9769 28.7526C23.5053 29.2224 24.1648 29.5 25 29.5C25.8352 29.5 26.4947 29.2224 27.0231 28.7526C27.2937 28.5121 27.4751 28.2762 27.5671 28.1224L27.6056 28.0528Z" fill="black" fill-opacity="0.85"/>
<path d="M22.1056 22.0528C22.3526 21.5588 22.9532 21.3586 23.4472 21.6056C23.9412 21.8526 24.1414 22.4532 23.8944 22.9472C23.7878 23.1605 23.6059 23.4333 23.3321 23.7071C22.8464 24.1928 22.232 24.5 21.5 24.5C20.768 24.5 20.1536 24.1928 19.6679 23.7071C19.3941 23.4333 19.2122 23.1605 19.1056 22.9472C18.8586 22.4532 19.0588 21.8526 19.5528 21.6056C20.0115 21.3762 20.5622 21.5325 20.8363 21.9515L20.8944 22.0528C20.9128 22.0895 20.9809 22.1917 21.0821 22.2929C21.2214 22.4322 21.357 22.5 21.5 22.5C21.643 22.5 21.7786 22.4322 21.9179 22.2929C21.9988 22.212 22.0586 22.1303 22.0887 22.0821L22.1056 22.0528Z" fill="black" fill-opacity="0.85"/>
<path d="M29.1056 22.0528C29.3526 21.5588 29.9532 21.3586 30.4472 21.6056C30.9412 21.8526 31.1414 22.4532 30.8944 22.9472C30.7878 23.1605 30.6059 23.4333 30.3321 23.7071C29.8464 24.1928 29.232 24.5 28.5 24.5C27.768 24.5 27.1536 24.1928 26.6679 23.7071C26.3941 23.4333 26.2122 23.1605 26.1056 22.9472C25.8586 22.4532 26.0588 21.8526 26.5528 21.6056C27.0115 21.3762 27.5622 21.5325 27.8363 21.9515L27.8944 22.0528C27.9128 22.0895 27.9809 22.1917 28.0821 22.2929C28.2214 22.4322 28.357 22.5 28.5 22.5C28.643 22.5 28.7786 22.4322 28.9179 22.2929C28.9988 22.212 29.0586 22.1303 29.0887 22.0821L29.1056 22.0528Z" fill="black" fill-opacity="0.85"/>
</g>
</g>
</svg>
