<svg width="20" height="19" viewBox="0 0 20 19" fill="none" xmlns="http://www.w3.org/2000/svg">
<path id="Vector" d="M9.74163 15.4259C9.90053 15.33 10.0995 15.33 10.2584 15.4259L15.1655 18.3877C15.5442 18.6162 16.0113 18.2767 15.9108 17.846L14.6086 12.2639C14.5664 12.0832 14.6278 11.8939 14.7681 11.7724L19.106 8.01445C19.4401 7.72506 19.2619 7.17635 18.8216 7.13838L13.1097 6.64585C12.9253 6.62994 12.7648 6.51345 12.6924 6.34306L10.4603 1.0843C10.2878 0.678116 9.71216 0.678116 9.53975 1.0843L7.30755 6.34306C7.23523 6.51345 7.07468 6.62994 6.89026 6.64585L1.17692 7.13851C0.736802 7.17646 0.55852 7.72473 0.892142 8.01428L5.22266 11.7727C5.36252 11.8941 5.42384 12.0828 5.38201 12.2632L4.08715 17.8478C3.98732 18.2784 4.45421 18.6172 4.83259 18.3888L9.74163 15.4259Z" fill="#666666"/>
</svg>
