<svg width="50" height="50" viewBox="0 0 50 50" fill="none" xmlns="http://www.w3.org/2000/svg">
<g id="button_icons">
<circle id="Ellipse 10" cx="25" cy="25" r="25" fill="#666666"/>
<path id="icon" fill-rule="evenodd" clip-rule="evenodd" d="M29.4374 15C30.0921 15 30.7197 15.2614 31.1781 15.7234L34.279 18.8243C34.7407 19.286 35.0001 19.9122 35.0001 20.5651C35.0001 21.218 34.7407 21.8442 34.279 22.3058L22.9575 33.6238C22.259 34.4295 21.2689 34.9245 20.1346 35.0023H15V34.0023L15.0032 29.7873C15.0884 28.7328 15.5787 27.7523 16.3265 27.0934L27.6954 15.7246C28.1564 15.2608 28.7834 15 29.4374 15ZM20.064 33.0048C20.5982 32.967 21.0955 32.7184 21.4948 32.2616L29.0567 24.6997L25.3023 20.9452L17.6961 28.5496C17.291 28.9079 17.0403 29.4092 17 29.8678V33.0029L20.064 33.0048ZM26.7167 19.5312L30.4709 23.2855L32.8648 20.8916C32.9514 20.805 33.0001 20.6876 33.0001 20.5651C33.0001 20.4426 32.9514 20.3251 32.8648 20.2385L29.7611 17.1349C29.6755 17.0485 29.5589 17 29.4374 17C29.3158 17 29.1992 17.0485 29.1136 17.1349L26.7167 19.5312Z" fill="white"/>
</g>
</svg>
