<svg width="15" height="16" viewBox="0 0 15 16" fill="none" xmlns="http://www.w3.org/2000/svg">
<path id="Vector" d="M1.875 0.5C1.37772 0.5 0.900806 0.697544 0.549175 1.04917C0.197544 1.40081 0 1.87772 0 2.375L0 13.625C0 14.1223 0.197544 14.5992 0.549175 14.9508C0.900806 15.3025 1.37772 15.5 1.875 15.5H13.125C13.6223 15.5 14.0992 15.3025 14.4508 14.9508C14.8025 14.5992 15 14.1223 15 13.625V2.375C15 1.87772 14.8025 1.40081 14.4508 1.04917C14.0992 0.697544 13.6223 0.5 13.125 0.5H1.875ZM11.2781 5.15937C11.4083 5.28945 11.4824 5.46541 11.4843 5.64946C11.4862 5.8335 11.4159 6.01097 11.2884 6.14375L7.54594 10.8219C7.48162 10.8912 7.40399 10.9468 7.31769 10.9853C7.23139 11.0239 7.13819 11.0447 7.04367 11.0465C6.94915 11.0482 6.85525 11.0309 6.76758 10.9955C6.67992 10.9602 6.60028 10.9075 6.53344 10.8406L4.05375 8.36C3.98467 8.29563 3.92926 8.218 3.89083 8.13175C3.8524 8.04551 3.83174 7.9524 3.83007 7.85799C3.8284 7.76358 3.84577 7.6698 3.88113 7.58225C3.9165 7.4947 3.96913 7.41517 4.0359 7.3484C4.10267 7.28163 4.1822 7.229 4.26975 7.19363C4.3573 7.15827 4.45108 7.1409 4.54549 7.14257C4.6399 7.14424 4.73301 7.1649 4.81925 7.20333C4.9055 7.24176 4.98313 7.29717 5.0475 7.36625L7.01063 9.32844L10.2666 5.18C10.3308 5.1106 10.4083 5.05485 10.4945 5.0161C10.5807 4.97734 10.6739 4.95637 10.7684 4.95445C10.8629 4.95252 10.9569 4.96968 11.0446 5.00489C11.1324 5.0401 11.2121 5.09264 11.2791 5.15937H11.2781Z" fill="#D31D32"/>
</svg>
