<svg width="8" height="4" viewBox="0 0 8 4" fill="none" xmlns="http://www.w3.org/2000/svg">
<path id="Vector" d="M0.136856 0.712722L3.66972 3.87741C3.713 3.91627 3.7644 3.9471 3.821 3.96814C3.87759 3.98917 3.93826 4 3.99953 4C4.06081 4 4.12148 3.98917 4.17807 3.96814C4.23466 3.9471 4.28607 3.91627 4.32934 3.87741L7.86314 0.712722C7.92846 0.654361 7.97296 0.579942 7.991 0.498898C8.00905 0.417854 7.99982 0.333836 7.96449 0.257496C7.92917 0.181155 7.86933 0.115929 7.79257 0.0700874C7.71581 0.0242458 7.62559 -0.000147188 7.53333 6.68203e-07H0.465733C0.373558 1.82066e-05 0.283461 0.0245308 0.206845 0.070436C0.130229 0.116341 0.0705386 0.181575 0.0353278 0.257882C0.000117023 0.334188 -0.00903053 0.418137 0.00904233 0.499103C0.0271152 0.580068 0.0715962 0.654412 0.136856 0.712722Z" fill="#878787"/>
</svg>
