<svg width="41" height="32" viewBox="0 0 41 32" fill="none" xmlns="http://www.w3.org/2000/svg">
<g id="Group">
<g id="Group_2">
<g id="Group_3">
<path id="Vector" fill-rule="evenodd" clip-rule="evenodd" d="M37.4821 7.16996C37.4821 4.36338 37.6346 2.22794 36.0178 1.00769C34.1874 -0.3651 29.8555 0.122994 26.7439 0.122994H3.95561C2.36927 0.794134 1.5151 0.794139 0.630414 2.19743C-0.0712318 3.32617 -0.193259 8.20718 0.294843 9.91554C0.477881 10.5257 0.935478 11.1358 1.39307 11.5019C2.9794 12.7526 6.67066 12.2645 9.47725 12.2645H29.4284C33.0282 12.2645 36.5059 12.8747 37.3906 10.0376C37.6041 9.21389 37.4821 8.08515 37.4821 7.16996ZM34.767 15.6812C24.0593 15.6812 13.321 15.6507 2.61332 15.6507C2.61332 17.5421 2.58282 19.403 2.58282 21.2944C2.58282 24.2535 2.21674 27.7923 3.34548 29.5921C3.95561 30.5378 4.93181 31.3615 6.09105 31.7276C7.3113 32.1242 9.17219 31.9716 10.7585 31.9716H26.5608C28.6047 31.9716 30.7097 32.0937 32.0825 31.453C33.3332 30.8734 34.2789 29.6531 34.706 28.2193C35.0416 27.0906 34.7365 25.5958 34.7365 24.2535V15.6812H34.767Z" fill="#09E27C"/>
</g>
</g>
<g id="Group_4">
<g id="Group_5">
<path id="Vector_2" fill-rule="evenodd" clip-rule="evenodd" d="M21.2527 0H16.1886C16.1886 2.34899 16.2191 4.66747 16.2191 7.01646C16.2191 8.05368 16.0361 9.54849 16.3412 10.3722C16.6462 11.1958 17.3479 11.867 18.2936 12.0195C22.1984 12.7822 21.2832 6.77241 21.2832 3.50823C21.2832 2.3795 21.2832 1.18975 21.2527 0ZM38.9769 13.9109C38.2447 13.6058 36.9635 13.7584 35.9873 13.7584H29.7029C29.1022 13.7584 28.8793 13.9109 28.5132 14.1549C27.5675 14.8566 27.7505 16.5955 28.6657 17.1446C29.3674 17.5717 30.7707 17.4191 31.8689 17.4191H36.7499C37.4516 17.4191 38.3667 17.5107 38.8854 17.2971C39.404 17.0836 39.8616 16.5955 40.0141 15.9853C40.2887 15.0396 39.6175 14.1855 38.9769 13.9109ZM34.828 19.8291H24.6389C24.0726 19.8291 23.7542 19.9512 23.3881 20.1952C22.2594 21.0189 22.595 22.9103 23.7847 23.3984C24.6084 23.7339 26.2252 23.5204 27.2624 23.5204H34.0043C34.95 23.5204 36.2923 23.7034 37.0855 23.4289C37.6651 23.2458 38.1532 22.6662 38.3057 22.0561C38.7938 19.9207 36.6889 19.8291 34.828 19.8291Z" fill="#060606"/>
</g>
</g>
</g>
</svg>
