<svg width="29" height="40" viewBox="0 0 29 40" fill="none" xmlns="http://www.w3.org/2000/svg">
<g id="Group">
<path id="Vector" fill-rule="evenodd" clip-rule="evenodd" d="M5.48934 34.7156C10.4529 34.7156 15.3852 34.7156 20.3487 34.7156C22.8149 34.7156 24.5319 34.6219 25.2186 36.4013C25.3435 36.7759 25.4996 37.3066 25.3747 37.8061C24.8752 40.0537 22.7213 39.9289 19.9741 39.9289C16.4466 39.9289 12.9503 39.9289 9.42271 39.9289C7.73698 39.9289 5.20838 40.241 4.11578 39.5542C2.86709 38.805 2.49249 36.8071 3.52266 35.5272C4.02214 34.9341 4.71387 34.716 5.48934 34.7156Z" fill="#060606"/>
<g id="Group_2">
<g id="Group_3">
<path id="Vector_2" fill-rule="evenodd" clip-rule="evenodd" d="M28.4326 12.9887C28.1829 11.022 28.0892 9.46112 27.4649 7.93148C25.4045 2.68698 20.3473 -0.0913595 12.8552 0.00229215C12.1996 0.0959438 11.5441 0.189603 10.9197 0.283255C9.54617 0.626644 8.01652 1.03247 6.79905 1.65681C2.70959 3.74837 0.399513 7.49444 0.0249066 13.0823C-0.13118 15.4548 0.461944 17.5152 1.36724 19.0136C2.11646 20.2623 3.02177 21.6046 4.05194 22.5411C5.4255 23.7586 6.83026 24.82 7.92286 26.3184C8.70329 27.411 9.45251 28.6285 9.85833 30.0645C10.7012 32.7804 10.2329 38.5868 14.2912 37.8688C16.2579 37.5254 17.0695 36.3391 17.4129 34.3725C17.4441 33.592 17.5065 32.7804 17.5378 32C17.8499 30.3142 18.3806 28.7846 19.1923 27.5983C20.0664 26.3809 21.3151 25.3819 22.5013 24.4454C22.9071 24.0083 23.313 23.6025 23.7188 23.1655C25.2172 21.6671 26.5596 20.2935 27.4649 18.1707C28.058 16.8284 28.6199 14.5183 28.4326 12.9887ZM14.8843 17.2654C11.0134 17.921 8.01651 13.7691 9.57737 10.1167C10.1081 8.89921 11.2631 8.05634 12.6054 7.68173C13.1049 7.6193 13.6356 7.55687 14.1351 7.46322C20.5971 7.432 20.3785 16.3289 14.8843 17.2654Z" fill="#09E27C"/>
</g>
</g>
</g>
</svg>
