<svg width="38" height="38" viewBox="0 0 38 38" fill="none" xmlns="http://www.w3.org/2000/svg">
<g id="Group">
<g id="Group_2">
<g id="Group_3">
<path id="Vector" fill-rule="evenodd" clip-rule="evenodd" d="M37.0475 9.10271C36.838 8.41445 36.3891 7.63641 35.8804 7.24739C33.9952 5.72125 30.0152 6.31974 26.7235 6.31974C19.2724 6.31974 11.6416 6.22996 4.34005 6.22996L3.23286 6.46936C2.27528 6.85838 1.34762 7.60649 0.838907 8.44437C0.18057 9.52165 -0.0588402 13.8008 0.449875 15.4168C0.689271 16.1649 1.19799 16.913 1.76656 17.3619C3.74157 18.9478 7.15295 18.7085 10.684 18.7085C13.856 18.7085 16.9682 18.5588 20.2599 18.5588C21.6065 18.5888 22.9531 18.6187 24.3296 18.6486C25.9156 18.6486 27.4716 18.6785 29.0576 18.6785H31.3917C34.5039 18.6785 36.2395 18.1399 36.9577 15.8058C37.3766 14.4891 37.4664 10.4792 37.0475 9.10271ZM35.5 21.8505H2.72414V29.8104C2.99346 33.0123 2.69422 34.3889 4.759 35.8851C6 36.5 5.5 36.5 9.5 37C11.0245 37.1906 13.7056 37.2272 15.3243 37.2616C16.7308 37.2915 18.1053 37.2317 19.5118 37.2616C20.4095 37.2616 21.3788 37.3214 22.2766 37.3214C23.5334 37.3214 24.7186 37.3214 25.9754 37.3214C29.3569 37.3214 32.1099 37.501 33.666 35.5858C35.0724 33.8203 35.6228 30.5 35.5 27C35.4402 25.2943 35.5 23.5562 35.5 21.8505Z" fill="#00D4EA"/>
</g>
</g>
<g id="Group_4">
<g id="Group_5">
<path id="Vector_2" fill-rule="evenodd" clip-rule="evenodd" d="M28.4001 0.813696C25.4974 -0.323433 19.7519 1.86105 18.8841 3.68644L18.7644 3.77622C17.6273 1.65158 14.6349 1.11294 11.792 0.664074C7.78217 0.0356606 5.05905 3.17773 6.82459 6.37964H16.4602V18.6187H21.4277V6.37964H30.016C31.7217 4.13531 30.5247 1.65158 28.4001 0.813696ZM16.4602 37.2317C18.1061 37.2617 19.7818 37.3215 21.4277 37.3514V21.8466C19.7818 21.8466 18.1449 21.8466 16.4991 21.8466C16.4991 26.9338 16.4902 32.1446 16.4602 37.2317Z" fill="#060606"/>
</g>
</g>
</g>
</svg>
