<svg width="37" height="38" viewBox="0 0 37 38" fill="none" xmlns="http://www.w3.org/2000/svg">
<g id="Group">
<g id="Group_2">
<g id="Group_3">
<path id="Vector" fill-rule="evenodd" clip-rule="evenodd" d="M21.3629 0.514359C19.9997 0.499634 18.6653 1.57524 19.1199 3.57573C19.2412 4.12132 19.8777 4.66689 19.7261 5.30341C19.5746 5.97024 19.029 6.4249 18.8774 7.18266C18.6046 8.7285 20.1202 10.3046 21.6054 10.0319C25.6367 9.39533 25.9701 0.484049 21.3629 0.514359ZM29.2739 12.002C30.2439 11.0321 31.2138 10.0319 32.1837 9.06192C32.8506 8.39508 33.7902 7.75856 34.1539 6.81893C34.942 4.81844 33.2143 3.39387 31.426 3.42418C30.9997 3.49963 30.9997 3.42418 30.3651 3.81821C28.9405 5.2428 27.5159 6.69771 26.0913 8.1223C25.5761 8.66789 25.0305 9.18316 24.5152 9.72875C23.7271 10.9715 24.3636 12.6385 25.273 13.2448C25.9095 13.6388 27.1522 13.7297 27.8493 13.3357C28.4252 13.0023 28.8193 12.4567 29.2739 12.002ZM32.0019 12.7295C30.8965 12.7426 30.3045 13.0629 29.577 13.4872C27.9706 14.4269 26.2429 17.2154 28.6374 18.6703C29.577 19.2462 30.8804 19.0038 31.6078 18.4279C31.8503 18.246 31.9716 17.8823 32.305 17.7913C33.0324 17.5792 33.5477 18.0338 34.0327 18.1248C35.5482 18.4279 36.5485 17.2761 36.8516 16.3061C37.7306 13.5176 34.548 12.6992 32.0019 12.7295Z" fill="#060606"/>
</g>
</g>
<g id="Group_4">
<g id="Group_5">
<path id="Vector_2" fill-rule="evenodd" clip-rule="evenodd" d="M30.5991 24.0341C30.1739 23.3659 29.5057 22.8496 28.9286 22.3029C27.7745 21.1487 26.6203 19.9946 25.4662 18.8404C23.006 16.3802 20.5762 13.92 18.116 11.4598C16.7796 10.1234 15.4432 8.30108 13.7119 7.42027C13.1045 7.11654 12.3452 7.05579 11.6466 6.90393C11.0391 7.14691 10.462 7.08616 9.94571 7.38989C8.42708 8.30107 8.36634 9.91083 7.48553 11.4598C13.6816 17.6862 19.908 23.8822 26.104 30.1086C26.5596 29.9568 27.0152 29.7746 27.4708 29.6227C29.3539 28.9545 30.508 28.347 30.9332 26.1906C31.1155 25.3705 30.9029 24.5201 30.5991 24.0341ZM4.20529 22.3636C8.03225 26.1906 11.8592 30.0479 15.6862 33.8749C17.9034 33.0852 20.1206 32.2955 22.3378 31.5058C16.9922 26.1602 11.6466 20.7842 6.30099 15.4386C5.60242 17.747 4.90386 20.0553 4.20529 22.3636ZM0.712431 33.9964C0.317586 36.3654 2.32219 38.2485 4.72163 37.8233C7.27293 37.3981 9.36865 35.7883 11.8592 35.3328V35.3024C8.88268 32.3259 5.90616 29.3493 2.92963 26.3728C2.26143 28.9241 1.16802 31.2628 0.712431 33.9964Z" fill="#00D4EA"/>
</g>
</g>
</g>
</svg>
