<svg width="21" height="21" viewBox="0 0 21 21" fill="none" xmlns="http://www.w3.org/2000/svg">
<g id="carbon:information-square">
<path id="Vector" d="M11.2812 15.1875V9.9375H8.65625V11.25H9.96875V15.1875H8V16.5H13.25V15.1875H11.2812ZM10.625 6C10.4303 6 10.24 6.05773 10.0781 6.1659C9.91623 6.27406 9.79006 6.4278 9.71556 6.60767C9.64105 6.78754 9.62156 6.98547 9.65954 7.17642C9.69752 7.36737 9.79127 7.54277 9.92894 7.68043C10.0666 7.8181 10.242 7.91185 10.433 7.94984C10.6239 7.98782 10.8218 7.96832 11.0017 7.89382C11.1816 7.81931 11.3353 7.69314 11.4435 7.53126C11.5516 7.36938 11.6094 7.17907 11.6094 6.98438C11.6094 6.7233 11.5057 6.47292 11.3211 6.28832C11.1365 6.10371 10.8861 6 10.625 6Z" fill="#BFBFC5"/>
<path id="Vector_2" d="M17.4375 18.75H4.3125C3.96451 18.7497 3.63087 18.6113 3.38481 18.3652C3.13874 18.1191 3.00035 17.7855 3 17.4375V4.3125C3.00035 3.96451 3.13874 3.63087 3.38481 3.38481C3.63087 3.13874 3.96451 3.00035 4.3125 3H17.4375C17.7855 3.00035 18.1191 3.13874 18.3652 3.38481C18.6113 3.63087 18.7497 3.96451 18.75 4.3125V17.4375C18.7497 17.7855 18.6113 18.1191 18.3652 18.3652C18.1191 18.6113 17.7855 18.7497 17.4375 18.75ZM4.3125 4.3125V17.4375H17.4375V4.3125H10.875H4.3125Z" fill="#BFBFC5"/>
</g>
</svg>
