<svg width="50" height="50" viewBox="0 0 50 50" fill="none" xmlns="http://www.w3.org/2000/svg">
<g id="Delivery dining" clip-path="url(#clip0_6683_860)">
<g id="Group">
<g id="Group_2">
<path id="Vector" d="M39.5833 14.5833C39.5833 12.2916 37.7083 10.4166 35.4167 10.4166H29.1667V14.5833H35.4167V20.1041L28.1667 29.1666H20.8333V18.75H12.5C7.89584 18.75 4.16667 22.4791 4.16667 27.0833V33.3333H8.33334C8.33334 36.7916 11.125 39.5833 14.5833 39.5833C18.0417 39.5833 20.8333 36.7916 20.8333 33.3333H30.1667L39.5833 21.5625V14.5833ZM14.5833 35.4166C13.4375 35.4166 12.5 34.4791 12.5 33.3333H16.6667C16.6667 34.4791 15.7292 35.4166 14.5833 35.4166Z" fill="black" fill-opacity="0.2"/>
<path id="Vector_2" d="M20.8333 12.5H10.4167V16.6667H20.8333V12.5Z" fill="black" fill-opacity="0.2"/>
<path id="Vector_3" d="M39.5833 27.0833C36.125 27.0833 33.3333 29.8749 33.3333 33.3333C33.3333 36.7916 36.125 39.5833 39.5833 39.5833C43.0417 39.5833 45.8333 36.7916 45.8333 33.3333C45.8333 29.8749 43.0417 27.0833 39.5833 27.0833ZM39.5833 35.4166C38.4375 35.4166 37.5 34.4791 37.5 33.3333C37.5 32.1874 38.4375 31.2499 39.5833 31.2499C40.7292 31.2499 41.6667 32.1874 41.6667 33.3333C41.6667 34.4791 40.7292 35.4166 39.5833 35.4166Z" fill="black" fill-opacity="0.2"/>
</g>
</g>
</g>
<defs>
<clipPath id="clip0_6683_860">
<rect width="50" height="50" fill="white"/>
</clipPath>
</defs>
</svg>
