<svg width="51" height="53" viewBox="0 0 51 53" fill="none" xmlns="http://www.w3.org/2000/svg">
<g clip-path="url(#clip0_2001_341)">
<path d="M42.6875 24.1875H45.8125V30.4375H42.6875V24.1875ZM5.1875 24.1875H8.3125V30.4375H5.1875V24.1875ZM31.75 38.25H34.875V41.375H31.75V38.25ZM16.125 38.25H19.25V41.375H16.125V38.25Z" fill="black"/>
<path d="M33.3125 13.25H17.6875C15.6163 13.2525 13.6306 14.0764 12.166 15.541C10.7014 17.0056 9.87748 18.9913 9.875 21.0625V42.9375C9.875 43.7663 10.2042 44.5612 10.7903 45.1472C11.3763 45.7333 12.1712 46.0625 13 46.0625V50.75H16.125V46.0625H34.875V50.75H38V46.0625C38.8284 46.0613 39.6226 45.7316 40.2083 45.1458C40.7941 44.5601 41.1238 43.7659 41.125 42.9375V21.0625C41.1225 18.9913 40.2986 17.0056 38.834 15.541C37.3694 14.0764 35.3837 13.2525 33.3125 13.25ZM38 22.625V32H13V22.625H38ZM17.6875 16.375H33.3125C34.2788 16.3779 35.2205 16.6798 36.0084 17.2393C36.7962 17.7989 37.3915 18.5886 37.7125 19.5H13.2875C13.6085 18.5886 14.2038 17.7989 14.9916 17.2393C15.7795 16.6798 16.7212 16.3779 17.6875 16.375ZM13 42.9375V35.125H38.0016L38.0031 42.9375H13Z" fill="black"/>
</g>
<defs>
<clipPath id="clip0_2001_341">
<rect width="50" height="53" fill="white" transform="translate(0.5)"/>
</clipPath>
</defs>
</svg>
