<svg width="13" height="13" viewBox="0 0 13 13" fill="none" xmlns="http://www.w3.org/2000/svg">
<g id="Group 65">
<path id="Vector" d="M11.9167 0H1.08333C0.796016 0 0.520465 0.114137 0.317301 0.317301C0.114137 0.520465 0 0.796016 0 1.08333V11.9167C0 12.204 0.114137 12.4795 0.317301 12.6827C0.520465 12.8859 0.796016 13 1.08333 13H11.9167C12.204 13 12.4795 12.8859 12.6827 12.6827C12.8859 12.4795 13 12.204 13 11.9167V1.08333C13 0.796016 12.8859 0.520465 12.6827 0.317301C12.4795 0.114137 12.204 0 11.9167 0ZM1.08333 11.9167V1.08333H11.9167V11.9167H1.08333Z" fill="#777777"/>
<path id="Vector_2" d="M5.41659 9.47925L2.70825 6.79258L3.5695 5.95841L5.41659 7.773L9.43034 3.79175L10.2916 4.64758L5.41659 9.47925Z" fill="#DA0029"/>
</g>
</svg>
