<svg width="12" height="10" viewBox="0 0 12 10" fill="none" xmlns="http://www.w3.org/2000/svg">
<g id="Group 76">
<path id="Vector" d="M10.0689 0.302449C10.2749 0.106312 10.5491 -0.00212081 10.8335 3.14369e-05C11.1179 0.00218368 11.3904 0.114753 11.5935 0.313985C11.7965 0.513217 11.9142 0.783529 11.9217 1.06788C11.9292 1.35224 11.826 1.62839 11.6337 1.83807L5.79838 9.13594C5.69804 9.24402 5.57694 9.33075 5.44231 9.39095C5.30768 9.45115 5.1623 9.48359 5.01485 9.48632C4.8674 9.48905 4.72091 9.46202 4.58415 9.40684C4.44739 9.35167 4.32315 9.26948 4.21888 9.16519L0.349111 5.29542C0.241344 5.195 0.154907 5.0739 0.0949563 4.93936C0.0350056 4.80481 0.00276925 4.65956 0.000170703 4.51228C-0.00242784 4.36501 0.0246648 4.21871 0.0798317 4.08213C0.134999 3.94555 0.21711 3.82148 0.321267 3.71733C0.425425 3.61317 0.549494 3.53106 0.686074 3.47589C0.822654 3.42072 0.968947 3.39363 1.11622 3.39623C1.2635 3.39883 1.40875 3.43107 1.5433 3.49102C1.67785 3.55097 1.79894 3.6374 1.89936 3.74517L4.96183 6.80618L10.0411 0.334624C10.0502 0.323364 10.06 0.312622 10.0703 0.302449H10.0689Z" fill="#D31D32"/>
</g>
</svg>
