<svg width="44" height="34" viewBox="0 0 44 34" fill="none" xmlns="http://www.w3.org/2000/svg">
<g id="icon" clip-path="url(#clip0_7_294)">
<g id="Vector">
<path fill-rule="evenodd" clip-rule="evenodd" d="M31.34 19.401C34.08 21.3773 36 24.0548 36 27.6248V33.9998H42C43.1 33.9998 44 33.0435 44 31.8748V27.6248C44 22.9923 36.86 20.251 31.34 19.401Z" fill="#999999"/>
<path d="M15.9999 16.9998C20.4182 16.9998 23.9999 13.1942 23.9999 8.49976C23.9999 3.80534 20.4182 -0.000244141 15.9999 -0.000244141C11.5816 -0.000244141 7.99993 3.80534 7.99993 8.49976C7.99993 13.1942 11.5816 16.9998 15.9999 16.9998Z" fill="#999999"/>
<path fill-rule="evenodd" clip-rule="evenodd" d="M28 16.9998C32.42 16.9998 36 13.196 36 8.49976C36 3.80351 32.42 -0.000244141 28 -0.000244141C27.06 -0.000244141 26.18 0.212256 25.3401 0.509756C27 2.69851 28 5.48226 28 8.49976C28 11.5173 27 14.301 25.3401 16.4898C26.18 16.7873 27.06 16.9998 28 16.9998Z" fill="#999999"/>
<path fill-rule="evenodd" clip-rule="evenodd" d="M16 19.1248C10.66 19.1248 0 21.9723 0 27.6248V31.8748C0 33.0435 0.899998 33.9998 2 33.9998H29.9999C31.0999 33.9998 31.9999 33.0435 31.9999 31.8748V27.6248C31.9999 21.9723 21.34 19.1248 16 19.1248Z" fill="#999999"/>
</g>
</g>
<defs>
<clipPath id="clip0_7_294">
<rect width="44" height="34" fill="white" transform="translate(0 -0.000244141)"/>
</clipPath>
</defs>
</svg>
