<svg width="38" height="50" viewBox="0 0 38 50" fill="none" xmlns="http://www.w3.org/2000/svg">
<g clip-path="url(#clip0_2001_242)">
<path d="M37.75 14.0625V43.75C37.75 45.4076 37.0915 46.9973 35.9194 48.1694C34.7473 49.3415 33.1576 50 31.5 50H6.5C4.8424 50 3.25268 49.3415 2.08058 48.1694C0.90848 46.9973 0.25 45.4076 0.25 43.75V6.25C0.25 4.5924 0.90848 3.00269 2.08058 1.83058C3.25268 0.65848 4.8424 0 6.5 0L23.6875 0L37.75 14.0625ZM28.375 14.0625C27.1318 14.0625 25.9395 13.5686 25.0604 12.6896C24.1814 11.8105 23.6875 10.6182 23.6875 9.375V3.125H6.5C5.6712 3.125 4.87634 3.45424 4.29029 4.04029C3.70424 4.62634 3.375 5.4212 3.375 6.25V43.75C3.375 44.5788 3.70424 45.3737 4.29029 45.9597C4.87634 46.5458 5.6712 46.875 6.5 46.875H31.5C32.3288 46.875 33.1237 46.5458 33.7097 45.9597C34.2958 45.3737 34.625 44.5788 34.625 43.75V14.0625H28.375Z" fill="black"/>
<g clip-path="url(#clip1_2001_242)">
<path d="M19 18.0002C19.916 18.0002 20.7946 17.6363 21.4423 16.9885C22.09 16.3408 22.4539 15.4623 22.4539 14.5462C22.4539 13.6302 22.09 12.7517 21.4423 12.1039C20.7946 11.4562 19.916 11.0923 19 11.0923C18.084 11.0923 17.2054 11.4562 16.5577 12.1039C15.9099 12.7517 15.546 13.6302 15.546 14.5462C15.546 15.4623 15.9099 16.3408 16.5577 16.9885C17.2054 17.6363 18.084 18.0002 19 18.0002ZM21.3026 14.5462C21.3026 15.1569 21.06 15.7426 20.6282 16.1744C20.1964 16.6063 19.6107 16.8489 19 16.8489C18.3893 16.8489 17.8036 16.6063 17.3718 16.1744C16.94 15.7426 16.6974 15.1569 16.6974 14.5462C16.6974 13.9355 16.94 13.3499 17.3718 12.918C17.8036 12.4862 18.3893 12.2436 19 12.2436C19.6107 12.2436 20.1964 12.4862 20.6282 12.918C21.06 13.3499 21.3026 13.9355 21.3026 14.5462ZM25.9079 23.7568C25.9079 24.9081 24.7566 24.9081 24.7566 24.9081H13.2434C13.2434 24.9081 12.0921 24.9081 12.0921 23.7568C12.0921 22.6054 13.2434 19.1515 19 19.1515C24.7566 19.1515 25.9079 22.6054 25.9079 23.7568ZM24.7566 23.7522C24.7554 23.4689 24.5793 22.617 23.7987 21.8364C23.048 21.0857 21.6354 20.3028 19 20.3028C16.3646 20.3028 14.952 21.0857 14.2013 21.8364C13.4207 22.617 13.2457 23.4689 13.2434 23.7522H24.7566Z" fill="black"/>
</g>
<line x1="13" y1="34.5" x2="26" y2="34.5" stroke="black"/>
<line x1="13" y1="40.5" x2="26" y2="40.5" stroke="black"/>
</g>
<defs>
<clipPath id="clip0_2001_242">
<rect width="38" height="50" fill="white"/>
</clipPath>
<clipPath id="clip1_2001_242">
<rect width="14" height="14" fill="white" transform="translate(12 11)"/>
</clipPath>
</defs>
</svg>
