<svg width="45" height="53" viewBox="0 0 45 53" fill="none" xmlns="http://www.w3.org/2000/svg">
<g clip-path="url(#clip0_2001_314)">
<path d="M13.6032 9.48485C12.086 9.48485 10.631 10.0739 9.55817 11.1224C8.48537 12.1709 7.88267 13.593 7.88267 15.0758C7.88267 16.5586 8.48537 17.9806 9.55817 19.0291C10.631 20.0776 12.086 20.6667 13.6032 20.6667C15.1204 20.6667 16.5754 20.0776 17.6482 19.0291C18.721 17.9806 19.3237 16.5586 19.3237 15.0758C19.3237 13.593 18.721 12.1709 17.6482 11.1224C16.5754 10.0739 15.1204 9.48485 13.6032 9.48485ZM5.34022 15.0758C5.34022 12.9339 6.21078 10.8798 7.76039 9.36533C9.31 7.85084 11.4117 7 13.6032 7C15.7947 7 17.8964 7.85084 19.446 9.36533C20.9956 10.8798 21.8662 12.9339 21.8662 15.0758C21.8662 17.2176 20.9956 19.2717 19.446 20.7862C17.8964 22.3007 15.7947 23.1515 13.6032 23.1515C11.4117 23.1515 9.31 22.3007 7.76039 20.7862C6.21078 19.2717 5.34022 17.2176 5.34022 15.0758ZM5.34022 25.6364C3.99162 25.6364 2.69825 26.16 1.74464 27.092C0.79104 28.024 0.25531 29.288 0.25531 30.6061V30.8148C0.258968 30.9601 0.269148 31.1052 0.285819 31.2496C0.466016 32.86 1.05123 34.4017 1.98926 35.7373C3.77152 38.2594 7.21401 40.5455 13.6032 40.5455C16.0084 40.5455 17.994 40.2224 19.6314 39.6832C19.4517 38.8632 19.35 38.0184 19.3263 37.1487C17.8923 37.7003 16.0287 38.0606 13.6032 38.0606C7.91572 38.0606 5.31988 36.0752 4.0817 34.3259C3.38827 33.3371 2.95353 32.1972 2.81556 31.0061L2.80031 30.7999L2.79776 30.7576V30.6061C2.79776 29.947 3.06563 29.315 3.54243 28.849C4.01923 28.383 4.66592 28.1212 5.34022 28.1212H21.8662C22.0713 28.1212 22.2704 28.1444 22.4636 28.1908C23.0399 27.495 23.6823 26.8614 24.3908 26.2899C23.6218 25.8609 22.7516 25.6357 21.8662 25.6364H5.34022ZM33.3072 13.2121C32.2958 13.2121 31.3257 13.6048 30.6105 14.3038C29.8953 15.0028 29.4935 15.9509 29.4935 16.9394C29.4935 17.9279 29.8953 18.876 30.6105 19.575C31.3257 20.274 32.2958 20.6667 33.3072 20.6667C34.3187 20.6667 35.2887 20.274 36.0039 19.575C36.7191 18.876 37.1209 17.9279 37.1209 16.9394C37.1209 15.9509 36.7191 15.0028 36.0039 14.3038C35.2887 13.6048 34.3187 13.2121 33.3072 13.2121ZM26.9511 16.9394C26.9511 15.2918 27.6207 13.7118 28.8127 12.5468C30.0048 11.3818 31.6215 10.7273 33.3072 10.7273C34.993 10.7273 36.6097 11.3818 37.8017 12.5468C38.9937 13.7118 39.6633 15.2918 39.6633 16.9394C39.6633 18.587 38.9937 20.167 37.8017 21.332C36.6097 22.497 34.993 23.1515 33.3072 23.1515C31.6215 23.1515 30.0048 22.497 28.8127 21.332C27.6207 20.167 26.9511 18.587 26.9511 16.9394ZM33.3072 48C35.8171 47.9992 38.2571 47.1918 40.2513 45.7022C42.2454 44.2126 43.683 42.1234 44.3426 39.7566C45.0021 37.3897 44.8471 34.8766 43.9012 32.6044C42.9554 30.3322 41.2713 28.427 39.1084 27.1825C36.9455 25.9379 34.4239 25.4229 31.9321 25.717C29.4403 26.0111 27.1166 27.0978 25.319 28.8098C23.5214 30.5217 22.3497 32.7639 21.9844 35.1908C21.6191 37.6178 22.0805 40.0947 23.2976 42.2401L21.9145 46.6855C21.8608 46.8615 21.8568 47.0484 21.9029 47.2264C21.9491 47.4044 22.0435 47.567 22.1764 47.6968C22.3092 47.8267 22.4755 47.919 22.6577 47.9641C22.8398 48.0091 23.0311 48.0052 23.2111 47.9528L27.7621 46.601C29.4592 47.5192 31.3674 48.0006 33.3072 48ZM26.9511 34.3333C26.9511 34.0038 27.085 33.6878 27.3234 33.4548C27.5618 33.2218 27.8852 33.0909 28.2223 33.0909H38.3921C38.7293 33.0909 39.0526 33.2218 39.291 33.4548C39.5294 33.6878 39.6633 34.0038 39.6633 34.3333C39.6633 34.6628 39.5294 34.9789 39.291 35.2119C39.0526 35.4449 38.7293 35.5758 38.3921 35.5758H28.2223C27.8852 35.5758 27.5618 35.4449 27.3234 35.2119C27.085 34.9789 26.9511 34.6628 26.9511 34.3333ZM28.2223 40.5455C27.8852 40.5455 27.5618 40.4146 27.3234 40.1816C27.085 39.9486 26.9511 39.6325 26.9511 39.303C26.9511 38.9735 27.085 38.6575 27.3234 38.4245C27.5618 38.1915 27.8852 38.0606 28.2223 38.0606H33.3072C33.6444 38.0606 33.9677 38.1915 34.2061 38.4245C34.4445 38.6575 34.5784 38.9735 34.5784 39.303C34.5784 39.6325 34.4445 39.9486 34.2061 40.1816C33.9677 40.4146 33.6444 40.5455 33.3072 40.5455H28.2223Z" fill="black"/>
</g>
<defs>
<clipPath id="clip0_2001_314">
<rect width="44.4894" height="53" fill="white" transform="translate(0.25531)"/>
</clipPath>
</defs>
</svg>
