<svg width="38" height="50" viewBox="0 0 38 50" fill="none" xmlns="http://www.w3.org/2000/svg">
<g clip-path="url(#clip0_2001_259)">
<path d="M37.75 14.0625V43.75C37.75 45.4076 37.0915 46.9973 35.9194 48.1694C34.7473 49.3415 33.1576 50 31.5 50H6.5C4.8424 50 3.25268 49.3415 2.08058 48.1694C0.90848 46.9973 0.25 45.4076 0.25 43.75V6.25C0.25 4.5924 0.90848 3.00269 2.08058 1.83058C3.25268 0.65848 4.8424 0 6.5 0L23.6875 0L37.75 14.0625ZM28.375 14.0625C27.1318 14.0625 25.9395 13.5686 25.0604 12.6896C24.1814 11.8105 23.6875 10.6182 23.6875 9.375V3.125H6.5C5.6712 3.125 4.87634 3.45424 4.29029 4.04029C3.70424 4.62634 3.375 5.4212 3.375 6.25V43.75C3.375 44.5788 3.70424 45.3737 4.29029 45.9597C4.87634 46.5458 5.6712 46.875 6.5 46.875H31.5C32.3288 46.875 33.1237 46.5458 33.7097 45.9597C34.2958 45.3737 34.625 44.5788 34.625 43.75V14.0625H28.375Z" fill="black"/>
<line x1="13" y1="34.5" x2="26" y2="34.5" stroke="black"/>
<line x1="13" y1="40.5" x2="26" y2="40.5" stroke="black"/>
<g clip-path="url(#clip1_2001_259)">
<path fill-rule="evenodd" clip-rule="evenodd" d="M12 12H12.875V25.125H26V26H12V12ZM20.75 15.0625C20.75 14.9465 20.7961 14.8352 20.8781 14.7531C20.9602 14.6711 21.0715 14.625 21.1875 14.625H24.6875C24.8035 14.625 24.9148 14.6711 24.9969 14.7531C25.0789 14.8352 25.125 14.9465 25.125 15.0625V18.5625C25.125 18.6785 25.0789 18.7898 24.9969 18.8719C24.9148 18.9539 24.8035 19 24.6875 19C24.5715 19 24.4602 18.9539 24.3781 18.8719C24.2961 18.7898 24.25 18.6785 24.25 18.5625V16.2875L21.0886 20.1524C21.0499 20.1996 21.0018 20.2382 20.9472 20.2657C20.8927 20.2932 20.833 20.309 20.772 20.3121C20.7111 20.3151 20.6501 20.3054 20.5931 20.2834C20.5361 20.2615 20.4843 20.2279 20.4411 20.1847L18.1775 17.9211L14.9785 22.3197C14.9085 22.4087 14.8068 22.4671 14.6946 22.4827C14.5825 22.4982 14.4687 22.4697 14.3772 22.403C14.2856 22.3364 14.2235 22.2369 14.2038 22.1255C14.1841 22.014 14.2083 21.8992 14.2715 21.8053L17.7715 16.9927C17.8087 16.9416 17.8565 16.8991 17.9116 16.8681C17.9668 16.8372 18.028 16.8186 18.091 16.8136C18.1541 16.8086 18.2174 16.8174 18.2768 16.8392C18.3361 16.8611 18.39 16.8956 18.4348 16.9402L20.7176 19.224L23.7644 15.5H21.1875C21.0715 15.5 20.9602 15.4539 20.8781 15.3719C20.7961 15.2898 20.75 15.1785 20.75 15.0625Z" fill="black"/>
</g>
</g>
<defs>
<clipPath id="clip0_2001_259">
<rect width="38" height="50" fill="white"/>
</clipPath>
<clipPath id="clip1_2001_259">
<rect width="14" height="14" fill="white" transform="translate(12 12)"/>
</clipPath>
</defs>
</svg>
