<svg width="14" height="14" viewBox="0 0 14 14" fill="none" xmlns="http://www.w3.org/2000/svg">
<g id="cil:window-restore" clip-path="url(#clip0_6683_83)">
<path id="Vector" d="M9.62502 4.18359H1.10052C0.926539 4.1838 0.759737 4.253 0.63671 4.37603C0.513683 4.49906 0.444478 4.66586 0.444275 4.83984V12.5234C0.444478 12.6974 0.513683 12.8642 0.63671 12.9873C0.759737 13.1103 0.926539 13.1795 1.10052 13.1797H9.62502C9.79901 13.1795 9.96581 13.1103 10.0888 12.9873C10.2119 12.8642 10.2811 12.6974 10.2813 12.5234V4.83984C10.2811 4.66586 10.2119 4.49906 10.0888 4.37603C9.96581 4.253 9.79901 4.1838 9.62502 4.18359ZM9.40627 5.05859V6.29508H1.31927V5.05859H9.40627ZM1.31927 12.3047V7.17008H9.40627V12.3047H1.31927Z" fill="#F15A22"/>
<path id="Vector_2" d="M12.9062 0.875H4.15625C3.98226 0.875203 3.81546 0.944408 3.69244 1.06743C3.56941 1.19046 3.5002 1.35726 3.5 1.53125V3.30859H4.375V1.75H12.6875V9.27344H11.1562V10.1484H12.9062C13.0802 10.1482 13.247 10.079 13.3701 9.95601C13.4931 9.83298 13.5623 9.66618 13.5625 9.49219V1.53125C13.5623 1.35726 13.4931 1.19046 13.3701 1.06743C13.247 0.944408 13.0802 0.875203 12.9062 0.875Z" fill="#F15A22"/>
</g>
<defs>
<clipPath id="clip0_6683_83">
<rect width="14" height="14" fill="white"/>
</clipPath>
</defs>
</svg>
