<svg width="51" height="53" viewBox="0 0 51 53" fill="none" xmlns="http://www.w3.org/2000/svg">
<g clip-path="url(#clip0_2001_367)">
<path d="M42.6111 23.1575V43.6663H8.38885V16.7775H12.0555V14.333H8.0833C7.79759 14.3378 7.51561 14.3988 7.25349 14.5126C6.99136 14.6263 6.75421 14.7906 6.55559 14.9961C6.35697 15.2015 6.20076 15.444 6.0959 15.7098C5.99103 15.9757 5.93955 16.2595 5.94441 16.5452V43.8986C5.93955 44.1843 5.99103 44.4681 6.0959 44.7339C6.20076 44.9998 6.35697 45.2423 6.55559 45.4477C6.75421 45.6532 6.99136 45.8175 7.25349 45.9312C7.51561 46.045 7.79759 46.106 8.0833 46.1108H42.9166C43.2024 46.106 43.4843 46.045 43.7464 45.9312C44.0086 45.8175 44.2457 45.6532 44.4443 45.4477C44.643 45.2423 44.7992 44.9998 44.904 44.7339C45.0089 44.4681 45.0604 44.1843 45.0555 43.8986V22.0819C44.298 22.5586 43.4743 22.921 42.6111 23.1575Z" fill="black"/>
<path d="M13.2778 24.1113H15.7223V26.5558H13.2778V24.1113Z" fill="black"/>
<path d="M20.6111 24.1113H23.0555V26.5558H20.6111V24.1113Z" fill="black"/>
<path d="M27.9445 24.1113H30.3889V26.5558H27.9445V24.1113Z" fill="black"/>
<path d="M35.2778 24.1113H37.7223V26.5558H35.2778V24.1113Z" fill="black"/>
<path d="M13.2778 30.2227H15.7223V32.6671H13.2778V30.2227Z" fill="black"/>
<path d="M20.6111 30.2227H23.0555V32.6671H20.6111V30.2227Z" fill="black"/>
<path d="M27.9445 30.2227H30.3889V32.6671H27.9445V30.2227Z" fill="black"/>
<path d="M35.2778 30.2227H37.7223V32.6671H35.2778V30.2227Z" fill="black"/>
<path d="M13.2778 36.333H15.7223V38.7775H13.2778V36.333Z" fill="black"/>
<path d="M20.6111 36.333H23.0555V38.7775H20.6111V36.333Z" fill="black"/>
<path d="M27.9445 36.333H30.3889V38.7775H27.9445V36.333Z" fill="black"/>
<path d="M35.2778 36.333H37.7223V38.7775H35.2778V36.333Z" fill="black"/>
<path d="M15.7222 19.2221C16.0464 19.2221 16.3573 19.0933 16.5865 18.8641C16.8157 18.6349 16.9444 18.324 16.9444 17.9999V10.6666C16.9444 10.3424 16.8157 10.0315 16.5865 9.80232C16.3573 9.57311 16.0464 9.44434 15.7222 9.44434C15.3981 9.44434 15.0872 9.57311 14.858 9.80232C14.6288 10.0315 14.5 10.3424 14.5 10.6666V17.9999C14.5 18.324 14.6288 18.6349 14.858 18.8641C15.0872 19.0933 15.3981 19.2221 15.7222 19.2221Z" fill="black"/>
<path d="M31 14.333H19.3889V16.7775H31.3422C31.1183 15.9818 31.0032 15.1595 31 14.333Z" fill="black"/>
<path d="M40.1667 20.4449C43.5417 20.4449 46.2778 17.7088 46.2778 14.3338C46.2778 10.9587 43.5417 8.22266 40.1667 8.22266C36.7916 8.22266 34.0555 10.9587 34.0555 14.3338C34.0555 17.7088 36.7916 20.4449 40.1667 20.4449Z" fill="black"/>
</g>
<defs>
<clipPath id="clip0_2001_367">
<rect width="44" height="44" fill="white" transform="translate(3.5 7)"/>
</clipPath>
</defs>
</svg>
