<svg width="38" height="50" viewBox="0 0 38 50" fill="none" xmlns="http://www.w3.org/2000/svg">
<g clip-path="url(#clip0_2001_211)">
<path d="M37.5 14.0625V43.75C37.5 45.4076 36.8415 46.9973 35.6694 48.1694C34.4973 49.3415 32.9076 50 31.25 50H6.25C4.5924 50 3.00268 49.3415 1.83058 48.1694C0.65848 46.9973 0 45.4076 0 43.75V6.25C0 4.5924 0.65848 3.00269 1.83058 1.83058C3.00268 0.65848 4.5924 0 6.25 0L23.4375 0L37.5 14.0625ZM28.125 14.0625C26.8818 14.0625 25.6895 13.5686 24.8104 12.6896C23.9314 11.8105 23.4375 10.6182 23.4375 9.375V3.125H6.25C5.4212 3.125 4.62634 3.45424 4.04029 4.04029C3.45424 4.62634 3.125 5.4212 3.125 6.25V43.75C3.125 44.5788 3.45424 45.3737 4.04029 45.9597C4.62634 46.5458 5.4212 46.875 6.25 46.875H31.25C32.0788 46.875 32.8737 46.5458 33.4597 45.9597C34.0458 45.3737 34.375 44.5788 34.375 43.75V14.0625H28.125Z" fill="black"/>
<path d="M9.12828 43C8.80112 43 8.48737 42.8645 8.25603 42.6234C8.02469 42.3823 7.89473 42.0553 7.89473 41.7143V36.5714C7.89473 36.2304 8.02469 35.9034 8.25603 35.6623C8.48737 35.4212 8.80112 35.2857 9.12828 35.2857H11.5954C11.9225 35.2857 12.2363 35.4212 12.4676 35.6623C12.699 35.9034 12.8289 36.2304 12.8289 36.5714V41.7143C12.8289 42.0553 12.699 42.3823 12.4676 42.6234C12.2363 42.8645 11.9225 43 11.5954 43H9.12828ZM16.5296 43C16.2024 43 15.8887 42.8645 15.6573 42.6234C15.426 42.3823 15.296 42.0553 15.296 41.7143V31.4286C15.296 31.0876 15.426 30.7606 15.6573 30.5194C15.8887 30.2783 16.2024 30.1429 16.5296 30.1429H18.9967C19.3239 30.1429 19.6376 30.2783 19.869 30.5194C20.1003 30.7606 20.2303 31.0876 20.2303 31.4286V41.7143C20.2303 42.0553 20.1003 42.3823 19.869 42.6234C19.6376 42.8645 19.3239 43 18.9967 43H16.5296ZM23.9309 43C23.6038 43 23.29 42.8645 23.0587 42.6234C22.8273 42.3823 22.6974 42.0553 22.6974 41.7143V26.2857C22.6974 25.9447 22.8273 25.6177 23.0587 25.3766C23.29 25.1355 23.6038 25 23.9309 25H26.398C26.7252 25 27.0389 25.1355 27.2703 25.3766C27.5016 25.6177 27.6316 25.9447 27.6316 26.2857V41.7143C27.6316 42.0553 27.5016 42.3823 27.2703 42.6234C27.0389 42.8645 26.7252 43 26.398 43H23.9309Z" fill="black"/>
</g>
<defs>
<clipPath id="clip0_2001_211">
<rect width="37.5" height="50" fill="white"/>
</clipPath>
</defs>
</svg>
