<svg width="51" height="53" viewBox="0 0 51 53" fill="none" xmlns="http://www.w3.org/2000/svg">
<g clip-path="url(#clip0_2001_361)">
<path d="M50.1278 11.6854C48.748 10.2069 47.0788 9.02801 45.224 8.22197C43.3693 7.41594 41.3685 7 39.3462 7C37.3238 7 35.3231 7.41594 33.4683 8.22197C31.6136 9.02801 29.9444 10.2069 28.5645 11.6854C27.2774 13.0385 26.2386 14.6076 25.4954 16.3209C24.7519 14.6092 23.713 13.0417 22.4263 11.6899C21.0465 10.2114 19.3773 9.03255 17.5226 8.22652C15.6678 7.42049 13.6671 7.00455 11.6447 7.00455C9.62237 7.00455 7.62164 7.42049 5.76687 8.22652C3.91209 9.03255 2.24292 10.2114 0.863086 11.6899C0.71204 11.8496 0.601819 12.0434 0.54181 12.2549C0.481801 12.4663 0.47378 12.6892 0.518432 12.9044C0.563083 13.1196 0.659084 13.3209 0.79826 13.491C0.937435 13.6611 1.11566 13.7951 1.31777 13.8815L15.3742 19.997C14.9537 20.0743 14.5331 20.1652 14.1148 20.2766C12.0977 20.8049 10.2053 21.7276 8.5469 22.9915C6.8885 24.2554 5.497 25.8354 4.45279 27.6402C3.40158 29.4338 2.7193 31.4193 2.44602 33.4802C2.17274 35.5411 2.31397 37.6359 2.86141 39.6415C2.9196 39.8576 3.03009 40.0561 3.18313 40.2194C3.33617 40.3828 3.52705 40.506 3.73895 40.5781C3.88033 40.6258 4.0285 40.6504 4.17771 40.6509C4.47675 40.6509 4.7675 40.5526 5.00523 40.3712L24.1314 25.7873V50.1946C24.1314 50.5564 24.2751 50.9033 24.5309 51.1591C24.7867 51.4149 25.1337 51.5587 25.4954 51.5587C25.8572 51.5587 26.2042 51.4149 26.46 51.1591C26.7158 50.9033 26.8595 50.5564 26.8595 50.1946V25.7873L45.9948 40.3667C46.2325 40.5481 46.5232 40.6463 46.8223 40.6463C46.9715 40.6458 47.1196 40.6213 47.261 40.5736C47.4729 40.5014 47.6638 40.3782 47.8169 40.2149C47.9699 40.0516 48.0804 39.8531 48.1386 39.6369C48.686 37.6313 48.8272 35.5366 48.554 33.4757C48.2807 31.4148 47.5984 29.4292 46.5472 27.6356C45.503 25.8308 44.1115 24.2508 42.4531 22.9869C40.7947 21.723 38.9023 20.8003 36.8852 20.272C36.4669 20.1606 36.0463 20.0697 35.6257 19.9924L49.6822 13.877C49.8843 13.7905 50.0625 13.6566 50.2017 13.4864C50.3409 13.3163 50.4369 13.1151 50.4815 12.8998C50.5262 12.6846 50.5182 12.4618 50.4582 12.2503C50.3982 12.0389 50.2879 11.8451 50.1369 11.6854H50.1278ZM11.6459 9.72799C13.2978 9.73189 14.9315 10.0744 16.4459 10.7345C17.9603 11.3945 19.3233 12.358 20.4508 13.5655C22.3313 15.5479 23.5587 18.0592 23.9677 20.7608L4.33685 12.2287C6.42943 10.6095 8.99995 9.73 11.6459 9.72799ZM5.10072 36.8565C4.81815 34.1256 5.41384 31.3757 6.80122 29.0065C7.66828 27.5128 8.82236 26.2054 10.197 25.1597C11.5716 24.114 13.1395 23.3507 14.8104 22.9137C15.9316 22.6136 17.0871 22.4607 18.2478 22.4591C19.8346 22.4585 21.4082 22.7458 22.8924 23.307L5.10072 36.8565ZM44.1897 29.0065C45.577 31.3757 46.1727 34.1256 45.8902 36.8565L28.103 23.3048C31.0262 22.2053 34.2439 22.1745 37.1876 23.2178C40.1313 24.2612 42.6114 26.3115 44.1897 29.0065ZM27.0232 20.7608C27.4322 18.0592 28.6596 15.5479 30.5401 13.5655C31.6676 12.358 33.0306 11.3945 34.545 10.7345C36.0594 10.0744 37.693 9.73189 39.345 9.72799C41.9909 9.73 44.5615 10.6095 46.654 12.2287L27.0232 20.7608Z" fill="black"/>
</g>
<defs>
<clipPath id="clip0_2001_361">
<rect width="50" height="53" fill="white" transform="translate(0.5)"/>
</clipPath>
</defs>
</svg>
