<svg width="26" height="26" viewBox="0 0 26 26" fill="none" xmlns="http://www.w3.org/2000/svg">
<path id="Vector" d="M19.0817 16.8075C20.6552 14.6603 21.3599 11.9983 21.055 9.35382C20.75 6.70939 19.4578 4.27763 17.4368 2.54504C15.4159 0.812451 12.8153 -0.0931899 10.1553 0.00930398C7.49535 0.111798 4.97215 1.21487 3.09053 3.09783C1.20892 4.98079 0.107653 7.50478 0.00706234 10.1648C-0.0935281 12.8249 0.813973 15.4248 2.54801 17.4445C4.28204 19.4642 6.71473 20.7547 9.35938 21.0578C12.004 21.3609 14.6656 20.6542 16.8116 19.0792H16.81C16.8576 19.1442 16.9107 19.2065 16.9692 19.2661L23.2255 25.5223C23.5302 25.8272 23.9435 25.9986 24.3746 25.9988C24.8056 25.9989 25.2191 25.8278 25.524 25.5231C25.8289 25.2184 26.0003 24.8051 26.0005 24.374C26.0006 23.943 25.8295 23.5295 25.5248 23.2246L19.2686 16.9683C19.2105 16.9095 19.1481 16.8568 19.0817 16.8075ZM19.501 10.561C19.501 11.7346 19.2698 12.8968 18.8206 13.9812C18.3715 15.0655 17.7132 16.0508 16.8832 16.8807C16.0533 17.7106 15.0681 18.369 13.9837 18.8181C12.8994 19.2673 11.7372 19.4985 10.5635 19.4985C9.38978 19.4985 8.22758 19.2673 7.14324 18.8181C6.05889 18.369 5.07363 17.7106 4.2437 16.8807C3.41378 16.0508 2.75545 15.0655 2.3063 13.9812C1.85715 12.8968 1.62597 11.7346 1.62597 10.561C1.62597 8.19058 2.5676 5.91729 4.2437 4.24119C5.91981 2.56508 8.1931 1.62345 10.5635 1.62345C12.9338 1.62345 15.2071 2.56508 16.8832 4.24119C18.5593 5.91729 19.501 8.19058 19.501 10.561Z" fill="#8B95A1"/>
</svg>
