<svg width="13" height="14" viewBox="0 0 13 14" fill="none" xmlns="http://www.w3.org/2000/svg">
<g id="Group 75">
<path id="Vector" d="M11.9167 0.5H1.08333C0.796016 0.5 0.520465 0.614137 0.317301 0.817301C0.114137 1.02047 0 1.29602 0 1.58333V12.4167C0 12.704 0.114137 12.9795 0.317301 13.1827C0.520465 13.3859 0.796016 13.5 1.08333 13.5H11.9167C12.204 13.5 12.4795 13.3859 12.6827 13.1827C12.8859 12.9795 13 12.704 13 12.4167V1.58333C13 1.29602 12.8859 1.02047 12.6827 0.817301C12.4795 0.614137 12.204 0.5 11.9167 0.5ZM1.08333 12.4167V1.58333H11.9167V12.4167H1.08333Z" fill="#777777"/>
</g>
</svg>
