<svg width="19" height="19" viewBox="0 0 19 19" fill="none" xmlns="http://www.w3.org/2000/svg">
<g id="Group 121">
<path id="Vector" d="M9.02174 0.0869141C4.04174 0.0869141 0 4.12865 0 9.10865C0 14.0887 4.04174 18.1304 9.02174 18.1304C14.0017 18.1304 18.0435 14.0887 18.0435 9.10865C18.0435 4.12865 14.0017 0.0869141 9.02174 0.0869141ZM9.02174 16.326C5.03413 16.326 1.80435 13.0963 1.80435 9.10865C1.80435 5.12104 5.03413 1.89126 9.02174 1.89126C13.0093 1.89126 16.2391 5.12104 16.2391 9.10865C16.2391 13.0963 13.0093 16.326 9.02174 16.326Z" fill="#ED2542"/>
<path id="Vector_2" d="M9.02161 13.6194C11.5129 13.6194 13.5325 11.5998 13.5325 9.10853C13.5325 6.61724 11.5129 4.59766 9.02161 4.59766C6.53033 4.59766 4.51074 6.61724 4.51074 9.10853C4.51074 11.5998 6.53033 13.6194 9.02161 13.6194Z" fill="#ED2542"/>
</g>
</svg>
