<svg width="20" height="21" viewBox="0 0 20 21" fill="none" xmlns="http://www.w3.org/2000/svg">
<g id="ArrowRightShort">
<path id="Vector" fill-rule="evenodd" clip-rule="evenodd" d="M5 10.5001C5 10.3343 5.06585 10.1753 5.18306 10.0581C5.30027 9.94091 5.45924 9.87506 5.625 9.87506H12.8663L10.1825 7.19256C10.0651 7.0752 9.99921 6.91603 9.99921 6.75006C9.99921 6.58409 10.0651 6.42492 10.1825 6.30756C10.2999 6.1902 10.459 6.12427 10.625 6.12427C10.791 6.12427 10.9501 6.1902 11.0675 6.30756L14.8175 10.0576C14.8757 10.1156 14.9219 10.1846 14.9534 10.2605C14.9849 10.3364 15.0011 10.4178 15.0011 10.5001C15.0011 10.5823 14.9849 10.6637 14.9534 10.7396C14.9219 10.8155 14.8757 10.8845 14.8175 10.9426L11.0675 14.6926C10.9501 14.8099 10.791 14.8758 10.625 14.8758C10.459 14.8758 10.2999 14.8099 10.1825 14.6926C10.0651 14.5752 9.99921 14.416 9.99921 14.2501C9.99921 14.0841 10.0651 13.9249 10.1825 13.8076L12.8663 11.1251H5.625C5.45924 11.1251 5.30027 11.0592 5.18306 10.942C5.06585 10.8248 5 10.6658 5 10.5001Z" fill="#8B95A1"/>
</g>
</svg>
