<svg width="51" height="53" viewBox="0 0 51 53" fill="none" xmlns="http://www.w3.org/2000/svg">
<g clip-path="url(#clip0_2001_308)">
<path d="M39.1641 23.9766C39.1641 24.386 39.0426 24.7863 38.8152 25.1268C38.5877 25.4672 38.2643 25.7326 37.886 25.8893C37.5077 26.046 37.0915 26.087 36.6899 26.0071C36.2883 25.9272 35.9194 25.73 35.6298 25.4405C35.3403 25.151 35.1431 24.7821 35.0632 24.3805C34.9833 23.9789 35.0243 23.5626 35.181 23.1843C35.3377 22.806 35.6031 22.4826 35.9435 22.2552C36.284 22.0277 36.6843 21.9062 37.0938 21.9062C37.6428 21.9062 38.1694 22.1244 38.5577 22.5126C38.9459 22.9009 39.1641 23.4275 39.1641 23.9766ZM31.2969 13.625H23.0156C22.6862 13.625 22.3702 13.7559 22.1373 13.9888C21.9043 14.2218 21.7734 14.5377 21.7734 14.8672C21.7734 15.1966 21.9043 15.5126 22.1373 15.7455C22.3702 15.9785 22.6862 16.1094 23.0156 16.1094H31.2969C31.6263 16.1094 31.9423 15.9785 32.1752 15.7455C32.4082 15.5126 32.5391 15.1966 32.5391 14.8672C32.5391 14.5377 32.4082 14.2218 32.1752 13.9888C31.9423 13.7559 31.6263 13.625 31.2969 13.625ZM50.7578 23.1484V29.7734C50.7578 30.9814 50.2779 32.1399 49.4238 32.9941C48.5696 33.8483 47.4111 34.3281 46.2031 34.3281H45.4226L41.9693 43.9986C41.7682 44.5617 41.3977 45.0488 40.9089 45.3931C40.42 45.7374 39.8366 45.9221 39.2386 45.9219H36.6052C36.0072 45.9221 35.4238 45.7374 34.9349 45.3931C34.446 45.0488 34.0756 44.5617 33.8744 43.9986L33.3796 42.6094H20.9329L20.4381 43.9986C20.2369 44.5617 19.8665 45.0488 19.3776 45.3931C18.8887 45.7374 18.3053 45.9221 17.7073 45.9219H15.0739C14.4759 45.9221 13.8925 45.7374 13.4036 45.3931C12.9148 45.0488 12.5443 44.5617 12.3432 43.9986L9.71594 36.6427C7.13946 33.7533 5.57849 30.1006 5.27098 26.2415C4.53021 26.4893 3.88603 26.9636 3.42946 27.5973C2.97289 28.2311 2.72701 28.9923 2.72656 29.7734C2.72656 30.1029 2.59569 30.4188 2.36273 30.6518C2.12978 30.8848 1.81382 31.0156 1.48438 31.0156C1.15493 31.0156 0.838971 30.8848 0.606016 30.6518C0.37306 30.4188 0.242188 30.1029 0.242188 29.7734C0.242284 28.335 0.741638 26.9412 1.655 25.83C2.56836 24.7188 3.8391 23.9591 5.25027 23.6805C5.54093 19.1645 7.53835 14.928 10.8374 11.8304C14.1365 8.73278 18.4902 7.0059 23.0156 7H44.5469C44.8763 7 45.1923 7.13087 45.4252 7.36383C45.6582 7.59678 45.7891 7.91274 45.7891 8.24219C45.7891 8.57164 45.6582 8.88759 45.4252 9.12055C45.1923 9.3535 44.8763 9.48438 44.5469 9.48438H38.7127C41.9463 11.3964 44.4915 14.283 45.9837 17.7304C46.1079 18.0161 46.2238 18.3039 46.3315 18.5958C47.5167 18.6292 48.6422 19.1235 49.4688 19.9737C50.2953 20.8238 50.7577 21.9627 50.7578 23.1484ZM48.2734 23.1484C48.2734 22.5994 48.0553 22.0728 47.6671 21.6845C47.2788 21.2962 46.7522 21.0781 46.2031 21.0781H45.4454C45.1808 21.0784 44.9231 20.9942 44.7097 20.8378C44.4963 20.6814 44.3385 20.461 44.2591 20.2086C44.1011 19.7028 43.9159 19.2059 43.7043 18.72C42.5169 15.9763 40.5527 13.6399 38.0537 11.9988C35.5548 10.3578 32.6303 9.4837 29.6406 9.48438H23.0156C20.0422 9.48408 17.1329 10.3491 14.6426 11.9739C12.1524 13.5986 10.1887 15.913 8.99121 18.6346C7.79369 21.3562 7.41405 24.3675 7.89859 27.3012C8.38313 30.2349 9.71092 32.9642 11.72 35.1562C11.8315 35.2757 11.9174 35.4165 11.9726 35.5703L14.6826 43.1559C14.7103 43.2378 14.7629 43.309 14.8331 43.3595C14.9032 43.41 14.9875 43.4373 15.0739 43.4375H17.7073C17.793 43.4377 17.8767 43.4114 17.9468 43.3621C18.0169 43.3127 18.0699 43.2429 18.0986 43.1621L18.8874 40.9531C18.973 40.7112 19.1314 40.5016 19.3408 40.3534C19.5503 40.2051 19.8005 40.1253 20.0571 40.125H34.2554C34.512 40.1253 34.7622 40.2051 34.9717 40.3534C35.1811 40.5016 35.3395 40.7112 35.4251 40.9531L36.2139 43.1663C36.2426 43.247 36.2956 43.3169 36.3657 43.3662C36.4358 43.4155 36.5195 43.4419 36.6052 43.4416H39.2386C39.3243 43.4419 39.408 43.4155 39.478 43.3662C39.5481 43.3169 39.6012 43.247 39.6299 43.1663L43.3772 32.6719C43.4627 32.4299 43.6211 32.2204 43.8305 32.0721C44.04 31.9238 44.2902 31.844 44.5469 31.8438H46.2031C46.7522 31.8438 47.2788 31.6256 47.6671 31.2374C48.0553 30.8491 48.2734 30.3225 48.2734 29.7734V23.1484Z" fill="black"/>
</g>
<defs>
<clipPath id="clip0_2001_308">
<rect width="50.5156" height="53" fill="white" transform="translate(0.242188)"/>
</clipPath>
</defs>
</svg>
