<svg width="20" height="16" viewBox="0 0 20 16" fill="none" xmlns="http://www.w3.org/2000/svg">
<g id="CardImage" clip-path="url(#clip0_2001_12)">
<path id="Vector" d="M7.5025 4.875C7.5025 5.37228 7.30496 5.84919 6.95333 6.20083C6.6017 6.55246 6.12478 6.75 5.6275 6.75C5.13022 6.75 4.65331 6.55246 4.30168 6.20083C3.95005 5.84919 3.7525 5.37228 3.7525 4.875C3.7525 4.37772 3.95005 3.90081 4.30168 3.54917C4.65331 3.19754 5.13022 3 5.6275 3C6.12478 3 6.6017 3.19754 6.95333 3.54917C7.30496 3.90081 7.5025 4.37772 7.5025 4.875Z" fill="#666666"/>
<path id="Vector_2" d="M1.875 0.5C1.37772 0.5 0.900805 0.697544 0.549175 1.04917C0.197544 1.40081 0 1.87772 0 2.375L0 13.625C0 14.1223 0.197544 14.5992 0.549175 14.9508C0.900805 15.3025 1.37772 15.5 1.875 15.5H18.125C18.6223 15.5 19.0992 15.3025 19.4508 14.9508C19.8025 14.5992 20 14.1223 20 13.625V2.375C20 1.87772 19.8025 1.40081 19.4508 1.04917C19.0992 0.697544 18.6223 0.5 18.125 0.5H1.875ZM18.125 1.75C18.2908 1.75 18.4497 1.81585 18.5669 1.93306C18.6842 2.05027 18.75 2.20924 18.75 2.375V9.875L14.0312 7.44125C13.914 7.38253 13.7813 7.36216 13.6519 7.38302C13.5224 7.40388 13.4028 7.46492 13.31 7.5575L8.6725 12.195L5.3475 9.98C5.22745 9.90007 5.08345 9.86413 4.93992 9.87825C4.79639 9.89238 4.66217 9.95571 4.56 10.0575L1.2525 13V13.675L1.25 13.625V2.375C1.25 2.20924 1.31585 2.05027 1.43306 1.93306C1.55027 1.81585 1.70924 1.75 1.875 1.75H18.125Z" fill="#666666"/>
</g>
<defs>
<clipPath id="clip0_2001_12">
<rect width="20" height="15.2" fill="white" transform="translate(0 0.400024)"/>
</clipPath>
</defs>
</svg>
