<svg width="44" height="36" viewBox="0 0 44 36" fill="none" xmlns="http://www.w3.org/2000/svg">
<g id="Frame" clip-path="url(#clip0_7_285)">
<path id="Vector" d="M39.6 -0.00012207H4.4C1.98 -0.00012207 0 2.02488 0 4.49988V31.4999C0 33.9749 1.98 35.9999 4.4 35.9999H39.6C42.02 35.9999 44 33.9749 44 31.4999V4.49988C44 2.02488 42.02 -0.00012207 39.6 -0.00012207ZM6.6 17.9999H11C12.21 17.9999 13.2 19.0124 13.2 20.2499C13.2 21.4874 12.21 22.4999 11 22.4999H6.6C5.39 22.4999 4.4 21.4874 4.4 20.2499C4.4 19.0124 5.39 17.9999 6.6 17.9999ZM24.2 31.4999H6.6C5.39 31.4999 4.4 30.4874 4.4 29.2499C4.4 28.0124 5.39 26.9999 6.6 26.9999H24.2C25.41 26.9999 26.4 28.0124 26.4 29.2499C26.4 30.4874 25.41 31.4999 24.2 31.4999ZM37.4 31.4999H33C31.79 31.4999 30.8 30.4874 30.8 29.2499C30.8 28.0124 31.79 26.9999 33 26.9999H37.4C38.61 26.9999 39.6 28.0124 39.6 29.2499C39.6 30.4874 38.61 31.4999 37.4 31.4999ZM37.4 22.4999H19.8C18.59 22.4999 17.6 21.4874 17.6 20.2499C17.6 19.0124 18.59 17.9999 19.8 17.9999H37.4C38.61 17.9999 39.6 19.0124 39.6 20.2499C39.6 21.4874 38.61 22.4999 37.4 22.4999Z" fill="#999999"/>
</g>
<defs>
<clipPath id="clip0_7_285">
<rect width="44" height="36" fill="white"/>
</clipPath>
</defs>
</svg>
