<svg width="38" height="50" viewBox="0 0 38 50" fill="none" xmlns="http://www.w3.org/2000/svg">
<g clip-path="url(#clip0_2001_225)">
<path d="M37.75 14.0625V43.75C37.75 45.4076 37.0915 46.9973 35.9194 48.1694C34.7473 49.3415 33.1576 50 31.5 50H6.5C4.8424 50 3.25268 49.3415 2.08058 48.1694C0.90848 46.9973 0.25 45.4076 0.25 43.75V6.25C0.25 4.5924 0.90848 3.00269 2.08058 1.83058C3.25268 0.65848 4.8424 0 6.5 0L23.6875 0L37.75 14.0625ZM28.375 14.0625C27.1318 14.0625 25.9395 13.5686 25.0604 12.6896C24.1814 11.8105 23.6875 10.6182 23.6875 9.375V3.125H6.5C5.6712 3.125 4.87634 3.45424 4.29029 4.04029C3.70424 4.62634 3.375 5.4212 3.375 6.25V43.75C3.375 44.5788 3.70424 45.3737 4.29029 45.9597C4.87634 46.5458 5.6712 46.875 6.5 46.875H31.5C32.3288 46.875 33.1237 46.5458 33.7097 45.9597C34.2958 45.3737 34.625 44.5788 34.625 43.75V14.0625H28.375Z" fill="black"/>
<g clip-path="url(#clip1_2001_225)">
<path d="M19 16.0625C19 15.9465 18.9539 15.8352 18.8719 15.7531C18.7898 15.6711 18.6785 15.625 18.5625 15.625C18.4465 15.625 18.3352 15.6711 18.2531 15.7531C18.1711 15.8352 18.125 15.9465 18.125 16.0625V20.875C18.125 20.9521 18.1454 21.0279 18.1842 21.0945C18.2229 21.1612 18.2785 21.2165 18.3455 21.2548L21.408 23.0048C21.5085 23.0591 21.6263 23.0719 21.7361 23.0406C21.846 23.0092 21.9392 22.9361 21.9959 22.8369C22.0525 22.7377 22.0682 22.6203 22.0394 22.5098C22.0107 22.3992 21.9398 22.3043 21.842 22.2452L19 20.6213V16.0625Z" fill="black"/>
<path d="M19 27C20.8565 27 22.637 26.2625 23.9497 24.9497C25.2625 23.637 26 21.8565 26 20C26 18.1435 25.2625 16.363 23.9497 15.0503C22.637 13.7375 20.8565 13 19 13C17.1435 13 15.363 13.7375 14.0503 15.0503C12.7375 16.363 12 18.1435 12 20C12 21.8565 12.7375 23.637 14.0503 24.9497C15.363 26.2625 17.1435 27 19 27ZM25.125 20C25.125 21.6245 24.4797 23.1824 23.331 24.331C22.1824 25.4797 20.6245 26.125 19 26.125C17.3755 26.125 15.8176 25.4797 14.669 24.331C13.5203 23.1824 12.875 21.6245 12.875 20C12.875 18.3755 13.5203 16.8176 14.669 15.669C15.8176 14.5203 17.3755 13.875 19 13.875C20.6245 13.875 22.1824 14.5203 23.331 15.669C24.4797 16.8176 25.125 18.3755 25.125 20Z" fill="black"/>
</g>
<path d="M28.361 28.2213L28.0086 27.9069C27.8081 27.7281 27.5487 27.6293 27.28 27.6294C27.0113 27.6296 26.7521 27.7286 26.5517 27.9077L26.2186 28.2054L25.8854 27.9077C25.6771 27.7216 25.4053 27.6222 25.126 27.6301C24.8467 27.638 24.5809 27.7524 24.3834 27.95L24.3832 27.9501L20.8835 31.4478C20.8835 31.4478 20.8835 31.4478 20.8835 31.4478C20.8805 31.4508 20.8782 31.4543 20.8766 31.4581C20.875 31.462 20.8741 31.4662 20.8741 31.4703C20.8741 31.4745 20.875 31.4787 20.8766 31.4826C20.8782 31.4864 20.8805 31.49 20.8835 31.4929L20.5299 31.8465L20.8835 31.4929C20.8864 31.4959 20.89 31.4982 20.8938 31.4998C20.8977 31.5014 20.9019 31.5023 20.9061 31.5023C20.9102 31.5023 20.9144 31.5014 20.9183 31.4998C20.9221 31.4982 20.9256 31.4959 20.9286 31.493C20.9286 31.493 20.9286 31.4929 20.9286 31.4929C20.9286 31.4929 20.9286 31.4929 20.9286 31.4929L24.4257 27.9948C24.4258 27.9946 24.426 27.9945 24.4261 27.9944L24.4263 27.9942L24.7377 28.3054L25.0892 27.9539L25.1085 27.9346L25.4621 28.2882L25.1743 28.697C25.1683 28.6928 25.1609 28.6908 25.1536 28.6915C25.1462 28.6921 25.1394 28.6953 25.1342 28.7005L25.1335 28.7012L21.6358 32.2L21.6357 32.2C21.5517 32.284 21.454 32.3528 21.3468 32.4034L15.2174 38.5328M28.361 28.2213L26.2186 27.5348C26.5105 27.2739 26.8883 27.1296 27.2798 27.1294C27.6713 27.1292 28.0492 27.2732 28.3414 27.5338L28.4997 27.3755M28.361 28.2213L28.695 27.8873L28.8532 27.7291M28.361 28.2213L29.9604 28.8361M15.2174 38.5328C15.1496 38.6009 15.1015 38.686 15.0782 38.7793L14.0157 43.0293M15.2174 38.5328L15.571 38.8863L15.5714 38.8859C15.5675 38.8899 15.5647 38.8948 15.5634 38.9002L15.5633 38.9006L14.5009 43.1501L14.0157 43.0293M15.2174 38.5328L15.5716 38.8857L29.9604 28.8361M14.0157 43.0293C13.9936 43.1182 13.9948 43.2114 14.0193 43.2997C14.0438 43.388 14.0908 43.4685 14.1556 43.5333C14.2204 43.5981 14.3009 43.6451 14.3892 43.6696C14.4775 43.6941 14.5707 43.6953 14.6596 43.6732M14.0157 43.0293L14.5008 43.1506L14.5009 43.1502C14.4996 43.1554 14.4997 43.1608 14.5011 43.166C14.5026 43.1712 14.5053 43.1759 14.5092 43.1798C14.513 43.1836 14.5177 43.1863 14.5229 43.1878C14.5281 43.1892 14.5336 43.1893 14.5388 43.188M14.6596 43.6732L18.9096 42.6107C19.0032 42.5876 19.0888 42.5395 19.1572 42.4715M14.6596 43.6732L14.5383 43.1881L14.5388 43.188M14.6596 43.6732L14.5388 43.188M19.1572 42.4715L30.0924 31.5352C30.3802 31.2474 30.547 30.8605 30.5587 30.4538C30.5703 30.047 30.4259 29.6512 30.1551 29.3475L30.3134 29.1902M19.1572 42.4715L18.8046 42.117L29.7389 31.1816L29.7389 31.1816C29.9364 30.9841 30.0509 30.7186 30.0589 30.4395C30.0669 30.1603 29.9678 29.8887 29.7819 29.6802L29.4666 29.3266L29.8028 28.9927L29.96 28.8366L30.3134 29.1902M19.1572 42.4715L18.8036 42.1179L18.8044 42.1172C18.8004 42.1211 18.7954 42.1238 18.79 42.1252L18.7883 42.1256L14.5388 43.188M30.3134 29.1902C30.4326 29.0711 30.5271 28.9297 30.5916 28.7741C30.6561 28.6185 30.6894 28.4517 30.6894 28.2832C30.6895 28.1148 30.6563 27.9479 30.5919 27.7923C30.5275 27.6366 30.433 27.4952 30.314 27.376C30.1949 27.2568 30.0535 27.1623 29.8979 27.0978C29.7422 27.0333 29.5754 27 29.407 27C29.2385 27 29.0717 27.0331 28.916 27.0975C28.7603 27.1619 28.6189 27.2564 28.4997 27.3755M30.3134 29.1902L29.9611 28.8355L29.9604 28.8361M28.4997 27.3755L28.8533 27.729L28.8532 27.7291M28.4997 27.3755L28.8532 27.7291M28.8532 27.7291C28.9259 27.6565 29.0122 27.5988 29.1072 27.5595C29.2022 27.5202 29.304 27.5 29.4068 27.5C29.5096 27.5 29.6114 27.5203 29.7064 27.5597C29.8013 27.599 29.8876 27.6567 29.9603 27.7295C30.033 27.8022 30.0906 27.8885 30.1299 27.9835C30.1692 28.0785 30.1895 28.1803 30.1894 28.2831C30.1894 28.3859 30.1691 28.4877 30.1298 28.5826C30.0905 28.6774 30.0329 28.7635 29.9604 28.8361" fill="white" stroke="black"/>
</g>
<defs>
<clipPath id="clip0_2001_225">
<rect width="38" height="50" fill="white"/>
</clipPath>
<clipPath id="clip1_2001_225">
<rect width="14" height="14" fill="white" transform="translate(12 13)"/>
</clipPath>
</defs>
</svg>
