<svg width="43" height="53" viewBox="0 0 43 53" fill="none" xmlns="http://www.w3.org/2000/svg">
<g clip-path="url(#clip0_2001_320)">
<path d="M21.5 7C19.505 7 18.1715 8.4322 17.4323 9.6922C16.6742 10.9921 16.25 12.5776 16.25 13.825C16.25 14.8624 16.3823 16.2904 17.1572 17.4916C18.0203 18.823 19.4819 19.6 21.5 19.6C23.5181 19.6 24.9818 18.823 25.8428 17.4916C26.6198 16.2904 26.75 14.8624 26.75 13.825C26.75 12.5776 26.3258 10.99 25.5677 9.6922C24.8306 8.4322 23.495 7 21.5 7ZM19.4 13.825C19.4 13.174 19.6541 12.1345 20.1518 11.284C20.6726 10.3936 21.1745 10.15 21.5 10.15C21.8255 10.15 22.3274 10.3936 22.8482 11.284C23.3459 12.1345 23.6 13.174 23.6 13.825C23.6 14.686 23.4698 15.358 23.1947 15.7822C23.0057 16.0762 22.6277 16.45 21.5 16.45C20.3702 16.45 19.9943 16.0762 19.8053 15.7822C19.5323 15.358 19.4 14.686 19.4 13.825ZM39.35 26.425V43.75H40.925C41.3427 43.75 41.7433 43.9159 42.0387 44.2113C42.3341 44.5067 42.5 44.9073 42.5 45.325C42.5 45.7427 42.3341 46.1433 42.0387 46.4387C41.7433 46.7341 41.3427 46.9 40.925 46.9H2.075C1.65728 46.9 1.25668 46.7341 0.961307 46.4387C0.665937 46.1433 0.5 45.7427 0.5 45.325C0.5 44.9073 0.665937 44.5067 0.961307 44.2113C1.25668 43.9159 1.65728 43.75 2.075 43.75H3.65V26.425C3.65 25.1719 4.14781 23.97 5.03392 23.0839C5.92003 22.1978 7.12185 21.7 8.375 21.7H34.625C35.8781 21.7 37.08 22.1978 37.9661 23.0839C38.8522 23.97 39.35 25.1719 39.35 26.425ZM6.8 26.425V30.8161L11.9387 34.1341C12.363 34.4081 12.8574 34.5538 13.3625 34.5538C13.8676 34.5538 14.362 34.4081 14.7863 34.1341L18.455 31.7653C19.3595 31.1821 20.409 30.8632 21.485 30.8446C22.5611 30.8261 23.6209 31.1086 24.545 31.6603L28.7639 34.1782C29.199 34.438 29.7 34.5664 30.2064 34.5478C30.7128 34.5291 31.203 34.3643 31.6178 34.0732L36.2 30.856V26.425C36.2 26.0073 36.0341 25.6067 35.7387 25.3113C35.4433 25.0159 35.0427 24.85 34.625 24.85H8.375C7.95728 24.85 7.55668 25.0159 7.26131 25.3113C6.96594 25.6067 6.8 26.0073 6.8 26.425ZM33.428 36.652C32.5154 37.2925 31.4369 37.6552 30.3227 37.6962C29.2085 37.7372 28.1062 37.4547 27.149 36.883L22.9322 34.363C22.5119 34.112 22.0298 33.9835 21.5404 33.992C21.0509 34.0005 20.5736 34.1458 20.1623 34.4113L16.4936 36.7801C15.5603 37.3823 14.4732 37.7026 13.3625 37.7026C12.2518 37.7026 11.1647 37.3823 10.2314 36.7801L6.8 34.5646V43.75H36.2V34.7053L33.428 36.652Z" fill="black"/>
</g>
<defs>
<clipPath id="clip0_2001_320">
<rect width="42" height="53" fill="white" transform="translate(0.5)"/>
</clipPath>
</defs>
</svg>
