<svg width="51" height="53" viewBox="0 0 51 53" fill="none" xmlns="http://www.w3.org/2000/svg">
<g clip-path="url(#clip0_2001_355)">
<path d="M48.8333 43.6667H47.1667V15.3333C47.1667 14.8913 46.9911 14.4674 46.6785 14.1548C46.366 13.8423 45.942 13.6667 45.5 13.6667H37.1667V8.66667C37.1667 8.22464 36.9911 7.80072 36.6785 7.48816C36.366 7.1756 35.942 7 35.5 7H15.5C15.058 7 14.634 7.1756 14.3215 7.48816C14.0089 7.80072 13.8333 8.22464 13.8333 8.66667V20.3333H5.5C5.05797 20.3333 4.63405 20.5089 4.32149 20.8215C4.00893 21.134 3.83333 21.558 3.83333 22V43.6667H2.16667C1.72464 43.6667 1.30072 43.8423 0.988155 44.1548C0.675595 44.4674 0.5 44.8913 0.5 45.3333C0.5 45.7754 0.675595 46.1993 0.988155 46.5118C1.30072 46.8244 1.72464 47 2.16667 47H48.8333C49.2754 47 49.6993 46.8244 50.0118 46.5118C50.3244 46.1993 50.5 45.7754 50.5 45.3333C50.5 44.8913 50.3244 44.4674 50.0118 44.1548C49.6993 43.8423 49.2754 43.6667 48.8333 43.6667ZM7.16667 23.6667H15.5C15.942 23.6667 16.3659 23.4911 16.6785 23.1785C16.9911 22.8659 17.1667 22.442 17.1667 22V10.3333H33.8333V15.3333C33.8333 15.7754 34.0089 16.1993 34.3215 16.5118C34.634 16.8244 35.058 17 35.5 17H43.8333V43.6667H30.5V35.3333C30.5 34.8913 30.3244 34.4674 30.0118 34.1548C29.6993 33.8423 29.2754 33.6667 28.8333 33.6667H22.1667C21.7246 33.6667 21.3007 33.8423 20.9882 34.1548C20.6756 34.4674 20.5 34.8913 20.5 35.3333V43.6667H7.16667V23.6667ZM27.1667 43.6667H23.8333V37H27.1667V43.6667ZM22.1667 15.3333C22.1667 14.8913 22.3423 14.4674 22.6548 14.1548C22.9674 13.8423 23.3913 13.6667 23.8333 13.6667H27.1667C27.6087 13.6667 28.0326 13.8423 28.3452 14.1548C28.6577 14.4674 28.8333 14.8913 28.8333 15.3333C28.8333 15.7754 28.6577 16.1993 28.3452 16.5118C28.0326 16.8244 27.6087 17 27.1667 17H23.8333C23.3913 17 22.9674 16.8244 22.6548 16.5118C22.3423 16.1993 22.1667 15.7754 22.1667 15.3333ZM22.1667 22C22.1667 21.558 22.3423 21.134 22.6548 20.8215C22.9674 20.5089 23.3913 20.3333 23.8333 20.3333H27.1667C27.6087 20.3333 28.0326 20.5089 28.3452 20.8215C28.6577 21.134 28.8333 21.558 28.8333 22C28.8333 22.442 28.6577 22.8659 28.3452 23.1785C28.0326 23.4911 27.6087 23.6667 27.1667 23.6667H23.8333C23.3913 23.6667 22.9674 23.4911 22.6548 23.1785C22.3423 22.8659 22.1667 22.442 22.1667 22ZM33.8333 22C33.8333 21.558 34.0089 21.134 34.3215 20.8215C34.634 20.5089 35.058 20.3333 35.5 20.3333H38.8333C39.2754 20.3333 39.6993 20.5089 40.0118 20.8215C40.3244 21.134 40.5 21.558 40.5 22C40.5 22.442 40.3244 22.8659 40.0118 23.1785C39.6993 23.4911 39.2754 23.6667 38.8333 23.6667H35.5C35.058 23.6667 34.634 23.4911 34.3215 23.1785C34.0089 22.8659 33.8333 22.442 33.8333 22ZM17.1667 28.6667C17.1667 29.1087 16.9911 29.5326 16.6785 29.8452C16.3659 30.1577 15.942 30.3333 15.5 30.3333H12.1667C11.7246 30.3333 11.3007 30.1577 10.9882 29.8452C10.6756 29.5326 10.5 29.1087 10.5 28.6667C10.5 28.2246 10.6756 27.8007 10.9882 27.4882C11.3007 27.1756 11.7246 27 12.1667 27H15.5C15.942 27 16.3659 27.1756 16.6785 27.4882C16.9911 27.8007 17.1667 28.2246 17.1667 28.6667ZM17.1667 35.3333C17.1667 35.7754 16.9911 36.1993 16.6785 36.5118C16.3659 36.8244 15.942 37 15.5 37H12.1667C11.7246 37 11.3007 36.8244 10.9882 36.5118C10.6756 36.1993 10.5 35.7754 10.5 35.3333C10.5 34.8913 10.6756 34.4674 10.9882 34.1548C11.3007 33.8423 11.7246 33.6667 12.1667 33.6667H15.5C15.942 33.6667 16.3659 33.8423 16.6785 34.1548C16.9911 34.4674 17.1667 34.8913 17.1667 35.3333ZM22.1667 28.6667C22.1667 28.2246 22.3423 27.8007 22.6548 27.4882C22.9674 27.1756 23.3913 27 23.8333 27H27.1667C27.6087 27 28.0326 27.1756 28.3452 27.4882C28.6577 27.8007 28.8333 28.2246 28.8333 28.6667C28.8333 29.1087 28.6577 29.5326 28.3452 29.8452C28.0326 30.1577 27.6087 30.3333 27.1667 30.3333H23.8333C23.3913 30.3333 22.9674 30.1577 22.6548 29.8452C22.3423 29.5326 22.1667 29.1087 22.1667 28.6667ZM33.8333 28.6667C33.8333 28.2246 34.0089 27.8007 34.3215 27.4882C34.634 27.1756 35.058 27 35.5 27H38.8333C39.2754 27 39.6993 27.1756 40.0118 27.4882C40.3244 27.8007 40.5 28.2246 40.5 28.6667C40.5 29.1087 40.3244 29.5326 40.0118 29.8452C39.6993 30.1577 39.2754 30.3333 38.8333 30.3333H35.5C35.058 30.3333 34.634 30.1577 34.3215 29.8452C34.0089 29.5326 33.8333 29.1087 33.8333 28.6667ZM33.8333 35.3333C33.8333 34.8913 34.0089 34.4674 34.3215 34.1548C34.634 33.8423 35.058 33.6667 35.5 33.6667H38.8333C39.2754 33.6667 39.6993 33.8423 40.0118 34.1548C40.3244 34.4674 40.5 34.8913 40.5 35.3333C40.5 35.7754 40.3244 36.1993 40.0118 36.5118C39.6993 36.8244 39.2754 37 38.8333 37H35.5C35.058 37 34.634 36.8244 34.3215 36.5118C34.0089 36.1993 33.8333 35.7754 33.8333 35.3333Z" fill="black"/>
</g>
<defs>
<clipPath id="clip0_2001_355">
<rect width="50" height="53" fill="white" transform="translate(0.5)"/>
</clipPath>
</defs>
</svg>
