<svg width="51" height="53" viewBox="0 0 51 53" fill="none" xmlns="http://www.w3.org/2000/svg">
<path d="M45.2455 13.4952L26.0068 7.08228C25.6777 6.97257 25.3219 6.97257 24.9928 7.08228L5.75404 13.4952C5.43481 13.6016 5.15716 13.8058 4.96041 14.0788C4.76367 14.3518 4.65781 14.6797 4.65784 15.0163V31.0485C4.65784 31.4737 4.82675 31.8815 5.12741 32.1822C5.42807 32.4828 5.83586 32.6517 6.26106 32.6517C6.68627 32.6517 7.09405 32.4828 7.39472 32.1822C7.69538 31.8815 7.86429 31.4737 7.86429 31.0485V17.2407L14.5958 19.4832C12.8074 22.3727 12.2386 25.8537 13.0145 29.1621C13.7904 32.4705 15.8475 35.3358 18.7342 37.1288C15.1269 38.5436 12.0086 41.1028 9.72804 44.6018C9.60944 44.7781 9.52705 44.9762 9.48568 45.1846C9.4443 45.393 9.44477 45.6075 9.48704 45.8158C9.52931 46.024 9.61255 46.2217 9.73192 46.3975C9.85129 46.5732 10.0044 46.7235 10.1824 46.8396C10.3603 46.9557 10.5596 47.0352 10.7686 47.0736C10.9775 47.112 11.192 47.1085 11.3996 47.0632C11.6072 47.018 11.8038 46.9319 11.9778 46.81C12.1519 46.6882 12.2999 46.5329 12.4134 46.3533C15.4335 41.72 20.2031 39.0647 25.4998 39.0647C30.7964 39.0647 35.566 41.72 38.5861 46.3533C38.8213 46.7028 39.1845 46.9457 39.5973 47.0295C40.0101 47.1133 40.4393 47.0313 40.7922 46.8012C41.145 46.5711 41.393 46.2113 41.4827 45.7998C41.5725 45.3882 41.4966 44.9579 41.2715 44.6018C38.9909 41.1028 35.8606 38.5436 32.2654 37.1288C35.1493 35.3358 37.2044 32.4725 37.9802 29.1665C38.756 25.8605 38.189 22.3818 36.4037 19.4933L45.2455 16.5473C45.5648 16.441 45.8426 16.2368 46.0394 15.9638C46.2362 15.6908 46.3421 15.3628 46.3421 15.0263C46.3421 14.6897 46.2362 14.3617 46.0394 14.0887C45.8426 13.8157 45.5648 13.6116 45.2455 13.5052V13.4952ZM35.1192 26.2388C35.1196 27.7596 34.7594 29.2588 34.0683 30.6134C33.3771 31.9681 32.3746 33.1395 31.143 34.0317C29.9114 34.9239 28.4859 35.5113 26.9833 35.7458C25.4807 35.9804 23.9439 35.8553 22.499 35.3809C21.0542 34.9065 19.7423 34.0963 18.6712 33.0167C17.6001 31.9372 16.8002 30.619 16.3372 29.1705C15.8741 27.7219 15.7611 26.1842 16.0074 24.6835C16.2538 23.1828 16.8524 21.7619 17.7542 20.5374L24.9928 22.9422C25.3219 23.0519 25.6777 23.0519 26.0068 22.9422L33.2454 20.5374C34.4633 22.1887 35.12 24.1869 35.1192 26.2388ZM25.4998 19.7398L11.3313 15.0163L25.4998 10.2927L39.6683 15.0163L25.4998 19.7398Z" fill="black"/>
</svg>
