<svg width="75" height="15" viewBox="0 0 75 15" fill="none" xmlns="http://www.w3.org/2000/svg">
<path d="M7.5 10.7938L11.3625 13.125L10.3375 8.73125L13.75 5.775L9.25625 5.39375L7.5 1.25L5.74375 5.39375L1.25 5.775L4.6625 8.73125L3.6375 13.125L7.5 10.7938Z" fill="#F07622"/>
<path d="M22.5 10.7938L26.3625 13.125L25.3375 8.73125L28.75 5.775L24.2563 5.39375L22.5 1.25L20.7437 5.39375L16.25 5.775L19.6625 8.73125L18.6375 13.125L22.5 10.7938Z" fill="#F07622"/>
<path d="M37.5 9.61875L35.15 11.0375L35.7687 8.3625L33.6937 6.5625L36.4313 6.33125L37.5 3.80625L38.5687 6.33125L41.3062 6.5625L39.2313 8.3625L39.85 11.0375M43.75 5.775L39.2563 5.39375L37.5 1.25L35.7437 5.39375L31.25 5.775L34.6562 8.73125L33.6375 13.125L37.5 10.7938L41.3625 13.125L40.3375 8.73125L43.75 5.775Z" fill="#E4E4E4"/>
<path d="M52.5 9.61875L50.15 11.0375L50.7687 8.3625L48.6937 6.5625L51.4313 6.33125L52.5 3.80625L53.5687 6.33125L56.3062 6.5625L54.2313 8.3625L54.85 11.0375M58.75 5.775L54.2563 5.39375L52.5 1.25L50.7437 5.39375L46.25 5.775L49.6562 8.73125L48.6375 13.125L52.5 10.7938L56.3625 13.125L55.3375 8.73125L58.75 5.775Z" fill="#E4E4E4"/>
<path d="M67.5 9.61875L65.15 11.0375L65.7687 8.3625L63.6937 6.5625L66.4313 6.33125L67.5 3.80625L68.5687 6.33125L71.3062 6.5625L69.2313 8.3625L69.85 11.0375M73.75 5.775L69.2563 5.39375L67.5 1.25L65.7437 5.39375L61.25 5.775L64.6562 8.73125L63.6375 13.125L67.5 10.7938L71.3625 13.125L70.3375 8.73125L73.75 5.775Z" fill="#E4E4E4"/>
</svg>
