<svg width="15" height="15" viewBox="0 0 15 15" fill="none" xmlns="http://www.w3.org/2000/svg">
<circle cx="7.5" cy="7.5" r="7.5" fill="#6B5BBA"/>
<path d="M10.207 5.01748C10.0566 4.68877 9.84287 4.39336 9.57002 4.14092C9.01572 3.62637 8.27988 3.34277 7.5 3.34277C6.72012 3.34277 5.98428 3.62637 5.42998 4.13984C5.15713 4.39336 4.94336 4.6877 4.79297 5.01748C4.63613 5.36123 4.55664 5.72539 4.55664 6.10137V6.39141C4.55664 6.45801 4.61035 6.51172 4.67695 6.51172H5.25703C5.32363 6.51172 5.37734 6.45801 5.37734 6.39141V6.10137C5.37734 5.03252 6.3291 4.16348 7.5 4.16348C8.6709 4.16348 9.62266 5.03252 9.62266 6.10137C9.62266 6.53965 9.46689 6.95215 9.17148 7.2959C8.8793 7.63643 8.4668 7.88027 8.01025 7.9834C7.74922 8.04248 7.51396 8.18965 7.34746 8.4002C7.18154 8.61002 7.0911 8.86961 7.09072 9.13711V9.47441C7.09072 9.54102 7.14443 9.59473 7.21104 9.59473H7.79111C7.85771 9.59473 7.91143 9.54102 7.91143 9.47441V9.13711C7.91143 8.96846 8.02852 8.82022 8.19072 8.78369C8.81807 8.64189 9.3874 8.30352 9.79453 7.83086C9.99971 7.59131 10.1598 7.3249 10.2704 7.03594C10.3854 6.73623 10.4434 6.42148 10.4434 6.10137C10.4434 5.72539 10.3639 5.36016 10.207 5.01748ZM7.5 10.4541C7.16807 10.4541 6.89844 10.7237 6.89844 11.0557C6.89844 11.3876 7.16807 11.6572 7.5 11.6572C7.83193 11.6572 8.10156 11.3876 8.10156 11.0557C8.10156 10.7237 7.83193 10.4541 7.5 10.4541Z" fill="white"/>
</svg>
