<svg width="43" height="53" viewBox="0 0 43 53" fill="none" xmlns="http://www.w3.org/2000/svg">
<g clip-path="url(#clip0_2001_349)">
<path d="M27.737 15.169C27.5958 14.6523 27.2562 14.2122 26.792 13.9448C26.3279 13.6773 25.7769 13.6041 25.259 13.741L18.119 15.652L8.795 7L6.212 7.693L11.798 17.332L5.099 19.117L2.453 17.059L0.5 17.584L3.986 23.632L26.288 17.668C27.38 17.353 28.01 16.24 27.737 15.169ZM40.4 23.737L38.3 27.937H27.8L25.7 23.737L27.8 21.637H32V17.437H34.1V21.637H38.3L40.4 23.737ZM42.5 44.737V48.937H0.5V44.737H27.8V30.037H38.3V44.737H42.5Z" fill="black"/>
</g>
<defs>
<clipPath id="clip0_2001_349">
<rect width="42" height="53" fill="white" transform="translate(0.5)"/>
</clipPath>
</defs>
</svg>
