<svg width="140" height="156" viewBox="0 0 140 156" fill="none" xmlns="http://www.w3.org/2000/svg">
<path d="M27.5 69.0234C38.2696 69.0234 47 60.293 47 49.5234C47 38.7539 38.2696 30.0234 27.5 30.0234C16.7304 30.0234 8 38.7539 8 49.5234C8 60.293 16.7304 69.0234 27.5 69.0234Z" fill="#FFAC42"/>
<path d="M26.5 63C33.9558 63 40 56.9558 40 49.5C40 42.0442 33.9558 36 26.5 36C19.0442 36 13 42.0442 13 49.5C13 56.9558 19.0442 63 26.5 63Z" fill="#FFE29C"/>
<path d="M113.5 69.0234C124.27 69.0234 133 60.293 133 49.5234C133 38.7539 124.27 30.0234 113.5 30.0234C102.73 30.0234 94 38.7539 94 49.5234C94 60.293 102.73 69.0234 113.5 69.0234Z" fill="#FFAC42"/>
<path d="M113.5 63C120.956 63 127 56.9558 127 49.5C127 42.0442 120.956 36 113.5 36C106.044 36 100 42.0442 100 49.5C100 56.9558 106.044 63 113.5 63Z" fill="#FFE29C"/>
<path d="M65.8304 27.5969C65.7769 25.1122 67.7478 23.0545 70.2325 23.0011C72.7172 22.9476 74.7748 24.9185 74.8283 27.4032L74.9042 30.9293L76.0993 27.6459C76.9493 25.3105 79.5316 24.1063 81.867 24.9563C84.2024 25.8064 85.4065 28.3886 84.5565 30.724L80.4523 42.0004C79.6023 44.3358 77.02 45.5399 74.6846 44.6899C73.9368 44.4177 73.3051 43.968 72.8196 43.4057C72.189 43.7665 71.4619 43.9795 70.6844 43.9962C70.0474 44.0099 69.4384 43.8905 68.884 43.6636C68.4693 44.9327 67.4965 46.0053 66.1446 46.4973C63.8092 47.3473 61.2269 46.1432 60.3768 43.8078L56.2726 32.5315C55.4226 30.1961 56.6267 27.6138 58.9621 26.7638C61.2975 25.9138 63.8798 27.1179 64.7298 29.4533L65.942 32.7838L65.8304 27.5969Z" fill="#FFAC42"/>
<path d="M128 88.177C128 113.87 102.033 138 70 138C37.9675 138 12 113.87 12 88.177C12 62.4839 37.9675 34 70 34C102.033 34 128 62.4839 128 88.177Z" fill="#FFAC42"/>
<path fill-rule="evenodd" clip-rule="evenodd" d="M52.4434 56.319C52.1299 57.2098 50.8702 57.2098 50.5567 56.319L44.8398 40.071C49.5617 37.7041 54.6393 35.9372 59.9667 34.9369L52.4434 56.319ZM61.9173 34.6069L69.5567 56.319C69.8702 57.2098 71.1299 57.2098 71.4434 56.319L79.0296 34.7581C76.0872 34.2619 73.0715 34 70 34C67.2572 34 64.5587 34.2088 61.9173 34.6069ZM81.1083 35.1498L88.557 56.319C88.87 57.2098 90.13 57.2098 90.443 56.319L96.008 40.5043C91.364 38.0838 86.362 36.2447 81.1083 35.1498Z" fill="#6B4A32"/>
<path fill-rule="evenodd" clip-rule="evenodd" d="M13.0558 78.9992C13.8426 75.5204 15.0549 72.058 16.6446 68.6875L29.9225 75.0378C30.8233 75.4687 30.6058 76.8086 29.6149 76.9323L13.0558 78.9992ZM12.1525 91.595C12.0514 90.46 12 89.32 12 88.177C12 85.906 12.2028 83.6142 12.5945 81.3219L28.6032 84.507C29.6199 84.71 29.6951 86.135 28.7053 86.443L12.1525 91.595Z" fill="#6B4A32"/>
<path fill-rule="evenodd" clip-rule="evenodd" d="M127.885 91.142C127.961 90.157 128 89.168 128 88.177C128 86.001 127.814 83.8058 127.454 81.6093L112.888 84.507C111.872 84.71 111.797 86.135 112.786 86.443L127.885 91.142ZM123.627 69.2715C125.055 72.3954 126.159 75.594 126.9 78.8078L111.877 76.9325C110.886 76.8088 110.668 75.4689 111.569 75.0381L123.627 69.2715Z" fill="#6B4A32"/>
<path fill-rule="evenodd" clip-rule="evenodd" d="M26.0601 119.956C27.2711 104.382 46.7045 92 70.5002 92C93.816 92 112.943 103.887 114.845 119.018C104.208 130.322 88.069 138 70.0003 138C52.4365 138 36.6961 130.745 26.0601 119.956Z" fill="#FFE29C"/>
<path d="M36.5 107C40.6421 107 44 103.642 44 99.5C44 95.3579 40.6421 92 36.5 92C32.3579 92 29 95.3579 29 99.5C29 103.642 32.3579 107 36.5 107Z" fill="#FF8F75"/>
<path d="M103.5 107C107.642 107 111 103.642 111 99.5C111 95.3579 107.642 92 103.5 92C99.3579 92 96 95.3579 96 99.5C96 103.642 99.3579 107 103.5 107Z" fill="#FF8F75"/>
<path d="M45 90C49.9706 90 54 85.9706 54 81C54 76.0294 49.9706 72 45 72C40.0294 72 36 76.0294 36 81C36 85.9706 40.0294 90 45 90Z" fill="#6B4A32"/>
<path d="M49.5961 76.5756C48.106 75.7153 46.2007 76.2259 45.3404 77.7159C44.4801 79.206 44.9906 81.1113 46.4807 81.9716C47.9708 82.8319 49.8761 82.3214 50.7364 80.8313C51.5967 79.3412 51.0862 77.4359 49.5961 76.5756Z" fill="white"/>
<path d="M44.8891 82.9793C43.8957 82.4058 42.6255 82.7462 42.0519 83.7395C41.4784 84.7329 41.8188 86.0031 42.8121 86.5767C43.8055 87.1502 45.0757 86.8098 45.6493 85.8164C46.2228 84.8231 45.8824 83.5528 44.8891 82.9793Z" fill="white"/>
<path d="M96 90C100.971 90 105 85.9706 105 81C105 76.0294 100.971 72 96 72C91.0294 72 87 76.0294 87 81C87 85.9706 91.0294 90 96 90Z" fill="#6B4A32"/>
<path d="M100.596 76.5756C99.1056 75.7153 97.2003 76.2259 96.34 77.7159C95.4797 79.206 95.9902 81.1113 97.4803 81.9716C98.9704 82.8319 100.876 82.3214 101.736 80.8313C102.596 79.3412 102.086 77.4359 100.596 76.5756Z" fill="white"/>
<path d="M95.8895 82.9793C94.8961 82.4058 93.6259 82.7462 93.0523 83.7395C92.4788 84.7329 92.8192 86.0031 93.8125 86.5767C94.8059 87.1502 96.0761 86.8098 96.6497 85.8164C97.2232 84.8231 96.8828 83.5528 95.8895 82.9793Z" fill="white"/>
<path d="M71.0855 92V98.837C71.0855 101.07 72.8954 102.88 75.1282 102.88H75.693C77.6138 102.88 79.1709 101.323 79.1709 99.402" stroke="#6B4A32" stroke-width="2" stroke-linecap="round" stroke-linejoin="round"/>
<path d="M71.0854 92V98.837C71.0854 101.07 69.2755 102.88 67.0427 102.88H66.4779C64.5571 102.88 63 101.323 63 99.402" stroke="#6B4A32" stroke-width="2" stroke-linecap="round" stroke-linejoin="round"/>
<path d="M71 97.2238C75.4183 97.2238 79 95.159 79 92.612C79 90.065 75.4183 88.0002 71 88.0002C66.5817 88.0002 63 90.065 63 92.612C63 95.159 66.5817 97.2238 71 97.2238Z" fill="#6B4A32"/>
<path d="M66.6975 91.7141C67.3381 91.7141 67.8574 91.2153 67.8574 90.6C67.8574 89.9847 67.3381 89.4859 66.6975 89.4859C66.0569 89.4859 65.5376 89.9847 65.5376 90.6C65.5376 91.2153 66.0569 91.7141 66.6975 91.7141Z" fill="white"/>
<path d="M49.25 98.5C49.9404 98.5 50.5 97.9404 50.5 97.25C50.5 96.5596 49.9404 96 49.25 96C48.5596 96 48 96.5596 48 97.25C48 97.9404 48.5596 98.5 49.25 98.5Z" fill="#6B4A32" fill-opacity="0.7"/>
<path d="M53.25 99.5C53.9404 99.5 54.5 98.9404 54.5 98.25C54.5 97.5596 53.9404 97 53.25 97C52.5596 97 52 97.5596 52 98.25C52 98.9404 52.5596 99.5 53.25 99.5Z" fill="#6B4A32" fill-opacity="0.7"/>
<path d="M50.25 102.5C50.9404 102.5 51.5 101.94 51.5 101.25C51.5 100.56 50.9404 100 50.25 100C49.5596 100 49 100.56 49 101.25C49 101.94 49.5596 102.5 50.25 102.5Z" fill="#6B4A32" fill-opacity="0.7"/>
<path d="M90.75 98.5C90.0596 98.5 89.5 97.9404 89.5 97.25C89.5 96.5596 90.0596 96 90.75 96C91.4404 96 92 96.5596 92 97.25C92 97.9404 91.4404 98.5 90.75 98.5Z" fill="#6B4A32" fill-opacity="0.7"/>
<path d="M86.75 99.5C86.0596 99.5 85.5 98.9404 85.5 98.25C85.5 97.5596 86.0596 97 86.75 97C87.4404 97 88 97.5596 88 98.25C88 98.9404 87.4404 99.5 86.75 99.5Z" fill="#6B4A32" fill-opacity="0.7"/>
<path d="M89.75 102.5C89.0596 102.5 88.5 101.94 88.5 101.25C88.5 100.56 89.0596 100 89.75 100C90.4404 100 91 100.56 91 101.25C91 101.94 90.4404 102.5 89.75 102.5Z" fill="#6B4A32" fill-opacity="0.7"/>
<path d="M104.93 42.0032C105.025 41.9487 105.118 41.8892 105.209 41.8247C106.767 40.722 107.143 38.5735 106.047 37.0259C104.952 35.4783 102.801 35.1176 101.243 36.2203C101.092 36.3273 100.952 36.4442 100.823 36.5695C100.727 35.2362 99.882 34.0204 98.574 33.54C96.803 32.8902 94.855 33.8322 94.222 35.644C93.884 36.6099 93.988 37.6281 94.428 38.4667C94.287 38.4494 94.144 38.4402 93.999 38.4398C92.08 38.4345 90.544 39.9587 90.568 41.8443C90.592 43.7299 92.167 45.2629 94.087 45.2682C94.19 45.2685 94.293 45.2644 94.394 45.2559C94.352 45.3485 94.314 45.4438 94.28 45.5416C93.647 47.3534 94.568 49.349 96.339 49.9989C98.109 50.6487 100.057 49.7067 100.691 47.8949C100.747 47.734 100.791 47.5716 100.823 47.4089C101.45 47.9746 102.284 48.3216 103.195 48.3242C105.115 48.3295 106.651 46.8053 106.627 44.9197C106.611 43.6878 105.934 42.6064 104.93 42.0032Z" fill="white"/>
<g style="mix-blend-mode:multiply">
<path d="M96.7708 42.5047C97.0347 43.9104 98.3881 44.836 99.7938 44.5721C101.199 44.3082 102.125 42.9548 101.861 41.5491C101.597 40.1434 100.244 39.2178 98.8382 39.4817C97.4325 39.7456 96.5069 41.099 96.7708 42.5047Z" fill="#FED402"/>
</g>
<path d="M108.254 129.031C108.412 128.94 108.567 128.841 108.719 128.733C111.32 126.893 111.946 123.308 110.118 120.725C108.29 118.142 104.701 117.54 102.101 119.38C101.848 119.559 101.614 119.754 101.4 119.963C101.24 117.738 99.83 115.709 97.646 114.908C94.692 113.823 91.44 115.395 90.383 118.419C89.82 120.031 89.994 121.73 90.727 123.129C90.492 123.1 90.254 123.085 90.012 123.084C86.809 123.075 84.2452 125.619 84.2854 128.766C84.3255 131.913 86.955 134.471 90.158 134.48C90.33 134.48 90.502 134.473 90.67 134.459C90.601 134.614 90.537 134.773 90.48 134.936C89.424 137.959 90.962 141.29 93.916 142.374C96.87 143.459 100.122 141.887 101.179 138.863C101.272 138.594 101.346 138.323 101.4 138.052C102.446 138.996 103.838 139.575 105.359 139.579C108.562 139.588 111.126 137.045 111.085 133.898C111.059 131.842 109.928 130.038 108.254 129.031Z" fill="white"/>
<g style="mix-blend-mode:multiply">
<path d="M94.6376 129.867C95.0779 132.213 97.3366 133.758 99.6823 133.317C102.028 132.877 103.573 130.618 103.132 128.273C102.692 125.927 100.433 124.382 98.0876 124.823C95.7418 125.263 94.1972 127.522 94.6376 129.867Z" fill="#FED402"/>
</g>
<path d="M25.5132 96.55C19.67 96.037 16.3554 95.906 10.3497 96.061" stroke="#61432D" stroke-width="1.8" stroke-linecap="round" stroke-linejoin="round"/>
<path d="M24.959 105.504C19.344 106.53 16.2587 107.26 10.9118 108.939" stroke="#61432D" stroke-width="1.8" stroke-linecap="round" stroke-linejoin="round"/>
<path d="M24.6204 101.215C18.75 100.98 15.8836 101.345 10.0214 101.846" stroke="#61432D" stroke-width="1.8" stroke-linecap="round" stroke-linejoin="round"/>
<path d="M114.513 96.55C120.356 96.037 123.671 95.906 129.677 96.061" stroke="#61432D" stroke-width="1.8" stroke-linecap="round" stroke-linejoin="round"/>
<path d="M115.067 105.504C120.682 106.53 123.768 107.26 129.115 108.939" stroke="#61432D" stroke-width="1.8" stroke-linecap="round" stroke-linejoin="round"/>
<path d="M115.406 101.215C121.276 100.98 124.143 101.345 130.005 101.846" stroke="#61432D" stroke-width="1.8" stroke-linecap="round" stroke-linejoin="round"/>
</svg>
