<svg width="140" height="156" viewBox="0 0 140 156" fill="none" xmlns="http://www.w3.org/2000/svg">
<path d="M124 92C124 119.614 99.823 142 70 142C40.1766 142 16 119.614 16 92C16 64.3858 43.7431 42 70 42C96.257 42 124 64.3858 124 92Z" fill="#F0F0F0"/>
<path d="M70 30C39.6243 30 15 54.0665 15 83.7541V106.04C15 112.093 20.0205 117 26.2136 117C32.4067 117 37.4272 112.093 37.4272 106.04V96.982V106.562C37.4272 112.327 42.2086 117 48.1068 117C54.005 117 58.7864 112.327 58.7864 106.562V96.982V106.04C58.7864 112.093 63.8069 117 70 117C76.1832 117 81.1976 112.109 81.2136 106.069V106.562C81.2136 112.327 85.995 117 91.893 117C97.791 117 102.573 112.327 102.573 106.562V106.04C102.573 112.093 107.593 117 113.786 117C119.98 117 125 112.093 125 106.04V88.143C125 88.139 125 88.134 125 88.13V83.7541C125 54.0665 100.376 30 70 30Z" fill="#FCFCFC"/>
<path d="M36 85.8867C40.4183 85.8867 44 82.305 44 77.8867C44 73.4684 40.4183 69.8867 36 69.8867C31.5817 69.8867 28 73.4684 28 77.8867C28 82.305 31.5817 85.8867 36 85.8867Z" fill="#FFCEB9"/>
<path d="M104 85.8867C108.418 85.8867 112 82.305 112 77.8867C112 73.4684 108.418 69.8867 104 69.8867C99.5817 69.8867 96 73.4684 96 77.8867C96 82.305 99.5817 85.8867 104 85.8867Z" fill="#FFCEB9"/>
<path d="M45.5 76C49.6421 76 53 72.6421 53 68.5C53 64.3579 49.6421 61 45.5 61C41.3579 61 38 64.3579 38 68.5C38 72.6421 41.3579 76 45.5 76Z" fill="#525151"/>
<path d="M48.7812 67.4589C47.4868 67.4589 46.4374 66.4096 46.4374 65.1152C46.4374 63.8208 47.4868 62.7714 48.7812 62.7714C50.0756 62.7714 51.1249 63.8208 51.1249 65.1152C51.1249 66.4096 50.0756 67.4589 48.7812 67.4589Z" fill="white"/>
<path d="M45.0312 70.2714C44.2545 70.2714 43.6249 69.6418 43.6249 68.8652C43.6249 68.0885 44.2545 67.4589 45.0312 67.4589C45.8078 67.4589 46.4374 68.0885 46.4374 68.8652C46.4374 69.6418 45.8078 70.2714 45.0312 70.2714Z" fill="white"/>
<path d="M95.5 76C99.6421 76 103 72.6421 103 68.5C103 64.3579 99.6421 61 95.5 61C91.3579 61 88 64.3579 88 68.5C88 72.6421 91.3579 76 95.5 76Z" fill="#525151"/>
<path d="M98.781 67.4589C97.4866 67.4589 96.4373 66.4096 96.4373 65.1152C96.4373 63.8208 97.4866 62.7714 98.781 62.7714C100.075 62.7714 101.125 63.8208 101.125 65.1152C101.125 66.4096 100.075 67.4589 98.781 67.4589Z" fill="white"/>
<path d="M95.031 70.2714C94.2544 70.2714 93.6248 69.6418 93.6248 68.8652C93.6248 68.0885 94.2544 67.4589 95.031 67.4589C95.8077 67.4589 96.4373 68.0885 96.4373 68.8652C96.4373 69.6418 95.8077 70.2714 95.031 70.2714Z" fill="white"/>
<path fill-rule="evenodd" clip-rule="evenodd" d="M70.746 90.549C69.0992 94.035 66.1097 96.301 63.3138 95.887C59.8741 95.378 58.03 91.005 59.195 86.12C60.36 81.2354 64.0929 77.688 67.5327 78.197C68.8954 78.3987 70.0077 79.2067 70.7816 80.4127C71.5536 79.2419 72.6506 78.4587 73.9892 78.2606C77.429 77.7516 81.1619 81.299 82.3269 86.184C83.4919 91.069 81.6478 95.442 78.2081 95.951C75.3953 96.367 72.3865 94.071 70.746 90.549Z" fill="#ED653B"/>
<path d="M59.7559 78.4479C57.8082 76.8585 57.7922 73.8877 59.7225 72.2773L68.2965 65.1246C69.7746 63.8916 71.9213 63.8861 73.4056 65.1117L82.0685 72.2642C84.0198 73.8753 84.0037 76.8706 82.0352 78.4605L73.372 85.458C71.8999 86.647 69.7958 86.641 68.3297 85.445L59.7559 78.4479Z" fill="#FFD500"/>
<g style="mix-blend-mode:multiply">
<path fill-rule="evenodd" clip-rule="evenodd" d="M83.4551 76.08C80.3113 77.8886 76.0447 78.9999 71.3455 78.9999C66.1548 78.9999 61.4919 77.644 58.2871 75.4902C58.3253 76.593 58.8153 77.6824 59.7556 78.4497L68.3295 85.447C69.7956 86.643 71.8996 86.648 73.3718 85.459L82.0349 78.4623C82.8161 77.8314 83.2898 76.9792 83.4551 76.08Z" fill="#FFD500" fill-opacity="0.5"/>
</g>
<path d="M73.0823 132.075C72.5369 132.307 71.9182 132.429 71.2884 132.429H69.6532C69.0234 132.429 68.4047 132.307 67.8593 132.075L54.4542 126.381C51.9422 125.314 48.8326 126.77 49.016 128.899C49.5164 134.709 49.5064 139.29 49.0077 145.1C48.8251 147.227 51.9313 148.679 54.4406 147.613L68.3831 141.691C68.9285 141.459 69.5472 141.337 70.177 141.337H70.7646C71.3944 141.337 72.0131 141.459 72.5585 141.691L86.569 147.642C89.065 148.702 92.158 147.271 91.994 145.154C91.541 139.303 91.52 134.705 91.977 128.857C92.142 126.735 89.043 125.296 86.541 126.358L73.0823 132.075Z" fill="#ED653B"/>
<g style="mix-blend-mode:multiply">
<path fill-rule="evenodd" clip-rule="evenodd" d="M49.3865 137C49.3842 139.597 49.257 142.195 49.0077 145.1C48.8251 147.227 51.9313 148.679 54.4406 147.613L68.3831 141.691C68.9285 141.459 69.5472 141.337 70.177 141.337H70.7646C71.3944 141.337 72.0131 141.459 72.5585 141.691L86.569 147.642C89.065 148.702 92.158 147.271 91.994 145.154C91.767 142.227 91.649 139.614 91.644 137H49.3865Z" fill="#ED653B" fill-opacity="0.45"/>
</g>
<path fill-rule="evenodd" clip-rule="evenodd" d="M70.3034 45.4845C66.5777 47.872 61.5668 47.437 58.3094 44.1796L49.4308 35.3011C45.6715 31.5417 45.6715 25.4466 49.4308 21.6873C52.6228 18.4953 57.4987 18.0136 61.199 20.2421C62.0234 15.7628 65.9484 12.3692 70.6661 12.3692C75.2569 12.3692 79.0972 15.5828 80.06 19.8832C83.6655 18.0782 88.168 18.6796 91.176 21.6873C94.935 25.4466 94.935 31.5417 91.176 35.3011L82.2974 44.1796C79.0401 47.437 74.0291 47.872 70.3034 45.4845Z" fill="#ED653B"/>
<g style="mix-blend-mode:multiply">
<path fill-rule="evenodd" clip-rule="evenodd" d="M93.541 31.4239C93.089 30.0059 92.301 28.6718 91.176 27.5468C88.168 24.5392 83.6655 23.9378 80.06 25.7427C79.0972 21.4423 75.2569 18.2287 70.6661 18.2287C65.9484 18.2287 62.0234 21.6224 61.199 26.1016C57.4987 23.8731 52.6228 24.3549 49.4308 27.5468C48.3059 28.6718 47.5176 30.0059 47.0659 31.4239C46.0081 28.1031 46.7964 24.3217 49.4308 21.6873C52.6228 18.4953 57.4987 18.0135 61.199 20.242C62.0234 15.7628 65.9484 12.3691 70.6661 12.3691C75.2569 12.3691 79.0972 15.5828 80.06 19.8831C83.6655 18.0782 88.168 18.6796 91.176 21.6873C93.81 24.3217 94.599 28.1031 93.541 31.4239Z" fill="#ED653B" fill-opacity="0.5"/>
</g>
</svg>
