<svg width="140" height="156" viewBox="0 0 140 156" fill="none" xmlns="http://www.w3.org/2000/svg">
<path d="M67.7968 16.0612C67.7653 13.866 68.9275 12.0482 70.3926 12.0009C71.8578 11.9537 73.0712 13.6949 73.1027 15.8901L73.1475 19.0053L73.8522 16.1045C74.3534 14.0412 75.8761 12.9774 77.2533 13.7284C78.6304 14.4793 79.3405 16.7607 78.8392 18.824L76.4191 28.7862C75.9178 30.8495 74.3951 31.9133 73.0179 31.1623C72.577 30.9219 72.2045 30.5246 71.9182 30.0278C71.5464 30.3466 71.1176 30.5347 70.6591 30.5495C70.2835 30.5616 69.9244 30.4561 69.5975 30.2556C69.3529 31.3769 68.7793 32.3244 67.9821 32.7592C66.6049 33.5101 65.0822 32.4463 64.5809 30.383L62.1608 20.4208C61.6595 18.3575 62.3696 16.0761 63.7467 15.3252C65.1239 14.5742 66.6466 15.638 67.1478 17.7013L67.8626 20.6437L67.7968 16.0612Z" fill="#FAFAFA"/>
<path d="M17 95C17 124.271 40.7289 148 70 148C99.271 148 123 124.271 123 95V81H17V95Z" fill="#A97337"/>
<g style="mix-blend-mode:multiply">
<path fill-rule="evenodd" clip-rule="evenodd" d="M63.5602 128.127C63.5602 128.658 63.42 129.183 63.1477 129.673C62.8753 130.164 62.476 130.609 61.9728 130.984C61.4695 131.36 60.872 131.657 60.2144 131.86C59.5568 132.063 58.852 132.168 58.1402 132.168C57.4285 132.168 56.7237 132.063 56.0661 131.86C55.4085 131.657 54.811 131.36 54.3077 130.984C53.8044 130.609 53.4052 130.164 53.1328 129.673C52.8604 129.183 52.7202 128.658 52.7202 128.127H58.1402H63.5602ZM74.4003 128.135C74.3989 128.663 74.2588 129.185 73.9877 129.673C73.7154 130.164 73.3161 130.609 72.8128 130.984C72.3095 131.36 71.712 131.657 71.0544 131.86C70.3969 132.063 69.6921 132.168 68.9803 132.168C68.2685 132.168 67.5637 132.063 66.9061 131.86C66.2486 131.657 65.6511 131.36 65.1478 130.984C64.6445 130.609 64.2452 130.164 63.9729 129.673C63.7005 129.183 63.5602 128.658 63.5602 128.127H68.9803H74.4003H79.8203H85.2403C85.2403 128.658 85.1001 129.183 84.8277 129.673C84.5553 130.164 84.1561 130.609 83.6528 130.984C83.1495 131.36 82.552 131.657 81.8944 131.86C81.2369 132.063 80.5321 132.168 79.8203 132.168C79.1085 132.168 78.4037 132.063 77.7461 131.86C77.0886 131.657 76.4911 131.36 75.9878 130.984C75.4845 130.609 75.0852 130.164 74.8129 129.673C74.5418 129.185 74.4017 128.663 74.4003 128.135Z" fill="#4B2807" fill-opacity="0.5"/>
</g>
<g style="mix-blend-mode:multiply">
<path fill-rule="evenodd" clip-rule="evenodd" d="M63.5602 119.236C63.5602 119.749 63.42 120.257 63.1477 120.731C62.8753 121.205 62.476 121.636 61.9728 121.998C61.4695 122.361 60.872 122.649 60.2144 122.845C59.5568 123.042 58.852 123.143 58.1402 123.143C57.4285 123.143 56.7237 123.042 56.0661 122.845C55.4085 122.649 54.811 122.361 54.3077 121.998C53.8044 121.636 53.4052 121.205 53.1328 120.731C52.8604 120.257 52.7202 119.749 52.7202 119.236H58.1402H63.5602ZM74.4003 119.244C74.3989 119.754 74.2588 120.26 73.9877 120.731C73.7154 121.205 73.3161 121.636 72.8128 121.999C72.3095 122.361 71.712 122.649 71.0544 122.845C70.3969 123.042 69.6921 123.143 68.9803 123.143C68.2685 123.143 67.5637 123.042 66.9061 122.845C66.2486 122.649 65.6511 122.361 65.1478 121.999C64.6445 121.636 64.2452 121.205 63.9729 120.731C63.7005 120.257 63.5602 119.749 63.5602 119.236H68.9803H74.4003H79.8203H85.2403C85.2403 119.749 85.1001 120.257 84.8277 120.731C84.5553 121.205 84.1561 121.636 83.6528 121.999C83.1495 122.361 82.552 122.649 81.8944 122.845C81.2369 123.042 80.5321 123.143 79.8203 123.143C79.1085 123.143 78.4037 123.042 77.7461 122.845C77.0886 122.649 76.4911 122.361 75.9878 121.999C75.4845 121.636 75.0852 121.205 74.8129 120.731C74.5418 120.26 74.4017 119.754 74.4003 119.244Z" fill="#4B2807" fill-opacity="0.5"/>
</g>
<g style="mix-blend-mode:multiply">
<path fill-rule="evenodd" clip-rule="evenodd" d="M62.8376 137.016H69.5223H76.2069C76.2069 138.337 75.5027 139.605 74.249 140.54C72.9954 141.474 71.2952 141.999 69.5223 141.999C67.7494 141.999 66.0491 141.474 64.7955 140.54C63.5437 139.606 62.8397 138.341 62.8376 137.022C62.8365 137.674 62.6637 138.32 62.3288 138.923C61.9928 139.528 61.5004 140.077 60.8797 140.54C60.259 141.003 59.5221 141.37 58.711 141.62C57.9 141.871 57.0308 141.999 56.1529 141.999C55.2751 141.999 54.4058 141.871 53.5948 141.62C52.7838 141.37 52.0469 141.003 51.4261 140.54C50.8054 140.077 50.313 139.528 49.9771 138.923C49.6411 138.318 49.4682 137.67 49.4682 137.016H56.1529H62.8376ZM89.067 138.923C89.403 138.318 89.576 137.67 89.576 137.016H82.8916H76.2069C76.2069 137.67 76.3799 138.318 76.7158 138.923C77.0517 139.528 77.5441 140.077 78.1649 140.54C78.7856 141.003 79.5225 141.37 80.3335 141.62C81.1446 141.871 82.0138 141.999 82.8916 141.999C83.7695 141.999 84.6387 141.871 85.4498 141.62C86.261 141.37 86.998 141.003 87.618 140.54C88.239 140.077 88.732 139.528 89.067 138.923Z" fill="#4B2807" fill-opacity="0.5"/>
</g>
<path fill-rule="evenodd" clip-rule="evenodd" d="M33.1519 81H17V95C17 115.914 29.1141 133.999 46.7084 142.621C51.9817 135.865 55.1982 126.872 55.1982 117C55.1982 100.28 45.9714 86.082 33.1519 81ZM105.893 81H123V95C123 116.188 110.567 134.471 92.6 142.954C87.17 136.162 83.8469 127.035 83.8469 117C83.8469 100.28 93.074 86.082 105.893 81Z" fill="#62401A"/>
<path d="M69.5 25.9414C38.8371 25.9414 13.8791 48.8781 13.0227 77.4767C13.0076 77.7032 13 77.9316 13 78.1617V103.332C13 109.306 18.1574 114.149 24.5194 114.149C30.8814 114.149 36.0388 109.306 36.0388 103.332V93.853V103.847C36.0388 109.536 40.9507 114.149 47.0097 114.149C53.0688 114.149 57.9806 109.536 57.9806 103.847V93.853V103.332C57.9806 109.306 63.138 114.149 69.5 114.149C75.862 114.149 81.0194 109.306 81.0194 103.332V103.847C81.0194 109.536 85.9313 114.149 91.99 114.149C98.049 114.149 102.961 109.536 102.961 103.847V103.354C102.974 109.317 108.126 114.149 114.481 114.149C120.843 114.149 126 109.306 126 103.332V78.1617C126 77.9316 125.992 77.7032 125.977 77.4767C125.121 48.8781 100.163 25.9414 69.5 25.9414Z" fill="#DBDBDB"/>
<path fill-rule="evenodd" clip-rule="evenodd" d="M69.5 21.1621C38.2959 21.1621 13 46.458 13 77.6621V80.5196V89.074V97.85C13 104.212 18.1574 109.369 24.5194 109.369C30.8814 109.369 36.0388 104.212 36.0388 97.85V89.074L36.0389 98.398C36.0389 104.458 40.9507 109.369 47.0097 109.369C53.0688 109.369 57.9806 104.458 57.9806 98.398V89.074V97.85C57.9806 104.212 63.138 109.369 69.5 109.369C75.852 109.369 81.0033 104.228 81.0194 97.88V98.398C81.0194 104.458 85.9312 109.369 91.99 109.369C98.049 109.369 102.961 104.458 102.961 98.398V97.85C102.961 104.212 108.119 109.369 114.481 109.369C120.843 109.369 126 104.212 126 97.85V89.074V80.5197V77.6621C126 46.458 100.704 21.1621 69.5 21.1621Z" fill="#FAFAFA"/>
<path d="M72.0418 107.97C71.6106 108.16 71.1214 108.26 70.6234 108.26H69.3304C68.8325 108.26 68.3432 108.16 67.912 107.97L57.3126 103.312C55.3264 102.439 52.8676 103.63 53.0127 105.372C53.4083 110.125 53.4004 113.873 53.0061 118.627C52.8617 120.368 55.3178 121.555 57.3019 120.683L68.3262 115.838C68.7574 115.648 69.2466 115.549 69.7446 115.549H70.2092C70.7072 115.549 71.1964 115.648 71.6276 115.838L82.7058 120.707C84.6793 121.574 87.125 120.404 86.995 118.672C86.637 113.884 86.62 110.122 86.981 105.337C87.112 103.601 84.6615 102.424 82.6836 103.293L72.0418 107.97Z" fill="#FFCEB9"/>
<path d="M56.025 81.3895C54.0017 79.6857 54.1598 76.5223 56.3428 75.0286L68.6109 66.6346C70.0366 65.6592 71.9273 65.7091 73.2995 66.7584L84.2579 75.1384C86.218 76.6376 86.367 79.5371 84.5696 81.2286L73.5936 91.559C72.1151 92.95 69.8287 93.014 68.2756 91.706L56.025 81.3895Z" fill="#FFD500"/>
<path d="M64.5 80.7273C65.3284 80.7273 66 80.1168 66 79.3636C66 78.6105 65.3284 78 64.5 78C63.6716 78 63 78.6105 63 79.3636C63 80.1168 63.6716 80.7273 64.5 80.7273Z" fill="#512E0C"/>
<path d="M76.2412 80.7273C77.0696 80.7273 77.7412 80.1168 77.7412 79.3636C77.7412 78.6105 77.0696 78 76.2412 78C75.4128 78 74.7412 78.6105 74.7412 79.3636C74.7412 80.1168 75.4128 80.7273 76.2412 80.7273Z" fill="#512E0C"/>
<path d="M44 76C50.6274 76 56 70.6274 56 64C56 57.3726 50.6274 52 44 52C37.3726 52 32 57.3726 32 64C32 70.6274 37.3726 76 44 76Z" fill="#FFD500"/>
<path d="M44 72C48.4183 72 52 68.4183 52 64C52 59.5817 48.4183 56 44 56C39.5817 56 36 59.5817 36 64C36 68.4183 39.5817 72 44 72Z" fill="#323232"/>
<path d="M47 64.666C48.6569 64.666 50 63.3229 50 61.666C50 60.0092 48.6569 58.666 47 58.666C45.3431 58.666 44 60.0092 44 61.666C44 63.3229 45.3431 64.666 47 64.666Z" fill="white"/>
<path d="M42 69.334C43.1046 69.334 44 68.4386 44 67.334C44 66.2294 43.1046 65.334 42 65.334C40.8954 65.334 40 66.2294 40 67.334C40 68.4386 40.8954 69.334 42 69.334Z" fill="white"/>
<path d="M96 76C102.627 76 108 70.6274 108 64C108 57.3726 102.627 52 96 52C89.3726 52 84 57.3726 84 64C84 70.6274 89.3726 76 96 76Z" fill="#FFD500"/>
<path d="M96 72C100.418 72 104 68.4183 104 64C104 59.5817 100.418 56 96 56C91.5817 56 88 59.5817 88 64C88 68.4183 91.5817 72 96 72Z" fill="#323232"/>
<path d="M99 64.666C100.657 64.666 102 63.3229 102 61.666C102 60.0092 100.657 58.666 99 58.666C97.3431 58.666 96 60.0092 96 61.666C96 63.3229 97.3431 64.666 99 64.666Z" fill="white"/>
<path d="M94 69.334C95.1046 69.334 96 68.4386 96 67.334C96 66.2294 95.1046 65.334 94 65.334C92.8954 65.334 92 66.2294 92 67.334C92 68.4386 92.8954 69.334 94 69.334Z" fill="white"/>
<path d="M36 85.9082C39.3137 85.9082 42 84.1173 42 81.9082C42 79.6991 39.3137 77.9082 36 77.9082C32.6863 77.9082 30 79.6991 30 81.9082C30 84.1173 32.6863 85.9082 36 85.9082Z" fill="#FFCEB9"/>
<path d="M104 85.9082C107.314 85.9082 110 84.1173 110 81.9082C110 79.6991 107.314 77.9082 104 77.9082C100.686 77.9082 98 79.6991 98 81.9082C98 84.1173 100.686 85.9082 104 85.9082Z" fill="#FFCEB9"/>
<path d="M107.577 39.9395L108.646 35.5529C108.964 34.2468 107.916 33 106.5 33C105.084 33 104.036 34.2468 104.354 35.5529L105.423 39.9395L105.945 42.1802L107.219 42.1019L107.577 39.9395Z" fill="#FFE591"/>
<path d="M108.669 43.0119L113.303 44.0237C114.683 44.325 116 43.333 116 41.9926C116 40.6522 114.683 39.6602 113.303 39.9614L108.669 40.9732L106.412 41.4123V42.4218L108.669 43.0119Z" fill="#FFE591"/>
<path d="M104.331 43.0119L99.697 44.0238C98.317 44.3251 97 43.333 97 41.9926C97 40.6522 98.317 39.6603 99.697 39.9615L104.331 40.9733L105.849 41.3204L106.138 42.6205L104.331 43.0119Z" fill="#FFE591"/>
<path d="M105.199 39.0197L103.207 36.0028C102.456 34.8662 100.784 34.686 99.782 35.6338C98.781 36.5816 98.972 38.1647 100.172 38.8752L103.359 40.7612L105.614 42.1802L106.5 41.3043L105.199 39.0197Z" fill="#FFE591"/>
<path d="M109.641 40.7612L112.828 38.8752C114.028 38.1647 114.219 36.5817 113.218 35.6339C112.216 34.6861 110.544 34.8663 109.793 36.0029L107.801 39.0197L106.139 41.5462L106.979 42.6571L109.641 40.7612Z" fill="#FFE591"/>
<path d="M109.641 43.2241L112.828 45.11C114.028 45.8205 114.219 47.4036 113.218 48.3514C112.216 49.2992 110.544 49.119 109.793 47.9824L107.801 44.9655L106.237 42.9596L107.51 41.8474L109.641 43.2241Z" fill="#FFE591"/>
<path d="M105.199 44.9656L103.207 47.9824C102.456 49.119 100.784 49.2992 99.782 48.3514C98.781 47.4037 98.972 45.8206 100.172 45.1101L103.359 43.2241L106.138 41.6175L106.851 42.1837L105.199 44.9656Z" fill="#FFE591"/>
<path d="M107.72 44.1711L108.772 48.4878C109.085 49.773 108.054 51 106.66 51C105.267 51 104.236 49.773 104.549 48.4878L105.601 44.1711L106.005 41.8321L107.031 41.726L107.72 44.1711Z" fill="#FFE591"/>
<path d="M106.5 44.1097C107.736 44.1097 108.737 43.1617 108.737 41.9923C108.737 40.823 107.736 39.875 106.5 39.875C105.265 39.875 104.264 40.823 104.264 41.9923C104.264 43.1617 105.265 44.1097 106.5 44.1097Z" fill="#FFD500"/>
<g style="mix-blend-mode:multiply">
<path fill-rule="evenodd" clip-rule="evenodd" d="M105.934 44.0412C106.115 44.0859 106.305 44.1097 106.5 44.1097C107.736 44.1097 108.737 43.1617 108.737 41.9923C108.737 40.8229 107.736 39.875 106.5 39.875C106.372 39.875 106.246 39.8852 106.123 39.905C107.084 40.1423 107.794 40.9697 107.794 41.9538C107.794 43.0015 106.99 43.8715 105.934 44.0412Z" fill="#FED402" fill-opacity="0.5"/>
</g>
<path d="M92.349 24.2527L93.698 18.4039C94.1 16.6624 92.777 15 90.99 15C89.203 15 87.88 16.6624 88.282 18.4039L89.631 24.2527L90.29 27.2403L91.898 27.1358L92.349 24.2527Z" fill="#FFE591"/>
<path d="M93.728 28.3492L99.577 29.6982C101.318 30.1 102.98 28.7773 102.98 26.9901C102.98 25.2029 101.318 23.8803 99.577 24.2819L93.728 25.631L90.879 26.2164V27.5623L93.728 28.3492Z" fill="#FFE591"/>
<path d="M88.253 28.3492L82.4039 29.6983C80.6624 30.1001 79 28.7774 79 26.9902C79 25.203 80.6624 23.8804 82.4039 24.282L88.253 25.6311L90.168 26.0939L90.534 27.8274L88.253 28.3492Z" fill="#FFE591"/>
<path d="M89.348 23.0262L86.834 19.0038C85.8863 17.4883 83.7756 17.248 82.5118 18.5117C81.2481 19.7755 81.4884 21.8862 83.0038 22.8336L87.026 25.3483L89.872 27.2403L90.99 26.0724L89.348 23.0262Z" fill="#FFE591"/>
<path d="M94.954 25.3483L98.977 22.8337C100.492 21.8863 100.732 19.7756 99.469 18.5118C98.205 17.2481 96.094 17.4884 95.147 19.0038L92.632 23.0263L90.534 26.3949L91.595 27.8762L94.954 25.3483Z" fill="#FFE591"/>
<path d="M94.954 28.6321L98.977 31.1467C100.492 32.094 100.732 34.2048 99.469 35.4685C98.205 36.7322 96.094 36.4919 95.147 34.9765L92.632 30.954L90.658 28.2794L92.265 26.7966L94.954 28.6321Z" fill="#FFE591"/>
<path d="M89.348 30.9541L86.834 34.9766C85.8863 36.492 83.7756 36.7323 82.5118 35.4686C81.2481 34.2049 81.4884 32.0941 83.0038 31.1468L87.026 28.6322L90.534 26.4899L91.434 27.2449L89.348 30.9541Z" fill="#FFE591"/>
<path d="M92.53 29.8949L93.858 35.6504C94.253 37.364 92.951 39 91.193 39C89.434 39 88.132 37.364 88.528 35.6504L89.855 29.8949L90.366 26.7761L91.66 26.6347L92.53 29.8949Z" fill="#FFE591"/>
<path d="M90.991 29.8142C92.55 29.8142 93.814 28.5503 93.814 26.9911C93.814 25.4319 92.55 24.168 90.991 24.168C89.431 24.168 88.167 25.4319 88.167 26.9911C88.167 28.5503 89.431 29.8142 90.991 29.8142Z" fill="#FFD500"/>
<g style="mix-blend-mode:multiply">
<path fill-rule="evenodd" clip-rule="evenodd" d="M90.276 29.7229C90.504 29.7825 90.744 29.8142 90.991 29.8142C92.55 29.8142 93.814 28.5502 93.814 26.9911C93.814 25.4319 92.55 24.168 90.991 24.168C90.828 24.168 90.669 24.1816 90.515 24.2079C91.728 24.5244 92.623 25.6276 92.623 26.9398C92.623 28.3367 91.608 29.4967 90.276 29.7229Z" fill="#FED402" fill-opacity="0.5"/>
</g>
<path d="M60.4643 65.7857C60.4643 78.1805 49.9475 88.321 36.8571 88.321C23.7668 88.321 13.25 78.1805 13.25 65.7857C13.25 53.3909 23.7668 43.25 36.8571 43.25C49.9475 43.25 60.4643 53.3909 60.4643 65.7857Z" stroke="#323232" stroke-width="2.5"/>
<path d="M126.75 65.7857C126.75 78.1805 116.233 88.321 103.143 88.321C90.052 88.321 79.5356 78.1805 79.5356 65.7857C79.5356 53.3909 90.052 43.25 103.143 43.25C116.233 43.25 126.75 53.3909 126.75 65.7857Z" stroke="#323232" stroke-width="2.5"/>
<path d="M60.6094 64.038C67.6833 62.8333 71.8346 62.855 79.3903 64.038V68.4283C72.1752 67.3303 68.0611 67.3149 60.6094 68.4283V64.038Z" fill="#242424"/>
</svg>
