<svg width="1000" height="1000" viewBox="0 0 1000 1000" fill="none" xmlns="http://www.w3.org/2000/svg">
<path d="M873.79 400.941H693.29C684.1 400.941 676.65 408.391 676.65 417.581V675.691C676.65 684.881 684.1 692.331 693.29 692.331H873.79C882.98 692.331 890.43 684.881 890.43 675.691V417.581C890.43 408.391 882.98 400.941 873.79 400.941Z" stroke="#CCDDE2" stroke-width="4.83" stroke-miterlimit="10"/>
<path d="M866 430.961H703.27C698.675 430.961 694.95 434.686 694.95 439.281V473.891C694.95 478.486 698.675 482.211 703.27 482.211H866C870.595 482.211 874.32 478.486 874.32 473.891V439.281C874.32 434.686 870.595 430.961 866 430.961Z" stroke="#CCDDE2" stroke-width="4.83" stroke-miterlimit="10"/>
<path d="M783.54 452.549C786.467 452.549 788.84 450.176 788.84 447.249C788.84 444.322 786.467 441.949 783.54 441.949C780.613 441.949 778.24 444.322 778.24 447.249C778.24 450.176 780.613 452.549 783.54 452.549Z" fill="#D7E8F0"/>
<path d="M768.73 471.232C768.73 467.304 770.29 463.537 773.068 460.76C775.845 457.982 779.612 456.422 783.54 456.422C787.468 456.422 791.235 457.982 794.012 460.76C796.79 463.537 798.35 467.304 798.35 471.232H768.73Z" fill="#D7E8F0"/>
<path d="M784.62 537.141C778.974 537.143 773.455 538.819 768.761 541.957C764.067 545.095 760.41 549.555 758.25 554.772C756.091 559.989 755.527 565.729 756.63 571.267C757.733 576.804 760.452 581.89 764.446 585.882C768.439 589.874 773.526 592.592 779.064 593.693C784.602 594.794 790.342 594.228 795.558 592.066C800.774 589.905 805.232 586.246 808.369 581.551C811.506 576.856 813.18 571.337 813.18 565.691C813.18 561.941 812.441 558.227 811.006 554.763C809.57 551.298 807.467 548.15 804.814 545.499C802.162 542.848 799.014 540.745 795.549 539.311C792.084 537.877 788.37 537.139 784.62 537.141ZM784.62 587.351C783.548 587.298 782.537 586.835 781.797 586.058C781.057 585.281 780.644 584.249 780.644 583.176C780.644 582.102 781.057 581.07 781.797 580.293C782.537 579.516 783.548 579.053 784.62 579.001C785.692 579.053 786.703 579.516 787.443 580.293C788.183 581.07 788.596 582.102 788.596 583.176C788.596 584.249 788.183 585.281 787.443 586.058C786.703 586.835 785.692 587.298 784.62 587.351ZM789.89 555.241C789.01 561.431 788.27 567.931 786.42 573.951C785.98 575.401 783.26 575.401 782.82 573.951C781.517 569.425 780.515 564.818 779.82 560.161C779.25 556.771 777.27 551.281 779.16 547.991C780.83 544.991 785.53 544.691 788.26 546.231C791.61 548.121 790.29 552.161 789.89 555.241Z" fill="#D7E8F0"/>
<path d="M472.23 458.792C462.22 455.807 451.55 455.858 441.569 458.937C431.588 462.017 422.745 467.987 416.157 476.093C409.569 484.199 405.533 494.076 404.56 504.476C403.586 514.875 405.717 525.33 410.686 534.518C415.654 543.706 423.235 551.215 432.471 556.094C441.706 560.973 452.181 563.004 462.571 561.93C472.961 560.855 482.799 556.724 490.841 550.058C498.882 543.393 504.767 534.492 507.75 524.482C509.732 517.836 510.385 510.865 509.672 503.967C508.96 497.069 506.895 490.379 503.597 484.279C500.298 478.179 495.831 472.789 490.449 468.416C485.067 464.042 478.876 460.772 472.23 458.792ZM445.7 547.792C443.793 547.162 442.206 545.814 441.276 544.033C440.347 542.253 440.148 540.18 440.722 538.255C441.296 536.33 442.597 534.705 444.35 533.724C446.103 532.743 448.169 532.484 450.11 533.002C451.108 533.268 452.042 533.732 452.857 534.365C453.673 534.999 454.353 535.79 454.857 536.691C455.361 537.592 455.68 538.586 455.793 539.612C455.907 540.638 455.813 541.677 455.518 542.667C455.223 543.656 454.732 544.577 454.075 545.374C453.418 546.17 452.608 546.827 451.692 547.305C450.777 547.783 449.775 548.072 448.746 548.156C447.716 548.239 446.681 548.116 445.7 547.792ZM472 493.652C467.17 504.162 462.41 515.292 456 524.982C454.46 527.322 449.63 525.882 449.62 523.082C449.702 514.38 450.37 505.694 451.62 497.082C452.4 490.792 451.79 480.012 456.88 475.172C461.4 470.842 469.88 472.702 473.93 476.862C478.8 481.942 474.34 488.412 472 493.652Z" fill="#3FBDF1"/>
<path d="M324.73 575.719C321.068 579.446 318.593 584.175 317.619 589.308C316.644 594.441 317.213 599.748 319.255 604.558C321.296 609.368 324.717 613.464 329.087 616.329C333.456 619.194 338.576 620.7 343.801 620.655C349.026 620.61 354.12 619.018 358.44 616.078C362.759 613.138 366.11 608.984 368.068 604.14C370.027 599.296 370.505 593.98 369.443 588.864C368.381 583.748 365.825 579.063 362.1 575.399C357.101 570.487 350.357 567.761 343.349 567.821C336.341 567.881 329.644 570.722 324.73 575.719ZM357.87 608.289C357.515 608.651 357.092 608.939 356.625 609.137C356.158 609.336 355.657 609.44 355.15 609.445C354.643 609.449 354.14 609.354 353.67 609.164C353.2 608.975 352.772 608.694 352.41 608.339C352.048 607.984 351.76 607.561 351.562 607.094C351.363 606.628 351.259 606.126 351.254 605.619C351.25 605.112 351.345 604.609 351.535 604.139C351.724 603.669 352.005 603.241 352.36 602.879C353.077 602.148 354.056 601.733 355.08 601.723C356.104 601.714 357.089 602.112 357.82 602.829C358.551 603.546 358.966 604.525 358.976 605.549C358.985 606.573 358.587 607.558 357.87 608.289ZM340.1 583.999C343.61 588.599 347.42 593.309 350.19 598.429C350.86 599.659 349.1 601.429 347.86 600.809C344.041 598.724 340.366 596.386 336.86 593.809C334.25 591.999 329.35 589.739 328.4 586.349C327.54 583.349 330.4 580.009 333.14 579.219C336.51 578.239 338.32 581.729 340.1 583.999Z" fill="#3FBDF1"/>
<path d="M712.89 505.09H852.36" stroke="#CCDDE2" stroke-width="4.83" stroke-miterlimit="10"/>
<path d="M712.89 518.82H852.36" stroke="#CCDDE2" stroke-width="4.83" stroke-miterlimit="10"/>
<path d="M712.89 607.219H852.36" stroke="#CCDDE2" stroke-width="4.83" stroke-miterlimit="10"/>
<path d="M745.28 620.211H819.96" stroke="#CCDDE2" stroke-width="4.83" stroke-miterlimit="10"/>
<path d="M890.44 589.199C902.74 604.659 914.44 623.819 925.02 647.429C989.44 791.289 908.92 864.299 908.92 864.299" stroke="#9F9F9F" stroke-width="4.83" stroke-miterlimit="10"/>
<path d="M217.59 703.272C217.59 703.272 122 594.842 241.2 541.152C360.4 487.462 384 480.002 375.4 424.152C366.8 368.302 434.4 311.432 540.71 349.012C647.02 386.592 649.15 457.412 641.61 512.162C637.33 543.372 655.04 550.872 676.61 549.302" stroke="#9F9F9F" stroke-width="4.83" stroke-miterlimit="10"/>
<path d="M883.7 911.091C883.457 917.077 881.908 922.937 879.16 928.261C879.052 928.526 878.925 928.783 878.78 929.031C873.96 937.69 867.217 945.128 859.07 950.771L858.78 950.971C851.426 955.89 843.154 959.275 834.46 960.921H927C927 960.921 914.62 784.371 800.84 698.471C690.73 615.351 587.64 655.411 581.1 658.091C583.126 663.811 584.032 669.868 583.77 675.931C583.77 675.931 592.05 680.241 593.43 695.671C594.81 711.101 597.69 754.001 570 762.081C570 762.081 545.14 761.471 538.57 751.931C532 742.391 530.42 744.331 527.84 746.751C525.84 748.581 513.77 755.121 508.2 758.121C508.904 758.155 509.603 758.252 510.29 758.411C510.29 758.411 513.48 785.331 552.51 827.521C553.832 828.914 555.081 830.376 556.25 831.901C562.143 837.054 568.767 842.314 576.12 847.681L620.66 880.271C621.665 881.126 622.857 881.732 624.14 882.041C626.632 882.669 629.237 882.693 631.74 882.111C636.92 881.111 672.29 877.501 695.18 875.221C695.7 875.221 696.25 875.121 696.76 875.061L699.76 874.771C700.24 874.771 700.76 874.671 701.18 874.641L703.88 874.381C705.2 874.251 706.39 874.121 707.49 874.031L710.49 873.741C713.14 873.481 714.71 873.321 714.84 873.321C720.293 873.166 725.729 872.638 731.11 871.741C736.26 870.741 740.96 869.131 742.18 866.461C742.411 865.898 742.497 865.285 742.43 864.681C742.154 862.982 741.444 861.384 740.37 860.041C735.67 853.731 724.75 848.321 723.95 847.931C723.927 847.923 723.903 847.923 723.88 847.931L723.66 847.771L658.66 797.271H658.59C658.59 797.271 668.38 692.831 757.59 718.531C757.59 718.531 758.01 718.821 758.78 719.461C762.26 722.141 773.21 731.021 789.31 747.611C789.73 748.061 790.18 748.511 790.63 748.991C792.34 750.731 794.02 752.541 795.69 754.311C806.99 766.391 820.36 781.781 835.11 800.971L835.21 801.071C852.11 823.071 864.29 843.231 872.21 861.071V861.131C880.78 880.521 884.39 897.131 883.68 910.381C883.702 910.617 883.709 910.854 883.7 911.091ZM614.63 731.581C611.99 701.151 626.8 690.131 627.63 689.521C606.57 727.621 645.63 786.021 647 788.281C645.88 787.341 617.27 762.001 614.63 731.581Z" fill="#353642"/>
<path d="M558.69 725.611C557.594 726.417 556.452 727.158 555.27 727.831L548.41 715.831C564.23 707.741 568.67 693.481 561.71 685.651C559.764 683.509 557.255 681.957 554.47 681.171C547.47 679.051 542.62 682.171 539.33 686.361C536.645 690.003 534.676 694.123 533.53 698.501L530.19 659.981L529.93 656.981C529.93 656.981 522.65 653.371 502.93 656.591C483.21 659.811 479.58 670.701 471.11 665.871C462.64 661.041 457.84 661.431 457.84 661.431C455.43 670.281 448.98 670.281 448.98 670.281C447.452 670.096 445.951 669.731 444.51 669.191C435.36 660.781 432.88 646.191 432.88 646.191C442.48 645.001 443.22 635.761 442.12 628.191C447.44 631.351 454.94 631.571 465.47 624.811C495.68 605.491 526.66 615.951 537.55 617.561C542.41 618.271 547.73 616.561 552.14 614.561C552.71 615.582 553.503 616.46 554.46 617.131C561.811 622.252 567.874 629.009 572.17 636.871C600.52 689.861 569.44 718.001 558.69 725.611Z" fill="#3FBDF1"/>
<path d="M445.52 960.939H456.92C461.796 960.934 466.47 958.994 469.918 955.547C473.365 952.099 475.305 947.425 475.31 942.549V929.789C475.31 928.626 475.081 927.474 474.635 926.4C474.19 925.325 473.537 924.349 472.714 923.527C471.891 922.705 470.915 922.054 469.84 921.61C468.765 921.165 467.613 920.938 466.45 920.939H398.27C398.273 923.655 397.739 926.345 396.701 928.854C395.663 931.364 394.139 933.644 392.218 935.564C390.297 937.484 388.016 939.006 385.506 940.044C382.996 941.081 380.306 941.613 377.59 941.609H131.22C131.223 946.735 133.26 951.65 136.885 955.274C140.509 958.899 145.424 960.936 150.55 960.939H484.55C484.986 960.94 485.419 960.855 485.822 960.689C486.225 960.522 486.592 960.278 486.901 959.969C487.209 959.661 487.454 959.294 487.62 958.891C487.786 958.488 487.871 958.055 487.87 957.619V936.909C487.87 932.885 489.468 929.027 492.313 926.182C495.158 923.337 499.017 921.739 503.04 921.739C507.063 921.739 510.922 923.337 513.767 926.182C516.612 929.027 518.21 932.885 518.21 936.909V957.619C518.209 958.054 518.293 958.486 518.459 958.889C518.625 959.291 518.868 959.657 519.176 959.966C519.483 960.274 519.849 960.519 520.251 960.686C520.653 960.853 521.084 960.939 521.52 960.939H927C927 960.939 914.62 784.349 800.84 698.459C690.73 615.339 587.64 655.399 581.1 658.079L580.78 658.199" stroke="black" stroke-width="4.83" stroke-miterlimit="10"/>
<path d="M467.09 701.3C467.086 702.41 466.753 703.495 466.134 704.416C465.514 705.337 464.636 706.055 463.609 706.477C462.582 706.9 461.454 707.009 460.365 706.79C459.276 706.572 458.277 706.036 457.493 705.251C456.708 704.465 456.174 703.464 455.958 702.375C455.741 701.286 455.852 700.158 456.277 699.132C456.701 698.106 457.42 697.229 458.342 696.611C459.265 695.993 460.35 695.662 461.46 695.66C461.895 695.662 462.328 695.716 462.75 695.82C462.168 696.004 461.66 696.369 461.3 696.862C460.94 697.355 460.747 697.95 460.75 698.56C460.747 698.943 460.82 699.323 460.965 699.678C461.109 700.032 461.322 700.355 461.592 700.627C461.861 700.899 462.182 701.116 462.535 701.264C462.888 701.412 463.267 701.489 463.65 701.49C464.35 701.476 465.024 701.218 465.553 700.759C466.083 700.301 466.436 699.671 466.55 698.98C466.895 699.706 467.079 700.497 467.09 701.3Z" fill="black"/>
<path d="M506.1 702.868C506.102 703.984 505.773 705.076 505.154 706.005C504.536 706.933 503.656 707.658 502.625 708.086C501.595 708.515 500.461 708.628 499.366 708.411C498.271 708.195 497.265 707.658 496.475 706.87C495.686 706.082 495.148 705.077 494.929 703.982C494.711 702.888 494.822 701.754 495.248 700.722C495.675 699.691 496.398 698.81 497.326 698.19C498.253 697.569 499.344 697.238 500.46 697.238C500.729 697.236 500.998 697.267 501.26 697.328C500.761 697.558 500.339 697.926 500.043 698.389C499.746 698.851 499.589 699.389 499.59 699.938C499.556 700.708 499.828 701.459 500.347 702.027C500.867 702.595 501.591 702.934 502.36 702.968C503.129 703.003 503.88 702.73 504.449 702.211C505.017 701.691 505.356 700.968 505.39 700.198C505.852 701.013 506.096 701.932 506.1 702.868Z" fill="black"/>
<path d="M551.09 606.641C550.44 611.021 551.25 614.861 554.47 617.141C561.821 622.262 567.884 629.019 572.18 636.881C606 700.071 555.27 727.881 555.27 727.881L548.41 715.881C568.16 705.801 570.18 686.061 554.47 681.221C538.76 676.381 533.53 698.551 533.53 698.551L529.93 657.001C529.93 657.001 522.65 653.391 502.93 656.611C483.21 659.831 479.58 670.721 471.11 665.891C462.64 661.061 457.84 661.451 457.84 661.451C455.43 670.301 448.98 670.301 448.98 670.301C430.08 667.891 425.64 641.741 425.64 641.741C435.23 640.541 435.97 631.301 434.88 623.741C440.19 626.901 447.7 627.131 458.23 620.361C488.44 601.041 519.42 611.511 530.3 613.121C537.82 614.211 546.45 609.611 551.09 606.641Z" stroke="black" stroke-width="4.83" stroke-linecap="round" stroke-linejoin="round"/>
<path d="M568.53 920L576 917L581.6 932.11L580.72 959.53L573.15 960.9L544.42 959.66C544.42 959.66 546.42 942.94 552.53 934.99C558.64 927.04 568.53 920 568.53 920Z" fill="#3FBDF1"/>
<path d="M437.72 679.541C437.72 679.541 445.37 665.811 461.47 667.241" stroke="black" stroke-width="4.83" stroke-miterlimit="10"/>
<path d="M493 667.238C493 667.238 511.4 663.108 517.84 673.338" stroke="black" stroke-width="4.83" stroke-miterlimit="10"/>
<path d="M521.51 729.4C521.51 729.4 510.51 723.03 502.46 733.74" stroke="black" stroke-width="4.83" stroke-miterlimit="10"/>
<path d="M452 669.441C452 669.441 444.17 761.551 502.56 759.851C512.56 759.561 522.5 752.991 532 742.421" stroke="black" stroke-width="4.83" stroke-miterlimit="10"/>
<path d="M555.27 750.799L532 742.419C532 742.419 537.77 760.859 566.35 762.269C594.93 763.679 604.52 698.089 583.52 671.699" stroke="black" stroke-width="4.83" stroke-linejoin="round"/>
<path d="M646.25 935.578C646.25 935.578 624.92 952.888 639.41 960.938" stroke="black" stroke-width="4.83" stroke-miterlimit="10"/>
<path d="M629.75 919.469C629.75 919.469 592.75 940.409 624.52 960.939" stroke="black" stroke-width="4.83" stroke-miterlimit="10"/>
<path d="M617.27 903.371C617.27 903.371 568.16 926.371 606 960.941" stroke="black" stroke-width="4.83" stroke-miterlimit="10"/>
<path d="M823.79 960.939C823.79 960.939 883.37 960.939 884.17 903.369C884.97 845.799 768.64 701.239 693.36 681.129C618.08 661.019 614.85 716.129 614.85 718.389C614.85 720.649 610.43 744.389 629.75 769.719C644.67 789.299 710.57 838.179 739.81 859.419C740.884 860.201 741.695 861.29 742.135 862.544C742.574 863.797 742.622 865.154 742.271 866.435C741.921 867.716 741.188 868.86 740.172 869.715C739.155 870.569 737.902 871.094 736.58 871.219L607.26 883.639H607.18C605.96 883.859 560.32 892.279 546.42 906.579C546.42 906.579 538.63 912.349 542.66 921.209C546.69 930.069 559.07 927.149 559.41 926.819" stroke="black" stroke-width="4.83" stroke-miterlimit="10"/>
<path opacity="0.26" d="M500.47 713.329C509.362 713.329 516.57 706.121 516.57 697.229C516.57 688.337 509.362 681.129 500.47 681.129C491.578 681.129 484.37 688.337 484.37 697.229C484.37 706.121 491.578 713.329 500.47 713.329Z" fill="white"/>
<path opacity="0.26" d="M459.61 711.739C468.502 711.739 475.71 704.531 475.71 695.639C475.71 686.747 468.502 679.539 459.61 679.539C450.718 679.539 443.51 686.747 443.51 695.639C443.51 704.531 450.718 711.739 459.61 711.739Z" fill="white"/>
<path d="M598.78 917.461C593.12 915.881 583.87 914.461 574.34 917.521C569.68 919.022 565.38 921.47 561.71 924.711C560.91 925.411 560.14 926.121 559.4 926.831C557.805 928.395 556.299 930.047 554.89 931.781C554.705 932.01 554.441 932.163 554.15 932.211C550.6 932.701 527.23 936.401 527.35 948.211C527.46 958.821 539.08 960.561 543.08 960.841C543.245 960.856 543.411 960.837 543.568 960.785C543.725 960.732 543.87 960.648 543.993 960.537C544.116 960.426 544.215 960.291 544.283 960.14C544.352 959.99 544.388 959.826 544.39 959.661C544.39 955.881 545.25 944.031 554.6 932.111" stroke="black" stroke-width="4.83" stroke-miterlimit="10"/>
<path d="M388.22 834.109C390.96 856.199 373.79 866.189 355.02 867.669" stroke="black" stroke-width="4.83" stroke-miterlimit="10"/>
<path d="M327.74 863.06C320.583 859.194 314.786 853.222 311.133 845.954C307.481 838.685 306.15 830.47 307.32 822.42C310.32 801.17 328.32 784.87 345.94 774.53C382.94 752.82 466.32 768.53 480.33 771.73C491.07 774.19 500.05 765.79 503.69 761.73C503.845 761.558 504.045 761.433 504.268 761.372C504.491 761.31 504.727 761.314 504.948 761.382C505.169 761.451 505.366 761.581 505.515 761.758C505.664 761.935 505.76 762.15 505.79 762.38C513.48 807.38 602.79 868.46 623.45 882.13" stroke="black" stroke-width="4.83" stroke-miterlimit="10"/>
<path d="M410.75 818.832L381.18 837.182C379.418 838.279 377.445 838.995 375.39 839.283C373.334 839.571 371.241 839.424 369.245 838.853C367.249 838.282 365.395 837.299 363.803 835.968C362.21 834.636 360.915 832.985 360 831.122C358.351 827.775 358.024 823.93 359.084 820.353C360.144 816.775 362.514 813.729 365.72 811.822L410.72 785.012" stroke="black" stroke-width="4.83" stroke-miterlimit="10"/>
<path d="M500.47 713.329C509.362 713.329 516.57 706.121 516.57 697.229C516.57 688.337 509.362 681.129 500.47 681.129C491.578 681.129 484.37 688.337 484.37 697.229C484.37 706.121 491.578 713.329 500.47 713.329Z" stroke="black" stroke-width="4.83" stroke-miterlimit="10"/>
<path d="M459.61 709.329C467.171 709.329 473.3 703.2 473.3 695.639C473.3 688.078 467.171 681.949 459.61 681.949C452.049 681.949 445.92 688.078 445.92 695.639C445.92 703.2 452.049 709.329 459.61 709.329Z" stroke="white" stroke-width="4.83" stroke-miterlimit="10"/>
<path d="M459.61 711.739C468.502 711.739 475.71 704.531 475.71 695.639C475.71 686.747 468.502 679.539 459.61 679.539C450.718 679.539 443.51 686.747 443.51 695.639C443.51 704.531 450.718 711.739 459.61 711.739Z" stroke="black" stroke-width="4.83" stroke-miterlimit="10"/>
<path d="M484.45 695.641H475.71" stroke="black" stroke-width="4.83" stroke-miterlimit="10"/>
<path d="M484.45 718.391H478.69C478.328 718.391 477.97 718.312 477.642 718.158C477.314 718.004 477.024 717.779 476.793 717.5C476.561 717.221 476.395 716.895 476.304 716.544C476.214 716.193 476.202 715.827 476.27 715.471L480.08 695.641" stroke="black" stroke-width="4.83" stroke-miterlimit="10"/>
<path d="M368.88 773.34C368.88 773.34 348.35 777.77 341.11 808.77C336.71 827.59 330.67 851.6 326.61 867.56C326.089 869.607 326.043 871.746 326.474 873.814C326.906 875.882 327.805 877.824 329.101 879.492C330.398 881.16 332.058 882.51 333.955 883.438C335.853 884.367 337.937 884.85 340.05 884.85C343.204 884.85 346.265 883.776 348.726 881.803C351.188 879.831 352.903 877.078 353.59 874L362.18 835.46" stroke="black" stroke-width="4.83" stroke-miterlimit="10"/>
<path d="M387.65 845.802C387.65 845.802 409.2 832.922 451.65 845.802C494.1 858.682 542.9 867.422 559 833.262" stroke="black" stroke-width="4.83" stroke-miterlimit="10"/>
<path d="M574.35 917.52C574.35 917.52 589.35 934.64 580.23 960.94" stroke="black" stroke-width="4.83" stroke-miterlimit="10"/>
<path d="M78.6801 704.629H315.68C323.314 704.619 330.729 707.178 336.731 711.894C342.733 716.611 346.974 723.21 348.77 730.629L386.5 886.889C387.518 891.105 387.566 895.498 386.641 899.735C385.716 903.973 383.841 907.946 381.158 911.354C378.474 914.762 375.053 917.517 371.151 919.411C367.249 921.305 362.968 922.289 358.63 922.289H122.24C114.621 922.296 107.22 919.744 101.225 915.042C95.2305 910.34 90.9885 903.76 89.1801 896.359L50.8401 740.129C49.8048 735.908 49.7426 731.507 50.6581 727.259C51.5736 723.011 53.4429 719.026 56.1246 715.607C58.8064 712.187 62.2305 709.422 66.138 707.52C70.0456 705.618 74.3343 704.63 78.6801 704.629Z" fill="#3FBDF1"/>
<path d="M87.3099 711.352H309.67C316.833 711.361 323.786 713.773 329.415 718.203C335.045 722.632 339.026 728.822 340.72 735.782L376.14 882.372C377.096 886.327 377.143 890.447 376.275 894.423C375.408 898.399 373.65 902.126 371.133 905.323C368.616 908.521 365.407 911.105 361.746 912.882C358.085 914.659 354.069 915.582 350 915.582H128.18C121.039 915.567 114.108 913.163 108.491 908.755C102.873 904.346 98.8916 898.184 97.18 891.252L61.18 744.652C60.2079 740.691 60.1493 736.562 61.0087 732.575C61.868 728.589 63.6228 724.85 66.1402 721.642C68.6576 718.434 71.8717 715.84 75.5393 714.057C79.207 712.275 83.232 711.349 87.3099 711.352Z" fill="#3FBDF1"/>
<path d="M78.6801 704.629H315.68C323.314 704.619 330.729 707.178 336.731 711.894C342.733 716.611 346.974 723.21 348.77 730.629L386.5 886.889C387.518 891.105 387.566 895.498 386.641 899.735C385.716 903.973 383.841 907.946 381.158 911.354C378.474 914.762 375.053 917.517 371.151 919.411C367.249 921.305 362.968 922.289 358.63 922.289H122.24C114.621 922.296 107.22 919.744 101.225 915.042C95.2305 910.34 90.9885 903.76 89.1801 896.359L50.8401 740.129C49.8048 735.908 49.7426 731.507 50.6581 727.259C51.5736 723.011 53.4429 719.026 56.1246 715.607C58.8064 712.187 62.2305 709.422 66.138 707.52C70.0456 705.618 74.3343 704.63 78.6801 704.629Z" stroke="black" stroke-width="4.83" stroke-miterlimit="10"/>
<path d="M189.68 808.71L175.55 742.84C175.257 741.447 174.493 740.197 173.388 739.3C172.283 738.402 170.904 737.912 169.48 737.91H99.56C98.6194 737.913 97.6918 738.129 96.8472 738.543C96.0027 738.957 95.2633 739.557 94.6852 740.299C94.1071 741.041 93.7054 741.905 93.5104 742.825C93.3155 743.745 93.3324 744.698 93.56 745.61L109.91 812.25C110.113 813.179 110.546 814.042 111.17 814.76C111.73 815.472 112.443 816.047 113.257 816.444C114.071 816.841 114.965 817.048 115.87 817.05H116L183.67 816.25C184.584 816.237 185.483 816.022 186.304 815.621C187.125 815.22 187.848 814.643 188.42 813.93C189.003 813.207 189.418 812.364 189.636 811.462C189.854 810.559 189.869 809.619 189.68 808.71ZM98.23 744.43C98.1793 744.233 98.1745 744.027 98.2161 743.827C98.2577 743.628 98.3446 743.441 98.47 743.28C98.5983 743.113 98.7633 742.977 98.9523 742.884C99.1412 742.79 99.3491 742.741 99.56 742.74H169.48C169.795 742.739 170.101 742.846 170.345 743.045C170.59 743.244 170.757 743.521 170.82 743.83L181.58 794C145.65 759.31 141.58 799.11 141.58 799.11C121.3 788.55 115.44 800.11 113.74 807.72L98.23 744.43Z" fill="#D7E8F0"/>
<path d="M118.42 768.341C122.32 767.131 124.17 761.961 122.57 756.791C120.97 751.621 116.5 748.421 112.57 749.631C108.64 750.841 106.82 756.011 108.43 761.171C110.04 766.331 114.53 769.551 118.42 768.341Z" fill="#D7E8F0"/>
<path d="M135.54 767.16H158.48C161.33 767.16 164.19 767.16 167.04 767.16H167.45C168.252 767.182 169.05 767.032 169.79 766.72C170.301 766.467 170.736 766.082 171.049 765.606C171.363 765.129 171.544 764.578 171.575 764.008C171.605 763.438 171.484 762.871 171.223 762.363C170.962 761.856 170.571 761.427 170.09 761.12C169.551 760.875 169.06 760.537 168.64 760.12C168.362 759.681 168.171 759.192 168.08 758.68C167.55 757.233 166.527 756.018 165.19 755.25C164.217 754.596 163.123 754.145 161.971 753.923C160.82 753.701 159.636 753.714 158.49 753.96C157.359 754.246 156.324 754.825 155.49 755.64C154.78 756.34 154.64 757.28 154.09 758.06C153.73 758.57 153.5 758.41 153.01 758.13C152.52 757.85 152.25 757.64 151.85 757.44C151.061 757.018 150.242 756.654 149.4 756.35C147.685 755.715 145.856 755.446 144.03 755.56C140.82 755.81 137.62 757.72 136.5 760.74C135.491 760.754 134.519 761.127 133.761 761.792C133.002 762.457 132.505 763.372 132.36 764.37C132.294 764.755 132.319 765.151 132.433 765.524C132.548 765.898 132.749 766.239 133.02 766.52C133.749 767.044 134.649 767.272 135.54 767.16Z" fill="#D7E8F0"/>
<path d="M300 765.738L298.16 758.168C296.926 753.079 294.017 748.553 289.899 745.317C285.782 742.081 280.697 740.324 275.46 740.328H250.19C247.307 740.325 244.462 740.987 241.876 742.263C239.291 743.539 237.035 745.394 235.283 747.685C233.532 749.975 232.333 752.639 231.779 755.468C231.225 758.297 231.332 761.217 232.09 763.998L234.18 771.688C235.515 776.636 238.444 781.005 242.513 784.12C246.583 787.235 251.565 788.921 256.69 788.918H281.81C284.647 788.916 287.447 788.269 289.998 787.027C292.549 785.784 294.785 783.979 296.536 781.747C298.288 779.515 299.51 776.914 300.11 774.141C300.71 771.368 300.672 768.495 300 765.738ZM272.21 767.608L263.58 772.918C263.248 773.129 262.871 773.261 262.479 773.302C262.087 773.343 261.691 773.293 261.322 773.155C260.953 773.018 260.621 772.796 260.351 772.509C260.082 772.221 259.883 771.875 259.77 771.498L256.52 760.878C256.384 760.407 256.384 759.906 256.521 759.435C256.658 758.964 256.926 758.541 257.293 758.217C257.661 757.892 258.114 757.678 258.598 757.601C259.083 757.523 259.579 757.585 260.03 757.778L272 763.068C272.428 763.261 272.795 763.567 273.061 763.954C273.326 764.341 273.48 764.793 273.506 765.262C273.532 765.731 273.428 766.197 273.207 766.611C272.985 767.025 272.654 767.37 272.25 767.608H272.21Z" fill="white"/>
<path d="M294.36 833.738H250.15C248.126 833.735 246.147 833.143 244.453 832.035C242.759 830.928 241.424 829.351 240.61 827.498C240.358 826.928 240.222 826.312 240.21 825.688C240.221 824.482 240.706 823.329 241.562 822.479C242.418 821.629 243.574 821.151 244.78 821.148H291.78C289.57 824.888 290.69 830.058 294.36 833.738Z" fill="#D7E8F0"/>
<path d="M323 829.198C322.997 830.402 322.518 831.555 321.667 832.406C320.817 833.257 319.663 833.736 318.46 833.738H294.36C290.69 830.058 289.57 824.888 291.78 821.148H313C315.021 821.149 316.997 821.737 318.691 822.839C320.384 823.941 321.721 825.511 322.54 827.358C322.817 827.934 322.973 828.56 323 829.198Z" fill="#3FBDF1"/>
<path d="M311.89 833.739C311.765 833.98 311.621 834.211 311.46 834.429C308.3 838.739 301.46 839.139 296.15 835.259C295.516 834.799 294.917 834.291 294.36 833.739C290.69 830.059 289.57 824.889 291.78 821.149C291.904 820.911 292.048 820.684 292.21 820.469C295.34 816.129 302.21 815.749 307.49 819.599C308.13 820.071 308.735 820.589 309.3 821.149C313 824.829 314.07 829.999 311.89 833.739Z" fill="white"/>
<path d="M334.07 857.001C334.059 858.207 333.574 859.36 332.718 860.21C331.862 861.06 330.706 861.538 329.5 861.541H154.28C156.52 857.781 155.4 852.631 151.72 848.961H324.13C326.152 848.96 328.131 849.549 329.823 850.656C331.516 851.762 332.849 853.338 333.66 855.191C333.919 855.76 334.059 856.376 334.07 857.001Z" fill="#3FBDF1"/>
<path d="M154.28 861.49H132.45C130.429 861.491 128.452 860.904 126.758 859.801C125.065 858.699 123.728 857.128 122.91 855.28C122.653 854.701 122.517 854.074 122.51 853.44C122.509 852.844 122.625 852.254 122.853 851.703C123.081 851.152 123.415 850.652 123.837 850.231C124.259 849.809 124.76 849.476 125.312 849.249C125.863 849.023 126.454 848.908 127.05 848.91H151.72C155.4 852.58 156.52 857.73 154.28 861.49Z" fill="#D7E8F0"/>
<path d="M154.28 861.49C154.177 861.736 154.043 861.968 153.88 862.18C150.75 866.52 143.88 866.89 138.59 863.04C137.953 862.568 137.351 862.05 136.79 861.49C133.14 857.81 132.02 852.67 134.2 848.91C134.321 848.667 134.465 848.436 134.63 848.22C137.79 843.91 144.63 843.51 149.94 847.38C150.574 847.841 151.169 848.353 151.72 848.91C155.4 852.58 156.52 857.73 154.28 861.49Z" fill="white"/>
<path d="M169.74 889.001H142C139.98 888.999 138.003 888.412 136.31 887.309C134.617 886.207 133.28 884.638 132.46 882.791C132.185 882.233 132.028 881.623 132 881.001C132.003 879.793 132.484 878.635 133.339 877.78C134.193 876.925 135.351 876.444 136.56 876.441H167.13C165 880.221 166.09 885.361 169.74 889.001Z" fill="#3FBDF1"/>
<path d="M343.58 884.532C343.564 885.732 343.073 886.876 342.214 887.714C341.356 888.552 340.2 889.015 339 889.002H169.74C166.09 885.322 164.97 880.182 167.15 876.422H333.64C335.662 876.421 337.641 877.01 339.333 878.117C341.026 879.223 342.359 880.799 343.17 882.652C343.435 883.244 343.574 883.884 343.58 884.532Z" fill="#D7E8F0"/>
<path d="M187.26 889.001C187.139 889.244 186.995 889.475 186.83 889.691C183.7 894.031 176.83 894.401 171.55 890.551C170.91 890.08 170.305 889.562 169.74 889.001C166.09 885.321 164.97 880.181 167.15 876.421C167.275 876.181 167.419 875.95 167.58 875.731C170.74 871.421 177.58 871.041 182.89 874.891C183.526 875.35 184.121 875.862 184.67 876.421C188.35 880.131 189.47 885.301 187.26 889.001Z" fill="white"/>
<g opacity="0.21">
<path opacity="0.21" d="M192.1 811.118L178 745.248C177.708 743.855 176.945 742.605 175.839 741.709C174.734 740.813 173.353 740.325 171.93 740.328H102C101.053 740.328 100.119 740.545 99.2695 740.963C98.4199 741.38 97.6777 741.988 97.1001 742.738C96.5273 743.473 96.1304 744.329 95.9397 745.24C95.749 746.152 95.7697 747.096 96.0001 747.998L112.35 814.648C112.55 815.576 112.979 816.44 113.6 817.158C114.162 817.869 114.878 818.444 115.693 818.839C116.509 819.234 117.404 819.438 118.31 819.438H118.47L186.13 818.628C187.042 818.617 187.94 818.404 188.759 818.005C189.579 817.606 190.3 817.029 190.87 816.318C191.445 815.595 191.853 814.754 192.066 813.855C192.278 812.957 192.29 812.022 192.1 811.118ZM100.64 746.848C100.589 746.65 100.585 746.443 100.629 746.243C100.672 746.044 100.762 745.857 100.89 745.698C101.015 745.53 101.178 745.393 101.366 745.3C101.553 745.206 101.76 745.157 101.97 745.158H171.89C172.205 745.156 172.511 745.262 172.757 745.458C173.003 745.655 173.173 745.93 173.24 746.238L184 796.408C148.06 761.708 144 801.518 144 801.518C123.73 790.958 117.86 802.518 116.17 810.128L100.64 746.848Z" fill="#D7E8F0"/>
<path opacity="0.21" d="M120.84 770.75C124.73 769.54 126.59 764.37 124.98 759.21C123.37 754.05 118.92 750.83 114.98 752.04C111.04 753.25 109.23 758.42 110.83 763.59C112.43 768.76 117 772 120.84 770.75Z" fill="#D7E8F0"/>
<path opacity="0.21" d="M138 769.577H160.93C163.79 769.577 166.64 769.577 169.5 769.577H169.9C170.703 769.6 171.5 769.45 172.24 769.137C172.754 768.886 173.191 768.502 173.506 768.026C173.822 767.549 174.005 766.996 174.035 766.426C174.066 765.855 173.943 765.286 173.68 764.778C173.418 764.27 173.024 763.842 172.54 763.537C172.006 763.284 171.517 762.946 171.09 762.537C170.82 762.091 170.631 761.6 170.53 761.087C170 759.645 168.981 758.435 167.65 757.667C166.677 757.011 165.58 756.558 164.427 756.336C163.274 756.114 162.088 756.128 160.94 756.377C159.828 756.665 158.813 757.245 158 758.057C157.28 758.757 157.15 759.687 156.6 760.477C156.24 760.987 156.01 760.827 155.52 760.537C155.03 760.247 154.76 760.057 154.36 759.847C153.571 759.428 152.752 759.068 151.91 758.767C150.195 758.13 148.366 757.857 146.54 757.967C143.33 758.217 140.13 760.137 139 763.147C137.991 763.164 137.021 763.539 136.264 764.206C135.507 764.873 135.013 765.789 134.87 766.787C134.805 767.172 134.831 767.566 134.943 767.939C135.056 768.311 135.253 768.653 135.52 768.937C136.242 769.443 137.123 769.671 138 769.577Z" fill="#D7E8F0"/>
<path opacity="0.21" d="M302.46 768.148L300.62 760.588C299.384 755.497 296.473 750.97 292.355 747.732C288.236 744.495 283.149 742.736 277.91 742.738H252.6C249.72 742.736 246.879 743.398 244.296 744.673C241.713 745.947 239.459 747.799 237.709 750.086C235.958 752.372 234.758 755.032 234.201 757.857C233.645 760.683 233.747 763.599 234.5 766.378L236.59 774.078C237.927 779.027 240.858 783.397 244.929 786.511C249 789.626 253.984 791.312 259.11 791.308H284.23C287.068 791.309 289.869 790.666 292.422 789.427C294.975 788.188 297.214 786.385 298.969 784.155C300.725 781.925 301.951 779.326 302.555 776.553C303.16 773.781 303.128 770.907 302.46 768.148ZM274.66 769.998L266 775.338C265.668 775.55 265.292 775.681 264.901 775.722C264.51 775.763 264.115 775.713 263.746 775.575C263.378 775.438 263.046 775.216 262.778 774.929C262.51 774.641 262.312 774.295 262.2 773.918L259 763.288C258.866 762.818 258.868 762.319 259.006 761.849C259.144 761.38 259.412 760.959 259.78 760.635C260.147 760.312 260.598 760.099 261.082 760.022C261.565 759.945 262.06 760.006 262.51 760.198L274.39 765.478C274.812 765.673 275.172 765.979 275.434 766.363C275.696 766.746 275.849 767.194 275.876 767.658C275.904 768.121 275.806 768.584 275.591 768.996C275.377 769.408 275.055 769.754 274.66 769.998Z" fill="#D7E8F0"/>
<path opacity="0.21" d="M296.78 836.147H252.57C250.548 836.143 248.57 835.552 246.876 834.446C245.183 833.341 243.847 831.767 243.03 829.917C242.718 829.226 242.586 828.468 242.646 827.713C242.705 826.958 242.955 826.23 243.371 825.596C243.786 824.963 244.355 824.445 245.025 824.09C245.694 823.735 246.442 823.555 247.2 823.567H294.2C292 827.297 293.1 832.477 296.78 836.147Z" fill="#D7E8F0"/>
<path opacity="0.21" d="M325.36 831.606C325.36 832.809 324.883 833.962 324.034 834.813C323.185 835.664 322.032 836.144 320.83 836.146H296.78C293.1 832.476 291.98 827.296 294.19 823.566H315.42C317.441 823.565 319.419 824.151 321.113 825.254C322.807 826.356 324.143 827.928 324.96 829.776C325.216 830.353 325.352 830.976 325.36 831.606Z" fill="#3FBDF1"/>
<path opacity="0.21" d="M314.3 836.148C314.182 836.393 314.038 836.624 313.87 836.838C310.71 841.148 303.87 841.548 298.56 837.678C297.928 837.214 297.333 836.703 296.78 836.148C293.1 832.478 291.98 827.298 294.19 823.568C294.315 823.325 294.462 823.094 294.63 822.878C297.76 818.538 304.63 818.168 309.91 822.018C310.551 822.489 311.156 823.007 311.72 823.568C315.37 827.248 316.49 832.388 314.3 836.148Z" fill="white"/>
<path opacity="0.21" d="M336.48 859.366C336.469 860.571 335.983 861.724 335.127 862.572C334.272 863.42 333.115 863.896 331.91 863.896H156.7C158.94 860.136 157.82 854.996 154.14 851.316H326.54C328.565 851.316 330.546 851.906 332.24 853.015C333.935 854.123 335.269 855.701 336.08 857.556C336.337 858.126 336.473 858.742 336.48 859.366Z" fill="#3FBDF1"/>
<path opacity="0.21" d="M156.7 863.896H134.86C132.841 863.895 130.865 863.309 129.172 862.209C127.479 861.108 126.141 859.541 125.32 857.696C125.069 857.115 124.933 856.49 124.92 855.856C124.92 854.652 125.398 853.498 126.25 852.646C127.101 851.795 128.256 851.316 129.46 851.316H154.14C157.82 854.996 158.94 860.136 156.7 863.896Z" fill="#D7E8F0"/>
<path opacity="0.21" d="M156.7 863.899C156.597 864.147 156.459 864.38 156.29 864.589C153.16 868.929 146.29 869.309 141.01 865.459C140.369 864.984 139.764 864.462 139.2 863.899C135.55 860.229 134.43 855.079 136.62 851.319C136.738 851.074 136.882 850.842 137.05 850.629C140.21 846.319 147.05 845.919 152.36 849.799C152.989 850.262 153.584 850.77 154.14 851.319C157.82 854.999 158.94 860.139 156.7 863.899Z" fill="white"/>
<path opacity="0.21" d="M172.15 891.447H144.37C142.351 891.443 140.377 890.856 138.684 889.756C136.992 888.656 135.653 887.09 134.83 885.247C134.579 884.676 134.443 884.061 134.43 883.437C134.435 882.227 134.918 881.067 135.774 880.212C136.63 879.356 137.79 878.872 139 878.867H169.57C167.38 882.627 168.5 887.777 172.15 891.447Z" fill="#3FBDF1"/>
<path opacity="0.21" d="M346 886.937C345.999 887.532 345.88 888.12 345.651 888.668C345.422 889.217 345.087 889.715 344.666 890.134C344.244 890.553 343.744 890.885 343.194 891.11C342.644 891.335 342.054 891.45 341.46 891.447H172.15C168.5 887.777 167.38 882.627 169.57 878.867H336.05C338.075 878.867 340.056 879.457 341.75 880.565C343.444 881.674 344.779 883.252 345.59 885.107C345.85 885.683 345.989 886.306 346 886.937Z" fill="#D7E8F0"/>
<path opacity="0.21" d="M189.68 891.449C189.555 891.692 189.408 891.923 189.24 892.139C186.11 896.479 179.24 896.859 173.96 893.009C173.319 892.534 172.714 892.013 172.15 891.449C168.5 887.779 167.38 882.629 169.57 878.869C169.688 878.624 169.832 878.393 170 878.179C173.16 873.869 180 873.499 185.31 877.349C185.939 877.812 186.534 878.32 187.09 878.869C190.77 882.549 191.89 887.719 189.68 891.449Z" fill="white"/>
</g>
</svg>
