<svg width="838" height="903" viewBox="0 0 838 903" fill="none" xmlns="http://www.w3.org/2000/svg">
<path d="M239.949 342.348H166.809C164.773 342.348 162.756 341.946 160.876 341.167C158.995 340.387 157.286 339.244 155.848 337.804C154.409 336.363 153.27 334.653 152.492 332.772C151.715 330.89 151.315 328.873 151.318 326.838V150.988C151.318 148.954 151.719 146.94 152.497 145.061C153.276 143.183 154.417 141.476 155.856 140.038C157.294 138.6 159.003 137.46 160.882 136.683C162.761 135.906 164.775 135.506 166.809 135.508H287.558C289.596 135.501 291.614 135.897 293.499 136.671C295.383 137.446 297.096 138.585 298.54 140.023C299.983 141.461 301.129 143.17 301.911 145.051C302.693 146.933 303.097 148.95 303.098 150.988V198.418" stroke="#CCDDE2" stroke-width="4.5" stroke-miterlimit="10"/>
<path d="M283.888 156.816H172.058C167.778 156.816 164.308 160.286 164.308 164.566V185.446C164.308 189.726 167.778 193.196 172.058 193.196H283.888C288.168 193.196 291.638 189.726 291.638 185.446V164.566C291.638 160.286 288.168 156.816 283.888 156.816Z" stroke="#CCDDE2" stroke-width="4.5" stroke-miterlimit="10"/>
<path d="M227.188 172.137C229.265 172.137 230.948 170.453 230.948 168.377C230.948 166.3 229.265 164.617 227.188 164.617C225.111 164.617 223.428 166.3 223.428 168.377C223.428 170.453 225.111 172.137 227.188 172.137Z" fill="#D7E8F0"/>
<path d="M216.678 185.406C216.59 183.973 216.795 182.537 217.283 181.186C217.771 179.835 218.53 178.598 219.514 177.552C220.497 176.506 221.685 175.672 223.003 175.102C224.321 174.532 225.742 174.238 227.178 174.238C228.614 174.238 230.035 174.532 231.353 175.102C232.671 175.672 233.859 176.506 234.843 177.552C235.826 178.598 236.585 179.835 237.073 181.186C237.561 182.537 237.767 183.973 237.678 185.406H216.678Z" fill="#D7E8F0"/>
<path d="M227.958 232.187C223.949 232.187 220.03 233.376 216.697 235.603C213.363 237.831 210.765 240.996 209.231 244.7C207.697 248.404 207.295 252.48 208.077 256.412C208.86 260.344 210.79 263.955 213.625 266.79C216.46 269.625 220.071 271.556 224.003 272.338C227.935 273.12 232.011 272.718 235.715 271.184C239.419 269.65 242.585 267.052 244.812 263.719C247.039 260.385 248.228 256.466 248.228 252.457C248.229 249.795 247.706 247.159 246.688 244.699C245.669 242.239 244.177 240.004 242.295 238.121C240.412 236.239 238.176 234.746 235.717 233.728C233.257 232.709 230.62 232.186 227.958 232.187ZM227.958 267.827C227.256 267.711 226.619 267.35 226.159 266.808C225.699 266.266 225.446 265.578 225.446 264.867C225.446 264.156 225.699 263.468 226.159 262.926C226.619 262.384 227.256 262.023 227.958 261.907C228.387 261.836 228.827 261.86 229.247 261.976C229.666 262.092 230.055 262.298 230.387 262.58C230.719 262.861 230.987 263.212 231.17 263.607C231.353 264.002 231.446 264.432 231.446 264.867C231.446 265.302 231.353 265.733 231.17 266.128C230.987 266.523 230.719 266.873 230.387 267.155C230.055 267.436 229.666 267.642 229.247 267.758C228.827 267.875 228.387 267.898 227.958 267.827ZM231.708 245.037C231.225 249.52 230.401 253.96 229.239 258.317C229.117 258.55 228.933 258.744 228.708 258.88C228.483 259.016 228.226 259.088 227.963 259.088C227.7 259.088 227.443 259.016 227.218 258.88C226.993 258.744 226.81 258.55 226.688 258.317C225.763 255.105 225.054 251.834 224.568 248.527C224.158 246.127 222.758 242.227 224.098 239.887C225.278 237.797 228.619 237.547 230.549 238.637C232.919 239.987 231.988 242.847 231.708 245.037Z" fill="#D7E8F0"/>
<path d="M177.038 209.437H276.048" stroke="#CCDDE2" stroke-width="4.5" stroke-miterlimit="10"/>
<path d="M177.038 219.187H276.048" stroke="#CCDDE2" stroke-width="4.5" stroke-miterlimit="10"/>
<path d="M177.038 281.937H276.048" stroke="#CCDDE2" stroke-width="4.5" stroke-miterlimit="10"/>
<path d="M200.038 291.16H253.048" stroke="#CCDDE2" stroke-width="4.5" stroke-miterlimit="10"/>
<path d="M788.709 304.769H636.939C624.303 304.769 614.059 315.013 614.059 327.649V586.859C614.059 599.496 624.303 609.739 636.939 609.739H788.709C801.345 609.739 811.589 599.496 811.589 586.859V327.649C811.589 315.013 801.345 304.769 788.709 304.769Z" fill="#3FBDF1"/>
<path d="M581.248 304.769H475.568C462.932 304.769 452.688 315.013 452.688 327.649V586.859C452.688 599.496 462.932 609.739 475.568 609.739H581.248C593.884 609.739 604.128 599.496 604.128 586.859V327.649C604.128 315.013 593.884 304.769 581.248 304.769Z" fill="#3FBDF1"/>
<path d="M461.439 764.819H810.499C816.53 764.816 822.313 762.42 826.578 758.156C830.844 753.892 833.244 748.11 833.249 742.079V308.789C833.25 305.801 832.663 302.842 831.52 300.081C830.377 297.32 828.7 294.812 826.588 292.699C824.475 290.586 821.966 288.911 819.206 287.768C816.445 286.625 813.487 286.037 810.499 286.039H573.278L511.278 286.409H511.098L479.749 287.629H479.648L471.398 287.949H470.668L470.059 292.859L468.858 301.989C468.871 302.006 468.879 302.027 468.879 302.049C468.879 302.07 468.871 302.091 468.858 302.109L459.098 316.569L457.098 319.499L451.588 354.759V354.929C451.468 354.879 451.348 354.809 451.198 354.729C451.078 354.659 450.964 354.579 450.858 354.489C449.004 353.093 447.611 351.174 446.858 348.979C445.028 344.339 444.588 338.189 444.568 333.309L443.368 360.099V360.199L441.698 395.989L441.288 405.599C442.068 404.209 443.188 402.209 444.488 399.819L440.338 426.339L439.478 445.449L437.338 493.739L437.258 495.539V496.229L436.698 507.989V508.259C436.698 508.259 435.098 542.769 435.098 542.819L434.948 546.019L433.098 559.989L427.698 599.079V742.079C427.699 746.153 428.797 750.152 430.877 753.655C432.957 757.158 435.942 760.037 439.518 761.989C446.288 765.659 453.778 765.169 461.218 764.919C463.218 764.859 465.218 764.769 467.218 764.659" fill="#3FBDF1"/>
<path d="M448.188 757.36C448.048 757.36 447.898 757.23 447.728 757.18C445.827 756.499 444.03 755.556 442.388 754.38C439.507 752.333 437.16 749.624 435.543 746.481C433.927 743.339 433.088 739.854 433.098 736.32V545.48L427.698 548.07L427.358 548.24L426.628 546.43L423.018 537.43L422.018 534.94L412.888 512.15C412.888 512.15 430.228 441.99 441.698 395.99C445.898 379.1 449.318 365.46 450.758 359.73C451.198 358.02 451.458 357.02 451.508 356.85C451.512 356.81 451.512 356.77 451.508 356.73C451.538 356.389 451.486 356.047 451.358 355.73C451.216 355.361 451.045 355.003 450.848 354.66C450.825 354.589 450.791 354.521 450.748 354.46C449.559 352.437 448.222 350.505 446.748 348.68L444.848 325.15L445.158 324.91L446.598 323.76L456.438 315.96L458.728 309.9L463.218 298.12L465.218 292.87H469.978H471.198H479.808L511.628 292.77H514.358L574.728 292.41H805.718C808.627 292.41 811.507 292.983 814.194 294.097C816.881 295.211 819.322 296.844 821.377 298.902C823.432 300.96 825.062 303.403 826.172 306.092C827.282 308.78 827.852 311.661 827.848 314.57V736.32C827.852 739.229 827.282 742.109 826.172 744.798C825.062 747.486 823.432 749.929 821.377 751.988C819.322 754.046 816.881 755.678 814.194 756.792C811.507 757.906 808.627 758.48 805.718 758.48H461.858" fill="#3FBDF1"/>
<path d="M471.298 286.629L479.478 286.579H479.648L511.048 286.409H511.268L573.268 286.039H810.498C816.531 286.041 822.316 288.439 826.582 292.705C830.848 296.971 833.245 302.756 833.248 308.789V742.079C833.243 748.11 830.844 753.892 826.578 758.156C822.313 762.42 816.529 764.816 810.498 764.819H449.828C443.951 764.819 438.314 762.484 434.159 758.328C430.003 754.172 427.668 748.536 427.668 742.659V695.349" stroke="black" stroke-width="4.5" stroke-miterlimit="10"/>
<path d="M788.708 632.136H475.568C462.932 632.136 452.688 642.38 452.688 655.016V718.626C452.688 731.263 462.932 741.506 475.568 741.506H788.708C801.344 741.506 811.588 731.263 811.588 718.626V655.016C811.588 642.38 801.344 632.136 788.708 632.136Z" fill="white"/>
<path d="M685.178 656.5H482.898C478.618 656.5 475.148 659.97 475.148 664.25V710.97C475.148 715.25 478.618 718.72 482.898 718.72H685.178C689.458 718.72 692.928 715.25 692.928 710.97V664.25C692.928 659.97 689.458 656.5 685.178 656.5Z" fill="#3FBDF1"/>
<path d="M648.888 682.708C652.445 682.708 655.328 679.825 655.328 676.268C655.328 672.711 652.445 669.828 648.888 669.828C645.331 669.828 642.448 672.711 642.448 676.268C642.448 679.825 645.331 682.708 648.888 682.708Z" fill="white"/>
<path d="M630.908 705.386C630.908 700.613 632.804 696.034 636.18 692.658C639.556 689.283 644.134 687.386 648.908 687.386C653.682 687.386 658.26 689.283 661.636 692.658C665.012 696.034 666.908 700.613 666.908 705.386H630.908Z" fill="white"/>
<path d="M747.869 656.508C741.598 656.502 735.465 658.356 730.248 661.836C725.031 665.316 720.963 670.265 718.56 676.058C716.156 681.85 715.525 688.226 716.745 694.377C717.966 700.529 720.984 706.18 725.417 710.616C729.85 715.052 735.499 718.073 741.65 719.297C747.8 720.522 754.176 719.894 759.97 717.494C765.764 715.095 770.716 711.03 774.199 705.815C777.683 700.6 779.541 694.469 779.539 688.198C779.54 684.037 778.722 679.917 777.131 676.073C775.541 672.229 773.208 668.736 770.267 665.793C767.326 662.851 763.835 660.516 759.992 658.923C756.149 657.33 752.029 656.509 747.869 656.508ZM747.869 712.238C747.242 712.267 746.616 712.168 746.028 711.949C745.441 711.729 744.904 711.392 744.45 710.959C743.996 710.526 743.635 710.005 743.388 709.428C743.141 708.851 743.014 708.23 743.014 707.603C743.014 706.975 743.141 706.354 743.388 705.777C743.635 705.2 743.996 704.68 744.45 704.246C744.904 703.813 745.441 703.476 746.028 703.257C746.616 703.037 747.242 702.938 747.869 702.968C749.061 703.023 750.186 703.535 751.01 704.399C751.834 705.262 752.294 706.409 752.294 707.603C752.294 708.796 751.834 709.943 751.01 710.806C750.186 711.67 749.061 712.182 747.869 712.238ZM753.699 676.588C752.699 683.468 751.889 690.688 749.839 697.348C749.379 698.958 746.349 698.958 745.839 697.348C744.386 692.329 743.276 687.217 742.519 682.048C741.879 678.298 739.689 672.198 741.789 668.558C743.639 665.288 748.859 664.898 751.859 666.558C755.599 668.678 754.099 673.168 753.699 676.588Z" fill="#3FBDF1"/>
<path d="M781.528 525.228C779.992 538.478 774.507 550.96 765.786 561.053C757.065 571.146 745.511 578.383 732.624 581.826C719.737 585.268 706.113 584.756 693.521 580.356C680.929 575.956 669.951 567.871 662.012 557.152C654.074 546.433 649.542 533.574 649.004 520.246C648.467 506.919 651.95 493.737 659 482.414C666.051 471.091 676.344 462.149 688.541 456.75C700.738 451.351 714.276 449.744 727.398 452.138C727.975 452.249 728.523 452.478 729.008 452.809C729.494 453.14 729.907 453.567 730.221 454.063C730.535 454.56 730.744 455.116 730.835 455.696C730.925 456.277 730.896 456.87 730.749 457.438L729.439 462.548L717.698 508.388C717.511 509.119 717.52 509.887 717.723 510.613C717.926 511.34 718.317 512.001 718.856 512.529C719.395 513.056 720.063 513.433 720.794 513.621C721.525 513.809 722.291 513.801 723.018 513.598L768.588 500.858L774.818 499.118C775.373 498.962 775.954 498.919 776.526 498.992C777.097 499.065 777.65 499.252 778.148 499.542C778.646 499.832 779.081 500.219 779.426 500.681C779.772 501.142 780.02 501.669 780.158 502.228C781.952 509.757 782.416 517.541 781.528 525.228Z" fill="white"/>
<path d="M783.099 477.988C783.315 478.546 783.41 479.144 783.38 479.743C783.35 480.341 783.195 480.926 782.924 481.461C782.654 481.995 782.274 482.467 781.81 482.845C781.346 483.224 780.807 483.5 780.229 483.658L775.939 484.858L738.829 495.228C738.102 495.43 737.335 495.438 736.604 495.25C735.873 495.062 735.205 494.686 734.666 494.158C734.127 493.63 733.736 492.969 733.533 492.243C733.33 491.516 733.321 490.749 733.508 490.018L743.099 452.698L744.019 449.118C744.164 448.549 744.424 448.015 744.784 447.551C745.143 447.087 745.595 446.703 746.11 446.421C746.626 446.14 747.193 445.967 747.778 445.915C748.363 445.863 748.951 445.932 749.508 446.118C757.058 448.723 763.963 452.916 769.757 458.413C775.551 463.911 780.1 470.585 783.099 477.988Z" fill="white"/>
<path d="M714.539 364.407C724.635 364.407 732.819 356.223 732.819 346.127C732.819 336.032 724.635 327.847 714.539 327.847C704.443 327.847 696.259 336.032 696.259 346.127C696.259 356.223 704.443 364.407 714.539 364.407Z" fill="#D7E8F0"/>
<path d="M781.968 386.527H648.898V390.187H781.968V386.527Z" fill="#D7E8F0"/>
<path d="M781.968 400.066H648.898V403.726H781.968V400.066Z" fill="#D7E8F0"/>
<path d="M781.968 412.41H648.898V416.07H781.968V412.41Z" fill="#D7E8F0"/>
<path d="M580.828 462.988H476.589V466.648H580.828V462.988Z" fill="#D7E8F0"/>
<path d="M580.828 477.758H476.589V481.418H580.828V477.758Z" fill="#D7E8F0"/>
<path d="M580.828 492.519H476.589V496.179H580.828V492.519Z" fill="#D7E8F0"/>
<path d="M580.828 507.289H476.589V510.949H580.828V507.289Z" fill="#D7E8F0"/>
<path d="M580.828 522.058H476.589V525.718H580.828V522.058Z" fill="#D7E8F0"/>
<path d="M462.288 358.99C462.288 358.99 493.968 408.88 530.068 424.56C566.168 440.24 577.448 447.17 591.258 441.56C605.068 435.95 631.578 428.09 650.258 372.56C668.938 317.03 677.838 287.8 678.498 274.35C679.158 260.9 642.018 271.95 642.018 271.95C642.018 271.95 622.018 330.9 578.198 357.21L515.788 291.29L462.288 358.99Z" fill="white"/>
<path d="M425.268 435.66L450.768 442.58C450.768 442.58 421.158 483.41 447.488 526.16C473.818 568.91 528.038 655.16 528.038 655.16L631.818 820.16L534.758 806.63L462.288 727.25L425.288 690.36L378.918 545.61L425.268 435.66Z" fill="white"/>
<path d="M8.90858 646.66C11.2014 647.9 13.8554 648.3 16.4118 647.79C18.9682 647.281 21.2665 645.894 22.9085 643.87L60.6485 597.6L91.0985 559.38L66.1685 545.38C63.5865 543.921 60.5305 543.548 57.6735 544.341C54.8155 545.134 52.3895 547.029 50.9285 549.61L4.46859 631.21C3.72849 632.512 3.25599 633.948 3.07889 635.435C2.90179 636.922 3.02358 638.43 3.43718 639.869C3.85078 641.308 4.54789 642.651 5.48749 643.817C6.42709 644.983 7.59018 645.949 8.90858 646.66Z" fill="#2E2E2E"/>
<path d="M583.369 864.91L614.779 895.81C617.49 898.483 621.141 899.984 624.948 899.99H703.499C705.936 900 708.321 899.3 710.367 897.977C712.413 896.653 714.029 894.762 715.018 892.535C716.007 890.309 716.328 887.842 715.939 885.437C715.55 883.032 714.469 880.791 712.828 878.99C710.763 876.68 707.91 875.225 704.828 874.91L661.258 870.44L583.369 864.91Z" fill="#2E2E2E"/>
<path d="M296.529 478.426C296.529 478.426 357.279 495.326 397.779 500.366C438.279 505.406 435.439 488.606 435.439 488.606L440.389 467.386C453.389 446.206 460.939 401.146 460.939 401.146L466.159 365.896L473.779 379.306L498.409 404.116L498.709 404.356C497.959 392.506 498.529 375.856 501.289 353.176C507.649 300.676 528.709 306.766 528.709 306.766L525.619 303.376C511.069 279.166 464.619 253.576 449.779 247.456C434.939 241.336 441.289 250.006 443.179 256.456C445.069 262.906 439.669 281.056 418.039 271.816C396.409 262.576 395.319 242.476 395.319 242.476H385.269C323.619 249.886 292.269 282.766 292.269 282.766C357.759 298.216 342.729 353.766 342.729 353.766L336.789 359.196C313.539 379.356 311.919 398.796 313.929 406.896C315.939 414.996 330.279 425.896 356.169 432.216C382.059 438.536 386.769 438.546 392.619 427.356C398.469 416.166 405.289 414.786 414.619 413.106C423.949 411.426 435.379 418.056 432.769 423.276C430.159 428.496 428.269 423.936 434.769 438.036C441.269 452.136 438.249 459.306 420.769 472.296C403.289 485.286 325.569 477.996 325.569 477.996C288.399 467.716 296.529 478.426 296.529 478.426Z" fill="#2E2E2E"/>
<path d="M438.619 242.809V244.939V245.479C455.995 249.821 472.359 257.504 486.799 268.099C489.139 269.809 491.419 271.549 493.669 273.379C493.729 266.029 493.099 258.649 490.729 251.689C488.809 245.716 485.191 240.432 480.318 236.479C476.028 233.059 470.959 230.869 465.859 228.889C460.759 226.909 455.748 225.169 451.068 222.499C447.124 220.342 443.679 217.377 440.958 213.799C440.004 212.505 439.41 210.982 439.234 209.384C439.059 207.786 439.308 206.17 439.958 204.699C439.498 204.667 439.046 204.577 438.609 204.429L438.619 242.809Z" fill="#3FBDF1"/>
<path d="M438.619 242.809V244.939V245.479C455.995 249.821 472.359 257.504 486.799 268.099C489.139 269.809 491.419 271.549 493.669 273.379C493.729 266.029 493.099 258.649 490.729 251.689C488.809 245.716 485.191 240.432 480.318 236.479C476.028 233.059 470.959 230.869 465.859 228.889C460.759 226.909 455.748 225.169 451.068 222.499C447.124 220.342 443.679 217.377 440.958 213.799C440.004 212.505 439.41 210.982 439.234 209.384C439.059 207.786 439.308 206.17 439.958 204.699C439.498 204.667 439.046 204.577 438.609 204.429L438.619 242.809Z" fill="#3FBDF1"/>
<path d="M198.548 408.83C205.077 413.502 212.335 417.06 220.028 419.36C223.337 420.38 226.699 421.221 230.098 421.88C216.668 390.23 226.718 348.59 269.098 304.19C276.354 296.575 284.08 289.421 292.228 282.77C305.398 272.06 317.098 264.08 330.898 257.66C337.076 254.809 343.421 252.335 349.898 250.25C361.383 246.427 373.238 243.822 385.268 242.48C387.998 242.15 390.698 241.91 393.428 241.76C392.762 237.071 392.894 232.304 393.818 227.66C396.338 214.91 400.728 207.58 408.708 197.53C413.708 191.2 421.518 176.08 411.108 170.86C404.538 167.59 403.938 160.86 407.028 156.86C409.638 153.38 414.918 151.79 421.428 155.86C425.928 158.74 431.268 158.92 436.428 157.51C440.436 155.175 443.91 152.028 446.628 148.27C454.188 137.44 454.458 121.03 442.628 113.08C436.178 108.73 427.958 107.68 420.248 108.52C416.796 108.899 413.393 109.643 410.098 110.74C410.084 110.733 410.068 110.73 410.053 110.73C410.037 110.73 410.022 110.733 410.008 110.74C396.008 118.27 386.058 132.19 381.258 147.88C378.438 157.15 375.258 166.33 371.538 175.33C368.478 182.71 366.348 191.68 359.538 196.72C356.692 198.825 353.461 200.354 350.028 201.22C337.158 209.38 319.308 204.67 305.238 202.93C293.989 201.392 282.536 202.543 271.818 206.29C259.818 212.36 249.498 222.05 241.128 234.65C227.298 255.5 241.938 285.56 218.808 302C211.808 306.95 203.808 309.95 196.158 313.79C185.238 319.34 176.418 327.23 173.158 339.38C166.718 363.89 178.178 394.04 198.548 408.83Z" fill="#3FBDF1"/>
<path d="M764.099 899.988H216.859" stroke="black" stroke-width="4.5" stroke-miterlimit="10"/>
<path d="M458.688 138.397C460.094 141.311 461.296 144.318 462.288 147.397C463.728 152.397 462.168 155.497 464.358 160.267C465.108 161.917 466.188 164.707 467.358 167.527C467.688 166.867 467.988 166.327 468.168 165.907C476.748 146.797 465.468 137.587 460.038 134.437C459.692 135.791 459.241 137.115 458.688 138.397Z" fill="#3FBDF1"/>
<path d="M458.688 138.397C460.094 141.311 461.296 144.318 462.288 147.397C463.728 152.397 462.168 155.497 464.358 160.267C465.108 161.917 466.188 164.707 467.358 167.527C467.688 166.867 467.988 166.327 468.168 165.907C476.748 146.797 465.468 137.587 460.038 134.437C459.692 135.791 459.241 137.115 458.688 138.397Z" fill="#3FBDF1"/>
<path d="M268.568 460.789C263.328 502.109 267.568 573.789 352.188 628.629C367.418 638.499 381.128 652.439 394.558 664.489C431.187 697.59 466.033 732.612 498.948 769.409C519.098 791.749 539.668 815.229 560.098 837.849C570.571 849.409 581.158 860.862 591.858 872.209C599.738 880.519 612.238 899.979 624.908 899.979H702.768C709.768 899.979 716.128 894.249 716.028 887.219C715.971 884.181 714.821 881.266 712.788 879.009C710.723 876.699 707.87 875.244 704.788 874.929L661.218 870.459L450.708 535.679C439.848 518.399 430.218 489.959 438.618 471.329C470.618 400.469 467.868 331.789 467.868 331.789" stroke="black" stroke-width="4.5" stroke-miterlimit="10"/>
<path d="M377.558 650.168C368.378 682.418 353.558 715.168 341.318 735.788C336.883 743.316 331.036 749.917 324.098 755.228C299.018 774.438 263.569 772.388 239.519 751.918L119.908 650.108L60.6585 597.598L22.9185 643.868C21.1345 646.039 18.6005 647.462 15.818 647.856C13.0356 648.25 10.2065 647.587 7.88929 645.997C5.57209 644.407 3.93519 642.005 3.30189 639.268C2.66859 636.53 3.08489 633.654 4.46849 631.208L50.9385 549.628C52.3995 547.047 54.8255 545.152 57.6835 544.359C60.5405 543.566 63.5965 543.939 66.1785 545.398L91.1085 559.398L233.949 639.398C236.325 640.727 238.983 641.474 241.704 641.576C244.426 641.678 247.132 641.133 249.601 639.984C252.07 638.836 254.232 637.118 255.907 634.972C257.583 632.825 258.724 630.312 259.238 627.638L276.158 538.918" stroke="black" stroke-width="4.5" stroke-miterlimit="10"/>
<path d="M438.618 198.487V242.487V244.617V245.157C443.148 251.757 445.428 261.157 441.108 268.157C435.318 277.547 422.538 275.987 414.438 270.737C412.054 269.195 409.778 267.491 407.628 265.637C400.418 259.373 395.751 250.686 394.508 241.217C393.842 236.528 393.974 231.761 394.898 227.117C397.438 214.377 401.818 207.057 409.808 196.977C414.808 190.677 422.608 175.537 412.188 170.317C399.978 164.227 408.438 146.407 422.508 155.317C433.428 162.247 449.118 153.607 455.598 144.317C463.158 133.487 463.428 117.077 451.598 109.127C445.148 104.777 436.928 103.727 429.218 104.567C405.728 107.147 389.008 125.507 382.318 147.347C379.498 156.617 376.318 165.797 372.598 174.797C369.538 182.177 367.408 191.147 360.598 196.187C347.598 205.877 328.858 200.807 314.188 199.007C283.648 195.257 259.018 208.787 242.188 234.117C228.358 254.967 242.998 285.027 219.868 301.467C212.868 306.417 204.868 309.417 197.218 313.257C186.298 318.807 177.478 326.697 174.268 338.847C167.788 363.327 179.268 393.477 199.618 408.267C208.948 415.047 219.868 419.097 231.208 421.317" stroke="black" stroke-width="4.5" stroke-miterlimit="10"/>
<path d="M498.908 279.078C498.968 278.518 498.988 277.978 499.018 277.448C499.528 267.778 499.468 257.758 496.318 248.448C494.385 242.482 490.766 237.202 485.898 233.248C481.598 229.838 476.528 227.628 471.448 225.648C466.368 223.668 461.328 221.948 456.658 219.268C452.705 217.12 449.257 214.15 446.548 210.558C445.599 209.268 445.006 207.75 444.831 206.157C444.655 204.565 444.903 202.954 445.548 201.488" stroke="black" stroke-width="4.5" stroke-miterlimit="10"/>
<path d="M429.148 188.567C432.688 193.627 437.488 199.087 443.538 201.057C451.368 203.607 456.638 196.957 459.448 190.487C461.128 186.637 462.288 182.537 463.648 178.557C464.088 177.247 464.358 176.617 465.858 176.557C467.358 176.497 468.938 176.797 470.478 176.797C470.588 176.794 470.695 176.762 470.788 176.705C470.881 176.648 470.958 176.567 471.01 176.47C471.061 176.373 471.087 176.265 471.083 176.155C471.079 176.046 471.046 175.939 470.988 175.847C468.918 172.697 465.828 164.107 464.268 160.667C462.098 155.897 463.668 152.807 462.208 147.797C461.214 144.721 460.019 141.714 458.628 138.797" stroke="black" stroke-width="4.5" stroke-miterlimit="10"/>
<path d="M460.938 129.547C460.938 129.547 482.288 137.737 471.258 162.347C470.578 163.837 468.908 166.947 468.118 168.347" stroke="black" stroke-width="4.5" stroke-miterlimit="10"/>
<path d="M691.229 59.3793C691.229 59.3793 691.349 59.4393 691.589 59.5293L691.229 59.3793Z" fill="#3FBDF1"/>
<path d="M459.758 189.777C458.049 190.012 456.313 189.615 454.875 188.662C453.437 187.708 452.397 186.263 451.948 184.597" stroke="black" stroke-width="4.5" stroke-miterlimit="10"/>
<path d="M463.368 156.819C458.948 153.219 454.098 157.819 451.138 161.159" stroke="black" stroke-width="4.5" stroke-miterlimit="10"/>
<path d="M394.539 241.226C379.715 242.165 365.074 245.011 350.979 249.696C327.979 257.236 312.139 266.966 293.349 282.216C285.202 288.88 277.477 296.044 270.219 303.666C227.799 348.066 217.769 389.726 231.219 421.366C242.149 447.146 267.349 463.136 293.169 471.286C310.059 476.606 327.659 478.896 345.319 479.406C366.369 480.006 387.599 479.206 408.319 475.206C417.049 473.526 427.108 472.146 432.318 464.036C437.528 455.926 437.969 444.986 434.099 436.296C430.469 428.206 420.669 419.506 411.809 425.856C410.827 426.565 410.019 427.488 409.445 428.555C408.872 429.623 408.548 430.806 408.499 432.016" stroke="black" stroke-width="4.5" stroke-miterlimit="10"/>
<path d="M378.529 294.726C379.629 327.886 351.529 346.376 351.529 346.376C342.209 353.926 333.149 362.036 325.529 371.326C320.659 377.256 316.139 383.896 313.899 391.326C312.224 396.393 312.253 401.867 313.979 406.916C315.888 411.585 319.043 415.639 323.099 418.636C330.679 424.566 339.899 427.636 349.039 430.296C359.11 433.178 369.368 435.363 379.739 436.836C385.739 437.696 388.269 435.836 391.009 430.646C393.489 425.946 395.519 420.506 400.109 417.436C406.469 413.166 415.009 412.176 422.369 413.936C433.719 416.636 436.619 425.636 427.369 427.456" stroke="black" stroke-width="4.5" stroke-miterlimit="10"/>
<path d="M371.599 519.697L199.149 478.027L158.109 647.867L325.779 689.547L331.159 687.077L371.599 519.697Z" fill="white"/>
<path d="M292.029 495.819C300.209 438.559 317.939 424.399 329.479 421.569L328.719 421.149C293.879 407.589 269.719 474.679 264.589 490.369L292.029 495.819Z" fill="#D7E8F0"/>
<path d="M291.548 500.357C299.728 443.097 317.938 424.357 329.478 421.567L328.718 421.147C293.878 407.587 268.718 477.907 263.568 493.587L291.548 500.357Z" fill="#D7E8F0"/>
<path d="M328.718 421.147C289.318 405.827 263.568 493.587 263.568 493.587L291.568 500.357C307.838 412.357 342.748 428.357 342.748 428.357C341.518 427.987 328.718 421.147 328.718 421.147Z" stroke="black" stroke-width="4.5" stroke-miterlimit="10"/>
<path d="M197.227 486.122L158.115 647.922L294.165 680.811L333.278 519.011L197.227 486.122Z" fill="#3FBDF1"/>
<path d="M199.303 477.557L158.117 647.929L301.37 682.56L342.557 512.187L199.303 477.557Z" fill="white"/>
<path d="M199.978 490.515L164.506 637.248C163.501 641.408 166.058 645.596 170.218 646.602L291.204 675.849C295.364 676.855 299.552 674.297 300.558 670.137L336.029 523.404C337.035 519.243 334.477 515.055 330.317 514.05L209.332 484.803C205.172 483.797 200.984 486.354 199.978 490.515Z" fill="#3FBDF1"/>
<path d="M199.177 478.088L158.12 647.926L301.374 682.556L342.43 512.718L199.177 478.088Z" stroke="black" stroke-width="4.5" stroke-miterlimit="10"/>
<path d="M343.031 512.853L301.974 682.691L330.571 689.604L371.627 519.766L343.031 512.853Z" fill="white"/>
<path d="M343.031 512.853L301.974 682.691L330.571 689.604L371.627 519.766L343.031 512.853Z" stroke="black" stroke-width="4.5" stroke-miterlimit="10"/>
<path d="M330.559 689.549L321.349 665.859L301.958 682.639" stroke="black" stroke-width="4.5" stroke-miterlimit="10"/>
<path d="M357.309 516.25L321.349 665.86" stroke="black" stroke-width="4.5" stroke-miterlimit="10"/>
<path d="M672.768 240.738C672.228 240.828 671.769 240.918 671.179 241.038C665.769 241.982 660.641 244.136 656.179 247.338C651.289 251.118 646.849 257.688 644.689 263.338C641.422 271.918 637.832 280.358 633.919 288.658C628.011 301.453 620.983 313.7 612.919 325.258C604.549 337.018 594.499 348.938 581.839 356.258C580.25 357.218 578.576 358.032 576.839 358.688C574.709 359.588 544.739 325.108 541.439 321.268C528.209 305.878 514.528 290.638 499.018 277.468C495.088 274.108 491.019 270.868 486.839 267.838C472.389 257.234 456.015 249.541 438.629 245.188" stroke="black" stroke-width="4.5" stroke-miterlimit="10"/>
<path d="M726.688 239.476C726.747 239.491 726.809 239.491 726.868 239.476C740.728 241.096 735.298 256.036 725.548 255.556C714.778 255.016 704.038 255.556 693.298 255.736C690.337 255.639 687.39 256.181 684.658 257.326C679.258 259.906 678.748 265.666 677.938 270.886C676.858 277.726 675.628 284.566 674.178 291.346C671.358 304.786 667.878 318.046 663.888 331.186C661.308 339.706 658.458 348.186 655.458 356.576C646.698 381.296 635.658 407.516 617.088 426.576C606.828 437.136 593.388 444.936 578.238 443.796C556.908 442.206 536.388 431.496 518.298 419.316C518.222 419.264 518.151 419.204 518.088 419.136C511.336 414.591 504.864 409.642 498.708 404.316C498.708 404.316 473.778 382.116 466.158 365.856" stroke="black" stroke-width="4.5" stroke-miterlimit="10"/>
<path d="M766.098 226.04V227.44C766.098 237.1 758.318 238.76 751.598 238.92L621.528 241.92C615.828 242.07 611.038 237.08 610.918 230.85V230.59C610.918 224.48 615.398 219.4 621.028 219.26C621.028 219.26 693.788 217.21 750.138 215.66C751.208 219.07 753.828 221.71 757.078 223.77C759.794 225.403 762.933 226.193 766.098 226.04Z" stroke="black" stroke-width="4.5" stroke-miterlimit="10"/>
<path d="M835.198 88.4073C835.197 89.9993 834.82 91.5683 834.098 92.9873L775.968 212.237C775.285 213.615 774.312 214.829 773.116 215.795C771.92 216.762 770.529 217.458 769.038 217.837C766.636 218.445 764.096 218.182 761.868 217.097C760.087 216.221 758.588 214.864 757.54 213.18C756.491 211.495 755.937 209.551 755.938 207.567C755.947 205.98 756.309 204.416 756.998 202.987L815.158 83.7273C816.215 81.5973 817.96 79.8873 820.111 78.8733C822.262 77.8603 824.692 77.6033 827.007 78.1433C829.322 78.6843 831.387 79.9913 832.866 81.8523C834.346 83.7133 835.153 86.0193 835.158 88.3973L835.198 88.4073Z" stroke="black" stroke-width="4.5" stroke-miterlimit="10"/>
<path d="M677.018 63.8803C694.658 63.8803 708.958 49.58 708.958 31.94C708.958 14.3 694.658 0 677.018 0C659.378 0 645.078 14.3 645.078 31.94C645.078 49.58 659.378 63.8803 677.018 63.8803Z" fill="#3FBDF1"/>
<path d="M666.869 42.9292C665.81 42.5328 664.819 41.9763 663.929 41.2792C662.362 40.0972 661.284 38.3804 660.9 36.4553C660.517 34.5303 660.854 32.5315 661.849 30.8392C662.497 29.7402 663.392 28.8069 664.463 28.1128C665.534 27.4186 666.751 26.9826 668.019 26.8392C667.316 25.1879 667.17 23.3527 667.603 21.6111C668.036 19.8695 669.024 18.3163 670.418 17.1864C671.813 16.0565 673.537 15.4115 675.331 15.3488C677.124 15.2862 678.889 15.8093 680.359 16.8392C683.449 18.9892 685.589 22.7792 686.899 26.2392C687.575 28.0561 688.071 29.9351 688.379 31.8492C688.529 32.8492 689.549 38.3492 688.749 38.9092C683.469 42.5692 673.639 45.5092 666.869 42.9292Z" fill="white"/>
<g opacity="0.72">
<path opacity="0.72" d="M650.068 130.507C659.777 130.507 667.648 122.637 667.648 112.927C667.648 103.218 659.777 95.3473 650.068 95.3473C640.359 95.3473 632.489 103.218 632.489 112.927C632.489 122.637 640.359 130.507 650.068 130.507Z" fill="#3FBDF1"/>
<path opacity="0.72" d="M653.548 120.387C653.124 120.847 652.632 121.238 652.088 121.547C651.156 122.091 650.058 122.277 649 122.069C647.941 121.861 646.995 121.274 646.338 120.417C645.908 119.856 645.614 119.203 645.481 118.508C645.347 117.814 645.377 117.098 645.568 116.417C644.584 116.423 643.624 116.11 642.833 115.525C642.042 114.939 641.462 114.113 641.18 113.17C640.898 112.226 640.93 111.217 641.271 110.294C641.611 109.37 642.242 108.582 643.068 108.047C644.944 107.009 647.08 106.537 649.218 106.687C650.287 106.717 651.349 106.858 652.388 107.107C652.918 107.227 655.938 107.867 656.058 108.387C656.828 111.857 656.278 117.487 653.548 120.387Z" fill="white"/>
</g>
<path d="M749.038 74.5603L731.786 83.7573C725.528 87.0923 723.16 94.8703 726.495 101.127L735.692 118.379C739.027 124.637 746.804 127.006 753.062 123.67L770.314 114.474C776.572 111.138 778.941 103.361 775.605 97.1033L766.409 79.8513C763.073 73.5943 755.296 71.2253 749.038 74.5603Z" fill="#3FBDF1"/>
<path d="M755.949 118.768L768.439 112.108C771.043 110.71 772.989 108.339 773.85 105.512C774.712 102.684 774.421 99.6313 773.039 97.0183L765.039 82.0183C763.643 79.4123 761.272 77.4653 758.444 76.6033C755.616 75.7413 752.561 76.0343 749.949 77.4183L749.109 77.8683C745.989 82.1983 741.839 89.6083 748.109 91.9383C757.109 95.3083 754.479 100.358 751.109 106.828C748.249 112.258 747.519 118.608 755.949 118.768Z" fill="white"/>
<path d="M736.499 100.608C739.106 100.608 741.219 98.4943 741.219 95.8883C741.219 93.2813 739.106 91.1683 736.499 91.1683C733.892 91.1683 731.779 93.2813 731.779 95.8883C731.779 98.4943 733.892 100.608 736.499 100.608Z" fill="white"/>
<path d="M678.359 179.387C680.108 180.237 681.97 180.83 683.889 181.147C687.412 181.687 691.014 181.304 694.344 180.035C697.675 178.766 700.619 176.655 702.889 173.907C704.639 171.727 705.949 168.997 707.789 166.797C709.047 165.192 710.731 163.973 712.649 163.277C713.307 163.137 713.921 162.838 714.439 162.407C715.699 161.107 713.559 160.007 713.129 158.957C712.484 157.263 712.484 155.391 713.129 153.697C714.771 149.244 714.817 144.359 713.26 139.875C711.702 135.391 708.638 131.586 704.59 129.109C700.541 126.631 695.758 125.635 691.057 126.289C686.356 126.944 682.027 129.209 678.809 132.697C675.629 136.127 673.719 140.507 671.739 144.697C669.979 148.427 668.109 152.137 667.139 156.147C664.889 165.647 669.969 175.297 678.359 179.387Z" fill="#3FBDF1"/>
<path d="M696.219 145.638C698.677 145.638 700.669 143.646 700.669 141.188C700.669 138.73 698.677 136.738 696.219 136.738C693.761 136.738 691.769 138.73 691.769 141.188C691.769 143.646 693.761 145.638 696.219 145.638Z" fill="white"/>
<path d="M690.388 157.919C692.846 157.919 694.838 155.927 694.838 153.469C694.838 151.012 692.846 149.019 690.388 149.019C687.93 149.019 685.938 151.012 685.938 153.469C685.938 155.927 687.93 157.919 690.388 157.919Z" fill="white"/>
<path d="M684.919 169.439C687.377 169.439 689.369 167.446 689.369 164.989C689.369 162.531 687.377 160.539 684.919 160.539C682.461 160.539 680.469 162.531 680.469 164.989C680.469 167.446 682.461 169.439 684.919 169.439Z" fill="white"/>
<g opacity="0.54">
<path opacity="0.54" d="M578.099 197.517C579.451 197.338 580.788 197.061 582.099 196.687L597.159 192.447C601.769 191.147 606.619 189.707 609.889 186.197C615.949 179.687 613.989 169.347 611.639 160.767C609.726 153.747 607.809 146.727 605.889 139.707C604.569 134.867 603.209 129.947 600.579 125.707C597.949 121.467 593.789 117.827 588.829 117.047C585.179 116.477 581.479 117.457 577.909 118.427L563.459 122.427C558.719 123.717 553.719 125.167 550.399 128.797C544.499 135.247 546.399 145.367 548.659 153.797L554.429 175.347C557.969 188.297 564.599 199.217 578.099 197.517Z" fill="#3FBDF1"/>
<path opacity="0.54" d="M577.099 168.128C577.991 168.999 579.097 169.619 580.305 169.927C581.513 170.235 582.78 170.219 583.981 169.882C585.181 169.544 586.271 168.897 587.141 168.004C588.011 167.112 588.632 166.006 588.939 164.798L590.619 158.218L592.289 151.628C592.596 150.42 592.579 149.152 592.24 147.953C591.902 146.753 591.254 145.664 590.361 144.795C589.468 143.925 588.362 143.306 587.154 142.999C585.946 142.693 584.678 142.709 583.479 143.048L576.949 144.888L570.409 146.728C569.211 147.069 568.125 147.72 567.258 148.614C566.391 149.508 565.775 150.615 565.471 151.823C565.167 153.03 565.186 154.297 565.526 155.495C565.867 156.693 566.516 157.78 567.409 158.648L572.279 163.388L577.099 168.128Z" fill="white"/>
</g>
</svg>
