<svg width="1000" height="1000" viewBox="0 0 1000 1000" fill="none" xmlns="http://www.w3.org/2000/svg">
<path d="M751.9 243.669C747.74 232.129 743.11 220.669 738.04 209.529C727.94 187.359 725.62 166.349 711.43 147.809" stroke="#CCDDE2" stroke-width="7.24" stroke-miterlimit="10"/>
<path d="M678.54 126.559C666.33 114.139 654.91 100.789 634.16 90.8188C590.31 69.8188 534.24 67.6888 462.67 97.3888" stroke="#CCDDE2" stroke-width="7.24" stroke-miterlimit="10"/>
<path d="M161.78 940.479C92.43 842.449 70 731.62 81.59 618.27" stroke="#CCDDE2" stroke-width="7.24" stroke-miterlimit="10"/>
<path d="M790.92 457.891V459.101C790.24 481.101 810.57 572.301 868.23 601.271C925.89 630.241 967 757.401 837 807.291C707 857.181 714.08 940.481 714.08 940.481" stroke="#CCDDE2" stroke-width="7.24" stroke-miterlimit="10"/>
<path d="M462.66 191.549V83.8089C462.642 76.4071 459.693 69.3137 454.459 64.0798C449.225 58.8459 442.132 55.8974 434.73 55.8789H77.93C70.5282 55.8974 63.4348 58.8459 58.2009 64.0798C52.967 69.3137 50.0185 76.4071 50 83.8089V590.409C50.0132 597.807 52.962 604.897 58.1988 610.123C63.4355 615.348 70.5321 618.282 77.93 618.279H434.73C438.191 618.301 441.623 617.641 444.83 616.339" stroke="black" stroke-width="7.24" stroke-linecap="round" stroke-linejoin="round"/>
<path d="M425.18 72.9492H87.48C73.7005 72.9492 62.53 84.1197 62.53 97.8992V576.309C62.53 590.089 73.7005 601.259 87.48 601.259H425.18C438.96 601.259 450.13 590.089 450.13 576.309V97.8992C450.13 84.1197 438.96 72.9492 425.18 72.9492Z" fill="#3FBDF1"/>
<path d="M419.07 113.828H97.8301C90.9376 113.828 85.3501 119.416 85.3501 126.308V200.268C85.3501 207.161 90.9376 212.748 97.8301 212.748H419.07C425.963 212.748 431.55 207.161 431.55 200.268V126.308C431.55 119.416 425.963 113.828 419.07 113.828Z" fill="#3FBDF1"/>
<path d="M256.33 155.491C261.98 155.491 266.56 150.911 266.56 145.261C266.56 139.611 261.98 135.031 256.33 135.031C250.68 135.031 246.1 139.611 246.1 145.261C246.1 150.911 250.68 155.491 256.33 155.491Z" fill="#D7E8F0"/>
<path d="M227.74 191.551C227.74 183.968 230.752 176.696 236.114 171.335C241.475 165.973 248.747 162.961 256.33 162.961C263.913 162.961 271.184 165.973 276.546 171.335C281.908 176.696 284.92 183.968 284.92 191.551H227.74Z" fill="#D7E8F0"/>
<path d="M258.41 318.738C247.504 318.732 236.841 321.961 227.77 328.017C218.699 334.072 211.629 342.682 207.452 352.757C203.276 362.832 202.182 373.919 204.308 384.616C206.434 395.313 211.685 405.139 219.397 412.851C227.109 420.563 236.935 425.814 247.632 427.94C258.329 430.067 269.416 428.972 279.491 424.796C289.566 420.62 298.176 413.549 304.231 404.478C310.287 395.407 313.516 384.745 313.51 373.838C313.502 359.227 307.694 345.217 297.363 334.886C287.031 324.554 273.021 318.746 258.41 318.738ZM258.41 415.648C256.276 415.648 254.23 414.801 252.721 413.292C251.213 411.783 250.365 409.737 250.365 407.603C250.365 405.47 251.213 403.423 252.721 401.915C254.23 400.406 256.276 399.558 258.41 399.558C260.544 399.558 262.59 400.406 264.099 401.915C265.607 403.423 266.455 405.47 266.455 407.603C266.455 409.737 265.607 411.783 264.099 413.292C262.59 414.801 260.544 415.648 258.41 415.648ZM268.62 353.648C266.89 365.588 265.43 378.178 261.92 389.788C261.06 392.548 255.82 392.548 254.92 389.788C252.404 381.05 250.474 372.153 249.14 363.158C248.06 356.618 244.23 346.038 247.9 339.658C251.09 333.988 260.16 333.288 265.4 336.258C271.91 339.998 269.37 347.748 268.62 353.688V353.648Z" fill="#D7E8F0"/>
<path d="M119.97 256.91H389.16" stroke="white" stroke-width="7.24" stroke-miterlimit="10"/>
<path d="M119.97 283.398H389.16" stroke="white" stroke-width="7.24" stroke-miterlimit="10"/>
<path d="M119.97 454.031H389.16" stroke="white" stroke-width="7.24" stroke-miterlimit="10"/>
<path d="M182.5 479.09H326.63" stroke="white" stroke-width="7.24" stroke-miterlimit="10"/>
<path d="M148.57 643.199C148.57 643.199 196.47 452.859 345.66 406.369L406.3 391.899C406.3 391.899 415.89 349.069 412.36 344.569C408.83 340.069 401.58 330.849 388.3 332.849C375.02 334.849 340.69 335.489 331.9 293.519C323.11 251.549 355.59 151.789 440 136.869C524.41 121.949 526.38 183.929 526.38 183.929L464.38 327.599L474 443.499L475.21 616.149L148.57 643.199Z" fill="white"/>
<path d="M664.12 496.163C663.12 496.453 650.36 500.163 645.34 509.003C644.384 506.979 642.872 505.269 640.981 504.072C639.09 502.875 636.898 502.241 634.66 502.242H484.81C482.144 502.238 479.555 503.139 477.468 504.797C475.38 506.456 473.918 508.774 473.32 511.372L443.81 637.903C441.81 637.513 439.81 637.273 437.73 637.073L368.09 619.693C365.103 618.943 361.943 619.334 359.229 620.79C356.514 622.245 354.44 624.66 353.41 627.562C352.946 628.865 352.716 630.24 352.73 631.622C352.73 634.763 353.921 637.787 356.062 640.085C358.204 642.382 361.137 643.782 364.27 644.003L397.2 646.122C365.48 661.052 326.89 689.492 294.68 715.622C263.34 666.552 292.75 617.493 314.87 591.073C312.02 561.953 297.58 494.342 225.53 496.182C250.35 464.352 281.3 437.073 319.65 418.812C451.01 564.413 601.29 445.372 604.48 442.812C626.953 457.472 647.064 475.469 664.12 496.182" fill="#2E2E2E"/>
<path d="M650.47 913.841V939.001H216.66V903.361C233.56 904.361 251.34 900.361 267.51 893.071C287.98 883.751 305.66 869.271 320.78 852.751C336.33 835.651 344.87 811.941 354.78 791.321C369.66 760.271 389.37 738.151 420.65 728.781L418.65 737.381C418.249 739.112 418.243 740.912 418.633 742.646C419.023 744.379 419.799 746.003 420.903 747.395C422.007 748.788 423.411 749.913 425.01 750.688C426.61 751.463 428.363 751.868 430.14 751.871H580.74C577.74 777.871 565.09 919.871 650.47 913.871" fill="#2E2E2E"/>
<path d="M580.81 252.13C580.689 265.583 578.936 278.97 575.59 292C574.064 298.178 570.787 303.783 566.154 308.145C561.521 312.507 555.728 315.439 549.47 316.59C549.22 307.51 545.36 299.54 539.47 294.59C540.008 286.903 539.931 279.185 539.24 271.51C538.85 266.44 538.24 261.71 537.6 257.46C537.219 255.041 536.668 252.652 535.95 250.31C533.94 248.151 531.572 246.354 528.95 245C519.68 239.78 500.6 234.23 465.25 242.39C459.478 243.712 454.048 246.229 449.31 249.78C449.205 249.846 449.111 249.926 449.03 250.02C445.84 252.96 441.78 256.68 437.58 258.61C433.23 260.61 428.69 260.69 424.88 255.96C424.78 255.86 424.73 255.77 424.64 255.67C422.64 253.06 420.73 249.67 417.2 249C409.76 247.6 406.14 255 405.2 261.22C404.38 266.97 406.07 272.04 408.54 276.87C410.609 280.797 413.312 284.355 416.54 287.4C417.369 288.202 418.128 289.071 418.81 290C418.5 290.055 418.195 290.139 417.9 290.25C417.216 290.48 416.548 290.754 415.9 291.07C406.9 295.12 400.49 305.27 400.35 317.15C400.35 317.52 385.26 317.3 383.35 317.15C375.99 316.47 368.74 314.35 363.56 308.8C348.86 293.05 348.93 269.68 354.97 251.4C360.69 234.05 367.97 217.11 377.51 201.5C398.18 167.72 430.25 142.8 470.85 140.56C480.587 140.071 490.347 140.641 499.96 142.26C504.509 142.977 509.008 143.979 513.43 145.26C554.82 163.32 581.09 204.26 580.85 252.13" fill="#2E2E2E"/>
<path d="M556.84 637.23C551.95 649.78 540.31 656.96 530.84 653.23C521.37 649.5 517.65 636.38 522.53 623.83C527.41 611.28 539.06 604.09 548.53 607.83C558 611.57 561.73 624.69 556.84 637.24" fill="#3FBDF1"/>
<path d="M582 749.31C582 749.31 555.44 934.46 661.68 913.94C767.34 893.51 807.33 463.66 501.49 401.84" stroke="black" stroke-width="7.24" stroke-miterlimit="10"/>
<path d="M333.26 571.062C333.26 571.062 247.54 643.353 293.73 715.653" stroke="black" stroke-width="7.24" stroke-miterlimit="10"/>
<path d="M583.93 697.883C582.46 697.973 580.36 696.993 578.93 696.603C577.117 696.123 575.32 695.609 573.54 695.063C563.097 691.812 553.271 686.837 544.47 680.343C542.47 678.913 538.91 677.993 536.47 678.933C535.112 679.431 533.913 680.285 532.998 681.406C532.083 682.526 531.486 683.872 531.27 685.303C530.52 690.463 534.16 695.513 538.13 698.823C542.84 702.763 547.73 706.393 553.44 708.753C558.952 710.965 564.638 712.715 570.44 713.983C573.07 714.593 575.74 714.983 578.35 715.653" stroke="black" stroke-width="7.24" stroke-miterlimit="10"/>
<path d="M616.83 647.789C617.91 653.489 618.7 659.409 618.16 665.199C617.71 670.099 615.95 675.819 610.5 677.009C609.464 677.283 608.389 677.381 607.32 677.299C586.8 676.089 569.89 668.999 550.58 655.039C531.27 641.079 524.47 673.229 542.11 678.929" stroke="black" stroke-width="7.24" stroke-miterlimit="10"/>
<path d="M542.85 702.701C542.376 702.311 541.926 701.893 541.5 701.451C531.89 691.401 530.15 711.591 540.24 717.531L541.54 718.301C542.22 718.591 542.95 718.931 543.67 719.301C544.01 719.391 544.39 719.541 544.74 719.641M544.74 719.641C553.86 723.641 563.57 726.201 573.13 728.811C563.67 725.721 554.24 722.681 544.74 719.641ZM544.74 719.641C543.92 719.301 543.14 718.961 542.32 718.571C542.068 718.466 541.807 718.386 541.54 718.331C541.37 718.254 541.183 718.222 540.997 718.24C540.811 718.257 540.633 718.323 540.48 718.431C540.252 718.618 540.085 718.869 540 719.151C538.45 722.871 539.71 727.561 541.69 730.891C543.77 734.411 547.34 737.121 550.86 739.051C560.33 744.361 571.34 747.501 581.97 749.381C583.942 749.789 585.962 749.921 587.97 749.771" stroke="black" stroke-width="7.24" stroke-miterlimit="10"/>
<path d="M673.72 772.679C673.72 772.679 641.13 717.139 637.5 668.849C635.28 638.959 626.5 632.629 620.22 632.199" stroke="black" stroke-width="7.24" stroke-miterlimit="10"/>
<path d="M610.5 677L616.84 647.79L620.22 632.19L645.28 516.53C645.652 514.808 645.633 513.025 645.226 511.31C644.818 509.596 644.033 507.995 642.926 506.624C641.82 505.253 640.421 504.146 638.831 503.386C637.242 502.626 635.502 502.231 633.74 502.23H483.88C481.215 502.228 478.627 503.129 476.54 504.788C474.453 506.446 472.99 508.763 472.39 511.36L442.88 637.9L421.34 730.23L419.34 738.88C418.942 740.612 418.939 742.41 419.332 744.143C419.724 745.875 420.501 747.497 421.606 748.888C422.71 750.279 424.114 751.403 425.713 752.177C427.311 752.952 429.064 753.356 430.84 753.36H581.43" stroke="black" stroke-width="7.24" stroke-miterlimit="10"/>
<path d="M424.7 252.632C424.7 252.632 432.63 219.002 477.41 214.542C522.19 210.082 533.41 243.542 533.41 243.542L532 246.912C532 246.912 473.13 223.292 440.62 257.002C440.62 257.002 428.91 262.312 424.7 252.652" fill="#3FBDF1"/>
<path d="M436.78 637.07L367.13 619.67C365.469 619.259 363.74 619.198 362.054 619.49C360.368 619.783 358.761 620.423 357.335 621.37C355.91 622.317 354.697 623.551 353.773 624.992C352.85 626.433 352.237 628.05 351.972 629.741C351.708 631.432 351.798 633.16 352.237 634.814C352.676 636.468 353.454 638.013 354.522 639.35C355.59 640.687 356.925 641.788 358.441 642.582C359.958 643.375 361.623 643.845 363.33 643.96L396.26 646.13" stroke="black" stroke-width="7.24" stroke-miterlimit="10"/>
<path d="M603.58 442.763C603.58 442.763 451.45 566.003 318.71 418.812" stroke="black" stroke-width="7.24" stroke-miterlimit="10"/>
<path d="M313.94 591.05C311.09 561.93 296.66 494.27 224.55 496.16" stroke="black" stroke-width="7.24" stroke-miterlimit="10"/>
<path d="M663.21 496.141C663.21 496.141 649.62 499.881 644.41 509.021" stroke="black" stroke-width="7.24" stroke-miterlimit="10"/>
<path d="M111.12 940.5H757.03" stroke="black" stroke-width="7.24" stroke-miterlimit="10"/>
<path d="M539.47 294.629C545.56 299.749 549.47 308.109 549.47 317.569C549.47 333.269 538.56 345.969 525.08 345.969C523.555 345.961 522.036 345.783 520.55 345.439C536.25 333.439 539.43 294.629 539.43 294.629" fill="#3FBDF1"/>
<path d="M450.66 358.003C458.228 361.769 466.51 363.885 474.957 364.211C483.404 364.537 491.824 363.065 499.66 359.893C543.84 341.443 542.15 287.063 537.56 257.503C537.194 255.105 536.673 252.733 536 250.403V250.353C530.93 233.453 517.7 219.683 500.27 215.773C466.51 208.143 435.64 227.283 422.83 253.053" stroke="black" stroke-width="7.24" stroke-miterlimit="10"/>
<path d="M536.42 250.931C536.42 250.931 536.28 250.731 535.99 250.401V250.351C532.99 246.971 515.62 230.841 465.34 242.431C459.571 243.75 454.143 246.268 449.41 249.821C449.298 249.885 449.197 249.966 449.11 250.061" stroke="black" stroke-width="7.24" stroke-miterlimit="10"/>
<path d="M402.4 332.851H377.53C359.58 332.851 345.35 316.411 339.16 300.981C330.46 279.281 336.03 257.071 343.86 235.981C350.42 218.331 358.76 201.181 369.73 185.831C394.29 151.481 431.37 132.021 473.99 135.621C477.77 135.941 481.533 136.407 485.28 137.021C542.51 146.301 581.1 194.151 580.81 252.101C580.69 265.563 578.938 278.961 575.59 292.001C574.051 298.174 570.77 303.774 566.137 308.134C561.504 312.494 555.715 315.429 549.46 316.591" stroke="black" stroke-width="7.24" stroke-miterlimit="10"/>
<path d="M418.83 290C418.145 289.07 417.386 288.197 416.56 287.39C413.33 284.35 410.626 280.795 408.56 276.87C406.09 272.04 404.4 266.97 405.22 261.22C406.14 255.04 409.76 247.6 417.22 249C420.75 249.68 422.63 253.06 424.66 255.67C432.38 265.67 443.01 255.62 449.53 249.58" stroke="black" stroke-width="7.24" stroke-miterlimit="10"/>
<path d="M539.47 294.629C545.56 299.749 549.47 308.109 549.47 317.569C549.47 333.269 538.56 345.969 525.08 345.969C523.555 345.961 522.036 345.783 520.55 345.439" stroke="black" stroke-width="7.24" stroke-miterlimit="10"/>
<path d="M487.28 313.902C492.74 317.572 505.93 320.582 503.28 309.702C500.1 296.812 495.82 269.272 522.03 267.172C522.03 267.172 533.57 267.662 539.27 271.582" stroke="black" stroke-width="7.24" stroke-miterlimit="10"/>
<path d="M497.15 335.45C497.15 335.45 483.95 342.45 477.41 328.5" stroke="black" stroke-width="7.24" stroke-miterlimit="10"/>
<path d="M470.38 286.001C469.87 290.431 471.6 294.261 474.25 294.571C476.9 294.881 479.46 291.571 479.98 287.111C480.5 282.651 478.75 278.861 476.11 278.551C473.47 278.241 470.89 281.551 470.38 286.001Z" fill="black"/>
<path d="M513.36 288.61C512.85 293.03 514.58 296.87 517.23 297.18C519.88 297.49 522.44 294.18 522.95 289.72C523.46 285.26 521.73 281.46 519.09 281.16C516.45 280.86 513.87 284.16 513.36 288.61Z" fill="black"/>
<path d="M487.28 270.002C487.28 270.002 479.2 257.542 460.89 269.362" stroke="black" stroke-width="7.24" stroke-miterlimit="10"/>
<path d="M501.48 359.07V428.19" stroke="black" stroke-width="7.24" stroke-miterlimit="10"/>
<path d="M228.22 772.68C228.22 772.68 256.71 745.68 293.71 715.68C325.92 689.55 364.55 661.06 396.28 646.14C400.34 644.25 404.28 642.56 408.11 641.14C417.249 637.657 427.057 636.289 436.8 637.14C438.84 637.308 440.869 637.581 442.88 637.96" stroke="black" stroke-width="7.24" stroke-miterlimit="10"/>
<path d="M421.34 730.231C390.05 739.601 370.34 761.721 355.47 792.771C345.58 813.391 337.02 837.101 321.47 854.201C306.36 870.711 288.68 885.201 268.21 894.521C231.07 911.421 185.34 910.121 161.21 873.371C144.89 848.451 138.47 817.491 135.21 788.371C129.61 737.761 147.29 595.101 224.55 496.151C249.37 464.321 280.33 437.041 318.67 418.781C345.58 406.001 376 397.641 410.48 395.271L420.14 345.441" stroke="black" stroke-width="7.24" stroke-miterlimit="10"/>
<path d="M651.16 915.52V940.5" stroke="black" stroke-width="7.24" stroke-miterlimit="10"/>
<path d="M217.35 906.602V940.502" stroke="black" stroke-width="7.24" stroke-miterlimit="10"/>
<path d="M449.06 317.572C449.155 325.069 446.493 332.339 441.58 338.002C438.825 339.276 435.825 339.934 432.79 339.932C419.32 339.932 408.4 327.232 408.4 311.532C408.303 304.036 410.97 296.767 415.89 291.112C418.643 289.831 421.643 289.169 424.68 289.172C438.15 289.172 449.06 301.882 449.06 317.572Z" fill="#3FBDF1"/>
<path d="M424.7 345.972C438.154 345.972 449.06 333.257 449.06 317.572C449.06 301.887 438.154 289.172 424.7 289.172C411.246 289.172 400.34 301.887 400.34 317.572C400.34 333.257 411.246 345.972 424.7 345.972Z" stroke="black" stroke-width="7.24" stroke-miterlimit="10"/>
<path d="M714.32 69.3819C699.312 64.908 683.315 64.9849 668.351 69.6029C653.387 74.2208 640.129 83.1724 630.252 95.3256C620.376 107.479 614.325 122.288 612.865 137.88C611.405 153.472 614.601 169.147 622.05 182.923C629.498 196.698 640.864 207.956 654.711 215.271C668.557 222.587 684.262 225.632 699.84 224.023C715.417 222.413 730.167 216.22 742.225 206.227C754.283 196.234 763.106 182.89 767.58 167.882C773.579 147.757 771.338 126.074 761.35 107.601C751.362 89.1291 734.445 75.3811 714.32 69.3819ZM674.54 202.822C673.084 202.387 671.727 201.67 670.548 200.711C669.369 199.752 668.39 198.57 667.668 197.233C666.945 195.896 666.493 194.43 666.338 192.918C666.182 191.406 666.325 189.878 666.76 188.422C667.195 186.966 667.912 185.609 668.871 184.43C669.83 183.251 671.012 182.272 672.349 181.55C675.049 180.091 678.219 179.764 681.16 180.642C684.101 181.52 686.573 183.53 688.032 186.231C689.491 188.931 689.818 192.101 688.94 195.042C688.062 197.983 686.052 200.455 683.351 201.914C680.651 203.373 677.481 203.7 674.54 202.822ZM714.54 121.882C714.373 122.282 714.213 122.672 714.06 123.052C707.571 139.014 699.501 154.287 689.97 168.642C687.66 172.142 680.42 169.982 680.4 165.782C680.535 152.73 681.537 139.701 683.4 126.782C684.56 117.342 683.66 101.182 691.29 93.9219C698.06 87.4219 710.83 90.2119 716.85 96.4519C723.5 103.382 717.74 114.272 714.51 121.882H714.54Z" fill="#D7E8F0"/>
<path d="M769.1 523.401C763.606 528.987 759.892 536.077 758.428 543.774C756.964 551.471 757.815 559.43 760.874 566.643C763.934 573.856 769.063 580 775.615 584.297C782.166 588.594 789.845 590.852 797.679 590.785C805.514 590.718 813.153 588.329 819.63 583.92C826.107 579.511 831.13 573.28 834.065 566.015C837.001 558.751 837.715 550.779 836.12 543.108C834.524 535.438 830.689 528.412 825.1 522.921C817.609 515.562 807.502 511.478 797 511.568C786.499 511.658 776.464 515.914 769.1 523.401ZM818.78 572.231C817.703 573.327 816.235 573.95 814.699 573.963C813.163 573.976 811.685 573.378 810.59 572.301C809.495 571.225 808.872 569.757 808.859 568.221C808.846 566.685 809.443 565.207 810.52 564.111C811.053 563.569 811.688 563.137 812.388 562.84C813.088 562.543 813.84 562.387 814.6 562.38C815.361 562.374 816.115 562.517 816.82 562.802C817.525 563.087 818.168 563.508 818.71 564.041C819.252 564.575 819.684 565.209 819.981 565.91C820.278 566.61 820.435 567.361 820.441 568.122C820.448 568.882 820.304 569.637 820.019 570.342C819.734 571.047 819.313 571.689 818.78 572.231ZM792.14 535.781C797.41 542.681 803.14 549.781 807.28 557.421C808.28 559.261 805.63 561.961 803.77 560.981C798.025 557.869 792.496 554.375 787.22 550.521C783.32 547.801 775.96 544.411 774.54 539.341C773.25 534.821 777.47 529.831 781.64 528.631C786.76 527.171 789.48 532.401 792.14 535.781Z" fill="#3FBDF1"/>
<path d="M924.4 206.151C928.346 201.297 930.764 195.381 931.347 189.153C931.931 182.925 930.656 176.663 927.681 171.16C924.706 165.657 920.167 161.16 914.636 158.236C909.106 155.313 902.833 154.095 896.61 154.737C890.388 155.379 884.495 157.852 879.678 161.842C874.861 165.833 871.335 171.162 869.546 177.157C867.757 183.151 867.786 189.541 869.629 195.519C871.472 201.497 875.047 206.794 879.9 210.741C883.123 213.362 886.831 215.322 890.812 216.51C894.793 217.698 898.969 218.09 903.101 217.663C907.233 217.237 911.241 216.001 914.896 214.026C918.55 212.05 921.78 209.374 924.4 206.151ZM881.23 171.061C881.613 170.589 882.085 170.198 882.619 169.909C883.153 169.62 883.739 169.439 884.343 169.376C884.947 169.313 885.557 169.37 886.139 169.544C886.721 169.717 887.264 170.003 887.735 170.386C888.207 170.769 888.598 171.241 888.887 171.775C889.176 172.309 889.357 172.894 889.42 173.499C889.483 174.103 889.426 174.713 889.252 175.295C889.079 175.877 888.793 176.419 888.41 176.891C887.637 177.843 886.517 178.449 885.297 178.576C884.078 178.702 882.857 178.339 881.905 177.566C880.953 176.793 880.347 175.673 880.22 174.453C880.094 173.233 880.457 172.013 881.23 171.061ZM905.16 198.061C900.45 192.971 895.38 187.791 891.49 181.991C890.55 180.601 892.49 178.261 894.01 178.901C898.826 180.954 903.5 183.326 908 186.001C911.3 187.871 917.41 190.001 918.92 193.941C920.28 197.431 917.3 201.721 914.07 202.941C910.08 204.481 907.52 200.531 905.16 198.001V198.061Z" fill="#3FBDF1"/>
<path d="M610 414.691C621.16 433.691 620.65 447.221 617.75 469.151C616.59 477.501 625.58 483.151 632.87 478.951C697.28 441.951 757.4 471.211 834.2 453.071C862.4 446.451 897.56 432.731 921.66 410.671C929.657 398.797 933.93 384.807 933.93 370.491C933.93 310.491 851.93 261.781 750.8 261.781C685.99 261.781 629.05 281.781 596.5 311.911C596.5 311.911 596.5 311.911 596.41 312.001C588.15 324.371 583.61 337.891 583.61 352.001C583.56 373.531 599.57 396.871 610 414.691Z" fill="#D7E8F0"/>
<path d="M583.85 352C583.85 352.5 583.85 353 583.85 353.52C584.21 374.52 594.75 394.09 607.23 411.02C615.59 422.34 625.51 434.92 623.16 448.8C622.16 454.92 618.71 460.47 617.85 466.61C616.99 472.75 620.26 480.41 626.46 480.73C630.4 480.93 633.75 478.13 636.87 475.73C655.32 461.43 679.3 456.08 702.62 455.14C725.94 454.2 749.23 457.28 772.56 457.94C806.2 458.94 840.37 454.7 871.44 441.8C899.28 430.26 924.79 411.32 941.54 386.02C958 361.18 948.27 325.11 930.71 303.51C914.25 283.24 890.4 270.27 865.94 261.13C800.15 236.57 725.06 237.13 660.18 264.04C640.92 272.04 622.29 282.44 607.85 297.49C593.78 312.15 584 331.69 583.85 352Z" stroke="black" stroke-width="7.24" stroke-miterlimit="10"/>
<path d="M853.79 375.899C867.741 375.899 879.05 364.59 879.05 350.639C879.05 336.688 867.741 325.379 853.79 325.379C839.839 325.379 828.53 336.688 828.53 350.639C828.53 364.59 839.839 375.899 853.79 375.899Z" fill="white"/>
<path d="M772.09 375.899C786.041 375.899 797.35 364.59 797.35 350.639C797.35 336.688 786.041 325.379 772.09 325.379C758.139 325.379 746.83 336.688 746.83 350.639C746.83 364.59 758.139 375.899 772.09 375.899Z" fill="white"/>
<path d="M688.8 375.899C702.751 375.899 714.06 364.59 714.06 350.639C714.06 336.688 702.751 325.379 688.8 325.379C674.849 325.379 663.54 336.688 663.54 350.639C663.54 364.59 674.849 375.899 688.8 375.899Z" fill="white"/>
</svg>
