<svg width="422" height="304" viewBox="0 0 422 304" fill="none" xmlns="http://www.w3.org/2000/svg">
<g id="Frame 95706">
<rect width="422" height="304" fill="white"/>
<g id="guest">
<path id="Vector" d="M85.45 166.475C85.05 166.692 84.625 166.738 84.175 166.613C83.725 166.488 83.3833 166.234 83.15 165.85C82.8667 165.367 82.8167 164.867 83 164.35C83.1833 163.833 83.5417 163.483 84.075 163.3L92.5 160.5L93.4 162.275L85.45 166.475ZM86 173V167.325L94.725 162.725L94.3 161.85L100 159L100.9 160.8L94 166V173H86ZM87.5 162C86.5333 162 85.7083 161.658 85.025 160.975C84.3417 160.292 84 159.467 84 158.5C84 157.533 84.3417 156.708 85.025 156.025C85.7083 155.342 86.5333 155 87.5 155C88.4667 155 89.2917 155.342 89.975 156.025C90.6583 156.708 91 157.533 91 158.5C91 159.467 90.6583 160.292 89.975 160.975C89.2917 161.658 88.4667 162 87.5 162Z" fill="black"/>
</g>
<g id="temple">
<path id="Vector_2" d="M298 80V70.85C297.133 70.6333 296.417 70.175 295.85 69.475C295.283 68.775 295 67.9583 295 67.025H297C297 67.5583 297.196 68.021 297.588 68.413C297.98 68.805 298.442 69.0007 298.975 69H300V66.85C299.133 66.6333 298.417 66.175 297.85 65.475C297.283 64.775 297 63.9583 297 63.025H299C299 63.5583 299.196 64.0207 299.588 64.412C299.98 64.8033 300.442 64.9993 300.975 65H301.5L306 59L310.5 65H311.025C311.558 65 312.021 64.8043 312.413 64.413C312.805 64.0217 313.001 63.559 313 63.025H315C315 63.9583 314.717 64.775 314.15 65.475C313.583 66.175 312.867 66.6333 312 66.85V69H313.025C313.558 69 314.021 68.8043 314.413 68.413C314.805 68.0217 315.001 67.559 315 67.025H317C317 67.9583 316.717 68.775 316.15 69.475C315.583 70.175 314.867 70.6333 314 70.85V80H307V76C307 75.7167 306.904 75.4793 306.712 75.288C306.52 75.0967 306.283 75.0007 306 75C305.717 74.9993 305.48 75.0953 305.288 75.288C305.096 75.4807 305 75.718 305 76V80H298ZM304 65H308L306 62.325L304 65ZM302 69H310V67H302V69ZM300 78H303V76C303 75.1667 303.292 74.4583 303.875 73.875C304.458 73.2917 305.167 73 306 73C306.833 73 307.542 73.2917 308.125 73.875C308.708 74.4583 309 75.1667 309 76V78H312V71H300V78Z" fill="black"/>
</g>
<g id="airport">
<path id="Vector_3" d="M299.925 207.125L297.45 202.525L292.85 200.05L294.625 198.3L298.25 198.925L300.8 196.375L292.875 193L294.975 190.85L304.6 192.55L307.7 189.45C308.083 189.067 308.558 188.875 309.125 188.875C309.692 188.875 310.167 189.067 310.55 189.45C310.933 189.833 311.125 190.304 311.125 190.862C311.125 191.42 310.933 191.891 310.55 192.275L307.425 195.4L309.125 205L307 207.125L303.6 199.2L301.05 201.75L301.7 205.35L299.925 207.125Z" fill="black"/>
</g>
<g id="trip">
<path id="Vector_4" d="M48 64C47.45 64 46.9793 63.8043 46.588 63.413C46.1967 63.0217 46.0007 62.5507 46 62V51C46 50.45 46.196 49.9793 46.588 49.588C46.98 49.1967 47.4507 49.0007 48 49H52V47C52 46.45 52.196 45.9793 52.588 45.588C52.98 45.1967 53.4507 45.0007 54 45H58C58.55 45 59.021 45.196 59.413 45.588C59.805 45.98 60.0007 46.4507 60 47V49H64C64.55 49 65.021 49.196 65.413 49.588C65.805 49.98 66.0007 50.4507 66 51V62C66 62.55 65.8043 63.021 65.413 63.413C65.0217 63.805 64.5507 64.0007 64 64H48ZM54 49H58V47H54V49ZM50 51H48V62H50V51ZM60 62V51H52V62H60ZM62 51V62H64V51H62Z" fill="black"/>
</g>
<path id="load" d="M75.0877 60.3158C89.7411 59.1169 104.39 57.8494 119.118 58.5858C126.175 58.9386 133.258 61.1341 140.097 62.7524C146.932 64.3696 154.156 64.7165 160.858 66.6754C169.297 69.1422 178.903 69.5451 187.612 70.3061C196.285 71.0638 205.013 70.8421 213.709 70.8421C227.436 70.8421 241.261 72.8461 254.742 75.4961C259.546 76.4406 264.542 77.3844 268.265 80.7836C272.946 85.0577 275.857 90.5979 276.574 96.8899C277.388 104.03 273.139 106.4 266.949 109.146C255.184 114.367 242.59 117.213 229.717 117.699C209.952 118.445 190.037 117.772 170.263 117.772C159.008 117.772 146.45 116.277 135.346 119.161C128.365 120.974 122.447 125.137 117.047 129.76C112.595 133.572 108.176 137.154 106.983 143.211C106.129 147.546 106.667 152.381 106.667 156.783C106.667 161.108 106.575 165.446 106.667 169.77C106.801 176.085 109.756 183.807 111.93 189.604C112.485 191.086 113.399 192.089 114.293 193.381C115.878 195.67 123.348 193.141 125.429 192.772C137.113 190.7 148.102 187.891 159.42 184.292C171.06 180.592 182.913 177.494 194.776 174.595C219.243 168.615 245.002 169.526 270.02 169.526C271.623 169.526 274.685 169.004 276.306 169.721C278.216 170.566 278.888 174.003 279.157 175.74C279.553 178.299 279.667 181.153 279.376 183.732C279.093 186.243 277.701 188.388 277.378 190.871C277.004 193.747 275.226 200.924 278.791 202.86C282.432 204.836 286.899 204.191 290.439 202.421" stroke="black" stroke-width="2" stroke-linecap="round"/>
<g id="car">
<path id="Vector_5" d="M81.1667 73.3334C79.5417 73.3334 78.1239 72.8192 76.9135 71.7907C75.7031 70.7623 74.9902 69.4349 74.775 67.8084H70.3333V52.1001H76.4L72.5 48.2001L70.3333 50.3667L67.3 47.3334L74.6667 39.9667L77.7 43.0001L75.5333 45.1667L78.5667 48.2001L81.8167 38.6667H102.238L106.625 51.8834H113.667V67.8084H109.225C109.008 69.4334 108.295 70.7609 107.086 71.7907C105.877 72.8206 104.46 73.3349 102.833 73.3334C101.461 73.3334 100.224 72.9362 99.1218 72.1418C98.0197 71.3473 97.2347 70.3001 96.7667 69.0001H87.2333C86.7639 70.3001 85.9781 71.3473 84.876 72.1418C83.7739 72.9362 82.5374 73.3334 81.1667 73.3334ZM82.0333 51.6667H89.8333V43.0001H84.9042L82.0333 51.6667ZM94.1667 51.6667H101.967L99.0958 43.0001H94.1667V51.6667ZM81.1667 69.0001C81.7806 69.0001 82.2955 68.7921 82.7115 68.3761C83.1275 67.9601 83.3348 67.4459 83.3333 66.8334C83.3319 66.221 83.1239 65.7067 82.7093 65.2907C82.2948 64.8747 81.7806 64.6667 81.1667 64.6667C80.5528 64.6667 80.0386 64.8747 79.624 65.2907C79.2094 65.7067 79.0014 66.221 79 66.8334C78.9986 67.4459 79.2066 67.9608 79.624 68.3782C80.0414 68.7957 80.5557 69.003 81.1667 69.0001ZM102.833 69.0001C103.447 69.0001 103.962 68.7921 104.378 68.3761C104.794 67.9601 105.001 67.4459 105 66.8334C104.999 66.221 104.791 65.7067 104.376 65.2907C103.961 64.8747 103.447 64.6667 102.833 64.6667C102.219 64.6667 101.705 64.8747 101.291 65.2907C100.876 65.7067 100.668 66.221 100.667 66.8334C100.665 67.4459 100.873 67.9608 101.291 68.3782C101.708 68.7957 102.222 69.003 102.833 69.0001Z" fill="#8C60F4"/>
</g>
</g>
</svg>
