<svg width="78" height="84" viewBox="0 0 78 84" fill="none" xmlns="http://www.w3.org/2000/svg">
<g id="Group 52">
<g id="icon_star">
<g id="Vector">
<path d="M7.32099 56.2125L9.2119 60.2349C9.25859 60.3449 9.36364 60.4183 9.46869 60.4305L13.7057 61.0785C13.9859 61.1274 14.1026 61.482 13.8925 61.702L10.8343 64.8197C10.7526 64.9053 10.7176 65.0276 10.741 65.1498L11.4647 69.5757C11.5113 69.8692 11.2195 70.1015 10.9627 69.9548L7.16925 67.8641C7.0642 67.8029 6.94747 67.8029 6.84242 67.8641L3.04893 69.9548C2.79214 70.0893 2.50033 69.8692 2.54702 69.5757L3.2707 65.1498C3.29405 65.0276 3.24736 64.9175 3.16565 64.832L0.10751 61.6898C-0.102592 61.482 0.0141314 61.1152 0.294266 61.0663L4.53131 60.4183C4.64803 60.4061 4.74141 60.3327 4.7881 60.2227L6.67901 56.2002C6.81908 55.9313 7.19259 55.9313 7.32099 56.2125Z" fill="#EAEAEA"/>
<path d="M23.321 56.2125L25.2119 60.2349C25.2586 60.3449 25.3636 60.4183 25.4687 60.4305L29.7057 61.0785C29.9859 61.1274 30.1026 61.482 29.8925 61.702L26.8343 64.8197C26.7526 64.9053 26.7176 65.0276 26.741 65.1498L27.4647 69.5757C27.5113 69.8692 27.2195 70.1015 26.9627 69.9548L23.1692 67.8641C23.0642 67.8029 22.9475 67.8029 22.8424 67.8641L19.0489 69.9548C18.7921 70.0893 18.5003 69.8692 18.547 69.5757L19.2707 65.1498C19.294 65.0276 19.2474 64.9175 19.1657 64.832L16.1075 61.6898C15.8974 61.482 16.0141 61.1152 16.2943 61.0663L20.5313 60.4183C20.648 60.4061 20.7414 60.3327 20.7881 60.2227L22.679 56.2002C22.8191 55.9313 23.1926 55.9313 23.321 56.2125Z" fill="#EAEAEA"/>
<path d="M39.321 56.2125L41.2119 60.2349C41.2586 60.3449 41.3636 60.4183 41.4687 60.4305L45.7057 61.0785C45.9859 61.1274 46.1026 61.482 45.8925 61.702L42.8343 64.8197C42.7526 64.9053 42.7176 65.0276 42.741 65.1498L43.4647 69.5757C43.5113 69.8692 43.2195 70.1015 42.9627 69.9548L39.1692 67.8641C39.0642 67.8029 38.9475 67.8029 38.8424 67.8641L35.0489 69.9548C34.7921 70.0893 34.5003 69.8692 34.547 69.5757L35.2707 65.1498C35.294 65.0276 35.2474 64.9175 35.1657 64.832L32.1075 61.6898C31.8974 61.482 32.0141 61.1152 32.2943 61.0663L36.5313 60.4183C36.648 60.4061 36.7414 60.3327 36.7881 60.2227L38.679 56.2002C38.8191 55.9313 39.1926 55.9313 39.321 56.2125Z" fill="#EAEAEA"/>
<path d="M55.321 56.2125L57.2119 60.2349C57.2586 60.3449 57.3636 60.4183 57.4687 60.4305L61.7057 61.0785C61.9859 61.1274 62.1026 61.482 61.8925 61.702L58.8343 64.8197C58.7526 64.9053 58.7176 65.0276 58.741 65.1498L59.4647 69.5757C59.5113 69.8692 59.2195 70.1015 58.9627 69.9548L55.1692 67.8641C55.0642 67.8029 54.9475 67.8029 54.8424 67.8641L51.0489 69.9548C50.7921 70.0893 50.5003 69.8692 50.547 69.5757L51.2707 65.1498C51.294 65.0276 51.2474 64.9175 51.1657 64.832L48.1075 61.6898C47.8974 61.482 48.0141 61.1152 48.2943 61.0663L52.5313 60.4183C52.648 60.4061 52.7414 60.3327 52.7881 60.2227L54.679 56.2002C54.8191 55.9313 55.1926 55.9313 55.321 56.2125Z" fill="#EAEAEA"/>
<path d="M71.321 56.2125L73.2119 60.2349C73.2586 60.3449 73.3636 60.4183 73.4687 60.4305L77.7057 61.0785C77.9859 61.1274 78.1026 61.482 77.8925 61.702L74.8344 64.8197C74.7526 64.9053 74.7176 65.0276 74.741 65.1498L75.4647 69.5757C75.5113 69.8692 75.2195 70.1015 74.9627 69.9548L71.1693 67.8641C71.0642 67.8029 70.9475 67.8029 70.8424 67.8641L67.0489 69.9548C66.7921 70.0893 66.5003 69.8692 66.547 69.5757L67.2707 65.1498C67.2941 65.0276 67.2474 64.9175 67.1656 64.832L64.1075 61.6898C63.8974 61.482 64.0141 61.1152 64.2943 61.0663L68.5313 60.4183C68.648 60.4061 68.7414 60.3327 68.7881 60.2227L70.679 56.2002C70.8191 55.9313 71.1926 55.9313 71.321 56.2125Z" fill="#EAEAEA"/>
</g>
<path id="Vector_2" d="M7.32099 56.2125L9.2119 60.2349C9.25859 60.3449 9.36364 60.4183 9.46869 60.4305L13.7057 61.0785C13.9859 61.1274 14.1026 61.482 13.8925 61.702L10.8343 64.8197C10.7526 64.9053 10.7176 65.0276 10.741 65.1498L11.4647 69.5757C11.5113 69.8692 11.2195 70.1015 10.9627 69.9548L7.16925 67.8641C7.0642 67.8029 6.94747 67.8029 6.84242 67.8641L3.04893 69.9548C2.79214 70.0893 2.50033 69.8692 2.54702 69.5757L3.2707 65.1498C3.29405 65.0276 3.24736 64.9175 3.16565 64.832L0.10751 61.6898C-0.102592 61.482 0.0141314 61.1152 0.294266 61.0663L4.53131 60.4183C4.64803 60.4061 4.74141 60.3327 4.7881 60.2227L6.67901 56.2002C6.81908 55.9313 7.19259 55.9313 7.32099 56.2125Z" fill="#FD9800"/>
<path id="Vector_3" d="M23.321 56.2125L25.2119 60.2349C25.2586 60.3449 25.3636 60.4183 25.4687 60.4305L29.7057 61.0785C29.9859 61.1274 30.1026 61.482 29.8925 61.702L26.8343 64.8197C26.7526 64.9053 26.7176 65.0276 26.741 65.1498L27.4647 69.5757C27.5113 69.8692 27.2195 70.1015 26.9627 69.9548L23.1692 67.8641C23.0642 67.8029 22.9475 67.8029 22.8424 67.8641L19.0489 69.9548C18.7921 70.0893 18.5003 69.8692 18.547 69.5757L19.2707 65.1498C19.294 65.0276 19.2474 64.9175 19.1657 64.832L16.1075 61.6898C15.8974 61.482 16.0141 61.1152 16.2943 61.0663L20.5313 60.4183C20.648 60.4061 20.7414 60.3327 20.7881 60.2227L22.679 56.2002C22.8191 55.9313 23.1926 55.9313 23.321 56.2125Z" fill="#FD9800"/>
<path id="Vector_4" d="M39.321 56.2125L41.2119 60.2349C41.2586 60.3449 41.3636 60.4183 41.4687 60.4305L45.7057 61.0785C45.9859 61.1274 46.1026 61.482 45.8925 61.702L42.8343 64.8197C42.7526 64.9053 42.7176 65.0276 42.741 65.1498L43.4647 69.5757C43.5113 69.8692 43.2195 70.1015 42.9627 69.9548L39.1692 67.8641C39.0642 67.8029 38.9475 67.8029 38.8424 67.8641L35.0489 69.9548C34.7921 70.0893 34.5003 69.8692 34.547 69.5757L35.2707 65.1498C35.294 65.0276 35.2474 64.9175 35.1657 64.832L32.1075 61.6898C31.8974 61.482 32.0141 61.1152 32.2943 61.0663L36.5313 60.4183C36.648 60.4061 36.7414 60.3327 36.7881 60.2227L38.679 56.2002C38.8191 55.9313 39.1926 55.9313 39.321 56.2125Z" fill="#FD9800"/>
<path id="Vector_5" d="M55.321 56.2125L57.2119 60.2349C57.2586 60.3449 57.3636 60.4183 57.4687 60.4305L61.7057 61.0785C61.9859 61.1274 62.1026 61.482 61.8925 61.702L58.8343 64.8197C58.7526 64.9053 58.7176 65.0276 58.741 65.1498L59.4647 69.5757C59.5113 69.8692 59.2195 70.1015 58.9627 69.9548L55.1692 67.8641C55.0642 67.8029 54.9475 67.8029 54.8424 67.8641L51.0489 69.9548C50.7921 70.0893 50.5003 69.8692 50.547 69.5757L51.2707 65.1498C51.294 65.0276 51.2474 64.9175 51.1657 64.832L48.1075 61.6898C47.8974 61.482 48.0141 61.1152 48.2943 61.0663L52.5313 60.4183C52.648 60.4061 52.7414 60.3327 52.7881 60.2227L54.679 56.2002C54.8191 55.9313 55.1926 55.9313 55.321 56.2125Z" fill="#FD9800"/>
</g>
<g id="icon_star_2">
<g id="Vector_6">
<path d="M7.32099 70.2125L9.2119 74.2349C9.25859 74.3449 9.36364 74.4183 9.46869 74.4305L13.7057 75.0785C13.9859 75.1274 14.1026 75.482 13.8925 75.702L10.8343 78.8197C10.7526 78.9053 10.7176 79.0276 10.741 79.1498L11.4647 83.5757C11.5113 83.8692 11.2195 84.1015 10.9627 83.9548L7.16925 81.8641C7.0642 81.8029 6.94747 81.8029 6.84242 81.8641L3.04893 83.9548C2.79214 84.0893 2.50033 83.8692 2.54702 83.5757L3.2707 79.1498C3.29405 79.0276 3.24736 78.9175 3.16565 78.832L0.10751 75.6898C-0.102592 75.482 0.0141314 75.1152 0.294266 75.0663L4.53131 74.4183C4.64803 74.4061 4.74141 74.3327 4.7881 74.2227L6.67901 70.2002C6.81908 69.9313 7.19259 69.9313 7.32099 70.2125Z" fill="#EAEAEA"/>
<path d="M23.321 70.2125L25.2119 74.2349C25.2586 74.3449 25.3636 74.4183 25.4687 74.4305L29.7057 75.0785C29.9859 75.1274 30.1026 75.482 29.8925 75.702L26.8343 78.8197C26.7526 78.9053 26.7176 79.0276 26.741 79.1498L27.4647 83.5757C27.5113 83.8692 27.2195 84.1015 26.9627 83.9548L23.1692 81.8641C23.0642 81.8029 22.9475 81.8029 22.8424 81.8641L19.0489 83.9548C18.7921 84.0893 18.5003 83.8692 18.547 83.5757L19.2707 79.1498C19.294 79.0276 19.2474 78.9175 19.1657 78.832L16.1075 75.6898C15.8974 75.482 16.0141 75.1152 16.2943 75.0663L20.5313 74.4183C20.648 74.4061 20.7414 74.3327 20.7881 74.2227L22.679 70.2002C22.8191 69.9313 23.1926 69.9313 23.321 70.2125Z" fill="#EAEAEA"/>
<path d="M39.321 70.2125L41.2119 74.2349C41.2586 74.3449 41.3636 74.4183 41.4687 74.4305L45.7057 75.0785C45.9859 75.1274 46.1026 75.482 45.8925 75.702L42.8343 78.8197C42.7526 78.9053 42.7176 79.0276 42.741 79.1498L43.4647 83.5757C43.5113 83.8692 43.2195 84.1015 42.9627 83.9548L39.1692 81.8641C39.0642 81.8029 38.9475 81.8029 38.8424 81.8641L35.0489 83.9548C34.7921 84.0893 34.5003 83.8692 34.547 83.5757L35.2707 79.1498C35.294 79.0276 35.2474 78.9175 35.1657 78.832L32.1075 75.6898C31.8974 75.482 32.0141 75.1152 32.2943 75.0663L36.5313 74.4183C36.648 74.4061 36.7414 74.3327 36.7881 74.2227L38.679 70.2002C38.8191 69.9313 39.1926 69.9313 39.321 70.2125Z" fill="#EAEAEA"/>
<path d="M55.321 70.2125L57.2119 74.2349C57.2586 74.3449 57.3636 74.4183 57.4687 74.4305L61.7057 75.0785C61.9859 75.1274 62.1026 75.482 61.8925 75.702L58.8343 78.8197C58.7526 78.9053 58.7176 79.0276 58.741 79.1498L59.4647 83.5757C59.5113 83.8692 59.2195 84.1015 58.9627 83.9548L55.1692 81.8641C55.0642 81.8029 54.9475 81.8029 54.8424 81.8641L51.0489 83.9548C50.7921 84.0893 50.5003 83.8692 50.547 83.5757L51.2707 79.1498C51.294 79.0276 51.2474 78.9175 51.1657 78.832L48.1075 75.6898C47.8974 75.482 48.0141 75.1152 48.2943 75.0663L52.5313 74.4183C52.648 74.4061 52.7414 74.3327 52.7881 74.2227L54.679 70.2002C54.8191 69.9313 55.1926 69.9313 55.321 70.2125Z" fill="#EAEAEA"/>
<path d="M71.321 70.2125L73.2119 74.2349C73.2586 74.3449 73.3636 74.4183 73.4687 74.4305L77.7057 75.0785C77.9859 75.1274 78.1026 75.482 77.8925 75.702L74.8344 78.8197C74.7526 78.9053 74.7176 79.0276 74.741 79.1498L75.4647 83.5757C75.5113 83.8692 75.2195 84.1015 74.9627 83.9548L71.1693 81.8641C71.0642 81.8029 70.9475 81.8029 70.8424 81.8641L67.0489 83.9548C66.7921 84.0893 66.5003 83.8692 66.547 83.5757L67.2707 79.1498C67.2941 79.0276 67.2474 78.9175 67.1656 78.832L64.1075 75.6898C63.8974 75.482 64.0141 75.1152 64.2943 75.0663L68.5313 74.4183C68.648 74.4061 68.7414 74.3327 68.7881 74.2227L70.679 70.2002C70.8191 69.9313 71.1926 69.9313 71.321 70.2125Z" fill="#EAEAEA"/>
</g>
<path id="Vector_7" d="M7.32099 70.2125L9.2119 74.2349C9.25859 74.3449 9.36364 74.4183 9.46869 74.4305L13.7057 75.0785C13.9859 75.1274 14.1026 75.482 13.8925 75.702L10.8343 78.8197C10.7526 78.9053 10.7176 79.0276 10.741 79.1498L11.4647 83.5757C11.5113 83.8692 11.2195 84.1015 10.9627 83.9548L7.16925 81.8641C7.0642 81.8029 6.94747 81.8029 6.84242 81.8641L3.04893 83.9548C2.79214 84.0893 2.50033 83.8692 2.54702 83.5757L3.2707 79.1498C3.29405 79.0276 3.24736 78.9175 3.16565 78.832L0.10751 75.6898C-0.102592 75.482 0.0141314 75.1152 0.294266 75.0663L4.53131 74.4183C4.64803 74.4061 4.74141 74.3327 4.7881 74.2227L6.67901 70.2002C6.81908 69.9313 7.19259 69.9313 7.32099 70.2125Z" fill="#FD9800"/>
<path id="Vector_8" d="M23.321 70.2125L25.2119 74.2349C25.2586 74.3449 25.3636 74.4183 25.4687 74.4305L29.7057 75.0785C29.9859 75.1274 30.1026 75.482 29.8925 75.702L26.8343 78.8197C26.7526 78.9053 26.7176 79.0276 26.741 79.1498L27.4647 83.5757C27.5113 83.8692 27.2195 84.1015 26.9627 83.9548L23.1692 81.8641C23.0642 81.8029 22.9475 81.8029 22.8424 81.8641L19.0489 83.9548C18.7921 84.0893 18.5003 83.8692 18.547 83.5757L19.2707 79.1498C19.294 79.0276 19.2474 78.9175 19.1657 78.832L16.1075 75.6898C15.8974 75.482 16.0141 75.1152 16.2943 75.0663L20.5313 74.4183C20.648 74.4061 20.7414 74.3327 20.7881 74.2227L22.679 70.2002C22.8191 69.9313 23.1926 69.9313 23.321 70.2125Z" fill="#FD9800"/>
<path id="Vector_9" d="M39.321 70.2125L41.2119 74.2349C41.2586 74.3449 41.3636 74.4183 41.4687 74.4305L45.7057 75.0785C45.9859 75.1274 46.1026 75.482 45.8925 75.702L42.8343 78.8197C42.7526 78.9053 42.7176 79.0276 42.741 79.1498L43.4647 83.5757C43.5113 83.8692 43.2195 84.1015 42.9627 83.9548L39.1692 81.8641C39.0642 81.8029 38.9475 81.8029 38.8424 81.8641L35.0489 83.9548C34.7921 84.0893 34.5003 83.8692 34.547 83.5757L35.2707 79.1498C35.294 79.0276 35.2474 78.9175 35.1657 78.832L32.1075 75.6898C31.8974 75.482 32.0141 75.1152 32.2943 75.0663L36.5313 74.4183C36.648 74.4061 36.7414 74.3327 36.7881 74.2227L38.679 70.2002C38.8191 69.9313 39.1926 69.9313 39.321 70.2125Z" fill="#FD9800"/>
<path id="Vector_10" d="M55.321 70.2125L57.2119 74.2349C57.2586 74.3449 57.3636 74.4183 57.4687 74.4305L61.7057 75.0785C61.9859 75.1274 62.1026 75.482 61.8925 75.702L58.8343 78.8197C58.7526 78.9053 58.7176 79.0276 58.741 79.1498L59.4647 83.5757C59.5113 83.8692 59.2195 84.1015 58.9627 83.9548L55.1692 81.8641C55.0642 81.8029 54.9475 81.8029 54.8424 81.8641L51.0489 83.9548C50.7921 84.0893 50.5003 83.8692 50.547 83.5757L51.2707 79.1498C51.294 79.0276 51.2474 78.9175 51.1657 78.832L48.1075 75.6898C47.8974 75.482 48.0141 75.1152 48.2943 75.0663L52.5313 74.4183C52.648 74.4061 52.7414 74.3327 52.7881 74.2227L54.679 70.2002C54.8191 69.9313 55.1926 69.9313 55.321 70.2125Z" fill="#FD9800"/>
<path id="Vector_11" d="M71.321 70.2125L73.2119 74.2349C73.2586 74.3449 73.3636 74.4183 73.4687 74.4305L77.7057 75.0785C77.9859 75.1274 78.1026 75.482 77.8925 75.702L74.8343 78.8197C74.7526 78.9053 74.7176 79.0276 74.741 79.1498L75.4647 83.5757C75.5113 83.8692 75.2195 84.1015 74.9627 83.9548L71.1692 81.8641C71.0642 81.8029 70.9475 81.8029 70.8424 81.8641L67.0489 83.9548C66.7921 84.0893 66.5003 83.8692 66.547 83.5757L67.2707 79.1498C67.294 79.0276 67.2474 78.9175 67.1657 78.832L64.1075 75.6898C63.8974 75.482 64.0141 75.1152 64.2943 75.0663L68.5313 74.4183C68.648 74.4061 68.7414 74.3327 68.7881 74.2227L70.679 70.2002C70.8191 69.9313 71.1926 69.9313 71.321 70.2125Z" fill="#FD9800"/>
</g>
<g id="icon_star_3">
<g id="Vector_12">
<path d="M7.32099 42.2125L9.2119 46.2349C9.25859 46.3449 9.36364 46.4183 9.46869 46.4305L13.7057 47.0785C13.9859 47.1274 14.1026 47.482 13.8925 47.702L10.8343 50.8197C10.7526 50.9053 10.7176 51.0276 10.741 51.1498L11.4647 55.5757C11.5113 55.8692 11.2195 56.1015 10.9627 55.9548L7.16925 53.8641C7.0642 53.8029 6.94747 53.8029 6.84242 53.8641L3.04893 55.9548C2.79214 56.0893 2.50033 55.8692 2.54702 55.5757L3.2707 51.1498C3.29405 51.0276 3.24736 50.9175 3.16565 50.832L0.10751 47.6898C-0.102592 47.482 0.0141314 47.1152 0.294266 47.0663L4.53131 46.4183C4.64803 46.4061 4.74141 46.3327 4.7881 46.2227L6.67901 42.2002C6.81908 41.9313 7.19259 41.9313 7.32099 42.2125Z" fill="#EAEAEA"/>
<path d="M23.321 42.2125L25.2119 46.2349C25.2586 46.3449 25.3636 46.4183 25.4687 46.4305L29.7057 47.0785C29.9859 47.1274 30.1026 47.482 29.8925 47.702L26.8343 50.8197C26.7526 50.9053 26.7176 51.0276 26.741 51.1498L27.4647 55.5757C27.5113 55.8692 27.2195 56.1015 26.9627 55.9548L23.1692 53.8641C23.0642 53.8029 22.9475 53.8029 22.8424 53.8641L19.0489 55.9548C18.7921 56.0893 18.5003 55.8692 18.547 55.5757L19.2707 51.1498C19.294 51.0276 19.2474 50.9175 19.1657 50.832L16.1075 47.6898C15.8974 47.482 16.0141 47.1152 16.2943 47.0663L20.5313 46.4183C20.648 46.4061 20.7414 46.3327 20.7881 46.2227L22.679 42.2002C22.8191 41.9313 23.1926 41.9313 23.321 42.2125Z" fill="#EAEAEA"/>
<path d="M39.321 42.2125L41.2119 46.2349C41.2586 46.3449 41.3636 46.4183 41.4687 46.4305L45.7057 47.0785C45.9859 47.1274 46.1026 47.482 45.8925 47.702L42.8343 50.8197C42.7526 50.9053 42.7176 51.0276 42.741 51.1498L43.4647 55.5757C43.5113 55.8692 43.2195 56.1015 42.9627 55.9548L39.1692 53.8641C39.0642 53.8029 38.9475 53.8029 38.8424 53.8641L35.0489 55.9548C34.7921 56.0893 34.5003 55.8692 34.547 55.5757L35.2707 51.1498C35.294 51.0276 35.2474 50.9175 35.1657 50.832L32.1075 47.6898C31.8974 47.482 32.0141 47.1152 32.2943 47.0663L36.5313 46.4183C36.648 46.4061 36.7414 46.3327 36.7881 46.2227L38.679 42.2002C38.8191 41.9313 39.1926 41.9313 39.321 42.2125Z" fill="#EAEAEA"/>
<path d="M55.321 42.2125L57.2119 46.2349C57.2586 46.3449 57.3636 46.4183 57.4687 46.4305L61.7057 47.0785C61.9859 47.1274 62.1026 47.482 61.8925 47.702L58.8343 50.8197C58.7526 50.9053 58.7176 51.0276 58.741 51.1498L59.4647 55.5757C59.5113 55.8692 59.2195 56.1015 58.9627 55.9548L55.1692 53.8641C55.0642 53.8029 54.9475 53.8029 54.8424 53.8641L51.0489 55.9548C50.7921 56.0893 50.5003 55.8692 50.547 55.5757L51.2707 51.1498C51.294 51.0276 51.2474 50.9175 51.1657 50.832L48.1075 47.6898C47.8974 47.482 48.0141 47.1152 48.2943 47.0663L52.5313 46.4183C52.648 46.4061 52.7414 46.3327 52.7881 46.2227L54.679 42.2002C54.8191 41.9313 55.1926 41.9313 55.321 42.2125Z" fill="#EAEAEA"/>
<path d="M71.321 42.2125L73.2119 46.2349C73.2586 46.3449 73.3636 46.4183 73.4687 46.4305L77.7057 47.0785C77.9859 47.1274 78.1026 47.482 77.8925 47.702L74.8344 50.8197C74.7526 50.9053 74.7176 51.0276 74.741 51.1498L75.4647 55.5757C75.5113 55.8692 75.2195 56.1015 74.9627 55.9548L71.1693 53.8641C71.0642 53.8029 70.9475 53.8029 70.8424 53.8641L67.0489 55.9548C66.7921 56.0893 66.5003 55.8692 66.547 55.5757L67.2707 51.1498C67.2941 51.0276 67.2474 50.9175 67.1656 50.832L64.1075 47.6898C63.8974 47.482 64.0141 47.1152 64.2943 47.0663L68.5313 46.4183C68.648 46.4061 68.7414 46.3327 68.7881 46.2227L70.679 42.2002C70.8191 41.9313 71.1926 41.9313 71.321 42.2125Z" fill="#EAEAEA"/>
</g>
<path id="Vector_13" d="M7.32099 42.2125L9.2119 46.2349C9.25859 46.3449 9.36364 46.4183 9.46869 46.4305L13.7057 47.0785C13.9859 47.1274 14.1026 47.482 13.8925 47.702L10.8343 50.8197C10.7526 50.9053 10.7176 51.0276 10.741 51.1498L11.4647 55.5757C11.5113 55.8692 11.2195 56.1015 10.9627 55.9548L7.16925 53.8641C7.0642 53.8029 6.94747 53.8029 6.84242 53.8641L3.04893 55.9548C2.79214 56.0893 2.50033 55.8692 2.54702 55.5757L3.2707 51.1498C3.29405 51.0276 3.24736 50.9175 3.16565 50.832L0.10751 47.6898C-0.102592 47.482 0.0141314 47.1152 0.294266 47.0663L4.53131 46.4183C4.64803 46.4061 4.74141 46.3327 4.7881 46.2227L6.67901 42.2002C6.81908 41.9313 7.19259 41.9313 7.32099 42.2125Z" fill="#FD9800"/>
<path id="Vector_14" d="M23.321 42.2125L25.2119 46.2349C25.2586 46.3449 25.3636 46.4183 25.4687 46.4305L29.7057 47.0785C29.9859 47.1274 30.1026 47.482 29.8925 47.702L26.8343 50.8197C26.7526 50.9053 26.7176 51.0276 26.741 51.1498L27.4647 55.5757C27.5113 55.8692 27.2195 56.1015 26.9627 55.9548L23.1692 53.8641C23.0642 53.8029 22.9475 53.8029 22.8424 53.8641L19.0489 55.9548C18.7921 56.0893 18.5003 55.8692 18.547 55.5757L19.2707 51.1498C19.294 51.0276 19.2474 50.9175 19.1657 50.832L16.1075 47.6898C15.8974 47.482 16.0141 47.1152 16.2943 47.0663L20.5313 46.4183C20.648 46.4061 20.7414 46.3327 20.7881 46.2227L22.679 42.2002C22.8191 41.9313 23.1926 41.9313 23.321 42.2125Z" fill="#FD9800"/>
<path id="Vector_15" d="M39.321 42.2125L41.2119 46.2349C41.2586 46.3449 41.3636 46.4183 41.4687 46.4305L45.7057 47.0785C45.9859 47.1274 46.1026 47.482 45.8925 47.702L42.8343 50.8197C42.7526 50.9053 42.7176 51.0276 42.741 51.1498L43.4647 55.5757C43.5113 55.8692 43.2195 56.1015 42.9627 55.9548L39.1692 53.8641C39.0642 53.8029 38.9475 53.8029 38.8424 53.8641L35.0489 55.9548C34.7921 56.0893 34.5003 55.8692 34.547 55.5757L35.2707 51.1498C35.294 51.0276 35.2474 50.9175 35.1657 50.832L32.1075 47.6898C31.8974 47.482 32.0141 47.1152 32.2943 47.0663L36.5313 46.4183C36.648 46.4061 36.7414 46.3327 36.7881 46.2227L38.679 42.2002C38.8191 41.9313 39.1926 41.9313 39.321 42.2125Z" fill="#FD9800"/>
</g>
<g id="icon_star_4">
<g id="Vector_16">
<path d="M7.32099 28.2125L9.2119 32.2349C9.25859 32.3449 9.36364 32.4183 9.46869 32.4305L13.7057 33.0785C13.9859 33.1274 14.1026 33.482 13.8925 33.702L10.8343 36.8197C10.7526 36.9053 10.7176 37.0276 10.741 37.1498L11.4647 41.5757C11.5113 41.8692 11.2195 42.1015 10.9627 41.9548L7.16925 39.8641C7.0642 39.8029 6.94747 39.8029 6.84242 39.8641L3.04893 41.9548C2.79214 42.0893 2.50033 41.8692 2.54702 41.5757L3.2707 37.1498C3.29405 37.0276 3.24736 36.9175 3.16565 36.832L0.10751 33.6898C-0.102592 33.482 0.0141314 33.1152 0.294266 33.0663L4.53131 32.4183C4.64803 32.4061 4.74141 32.3327 4.7881 32.2227L6.67901 28.2002C6.81908 27.9313 7.19259 27.9313 7.32099 28.2125Z" fill="#EAEAEA"/>
<path d="M23.321 28.2125L25.2119 32.2349C25.2586 32.3449 25.3636 32.4183 25.4687 32.4305L29.7057 33.0785C29.9859 33.1274 30.1026 33.482 29.8925 33.702L26.8343 36.8197C26.7526 36.9053 26.7176 37.0276 26.741 37.1498L27.4647 41.5757C27.5113 41.8692 27.2195 42.1015 26.9627 41.9548L23.1692 39.8641C23.0642 39.8029 22.9475 39.8029 22.8424 39.8641L19.0489 41.9548C18.7921 42.0893 18.5003 41.8692 18.547 41.5757L19.2707 37.1498C19.294 37.0276 19.2474 36.9175 19.1657 36.832L16.1075 33.6898C15.8974 33.482 16.0141 33.1152 16.2943 33.0663L20.5313 32.4183C20.648 32.4061 20.7414 32.3327 20.7881 32.2227L22.679 28.2002C22.8191 27.9313 23.1926 27.9313 23.321 28.2125Z" fill="#EAEAEA"/>
<path d="M39.321 28.2125L41.2119 32.2349C41.2586 32.3449 41.3636 32.4183 41.4687 32.4305L45.7057 33.0785C45.9859 33.1274 46.1026 33.482 45.8925 33.702L42.8343 36.8197C42.7526 36.9053 42.7176 37.0276 42.741 37.1498L43.4647 41.5757C43.5113 41.8692 43.2195 42.1015 42.9627 41.9548L39.1692 39.8641C39.0642 39.8029 38.9475 39.8029 38.8424 39.8641L35.0489 41.9548C34.7921 42.0893 34.5003 41.8692 34.547 41.5757L35.2707 37.1498C35.294 37.0276 35.2474 36.9175 35.1657 36.832L32.1075 33.6898C31.8974 33.482 32.0141 33.1152 32.2943 33.0663L36.5313 32.4183C36.648 32.4061 36.7414 32.3327 36.7881 32.2227L38.679 28.2002C38.8191 27.9313 39.1926 27.9313 39.321 28.2125Z" fill="#EAEAEA"/>
<path d="M55.321 28.2125L57.2119 32.2349C57.2586 32.3449 57.3636 32.4183 57.4687 32.4305L61.7057 33.0785C61.9859 33.1274 62.1026 33.482 61.8925 33.702L58.8343 36.8197C58.7526 36.9053 58.7176 37.0276 58.741 37.1498L59.4647 41.5757C59.5113 41.8692 59.2195 42.1015 58.9627 41.9548L55.1692 39.8641C55.0642 39.8029 54.9475 39.8029 54.8424 39.8641L51.0489 41.9548C50.7921 42.0893 50.5003 41.8692 50.547 41.5757L51.2707 37.1498C51.294 37.0276 51.2474 36.9175 51.1657 36.832L48.1075 33.6898C47.8974 33.482 48.0141 33.1152 48.2943 33.0663L52.5313 32.4183C52.648 32.4061 52.7414 32.3327 52.7881 32.2227L54.679 28.2002C54.8191 27.9313 55.1926 27.9313 55.321 28.2125Z" fill="#EAEAEA"/>
<path d="M71.321 28.2125L73.2119 32.2349C73.2586 32.3449 73.3636 32.4183 73.4687 32.4305L77.7057 33.0785C77.9859 33.1274 78.1026 33.482 77.8925 33.702L74.8344 36.8197C74.7526 36.9053 74.7176 37.0276 74.741 37.1498L75.4647 41.5757C75.5113 41.8692 75.2195 42.1015 74.9627 41.9548L71.1693 39.8641C71.0642 39.8029 70.9475 39.8029 70.8424 39.8641L67.0489 41.9548C66.7921 42.0893 66.5003 41.8692 66.547 41.5757L67.2707 37.1498C67.2941 37.0276 67.2474 36.9175 67.1656 36.832L64.1075 33.6898C63.8974 33.482 64.0141 33.1152 64.2943 33.0663L68.5313 32.4183C68.648 32.4061 68.7414 32.3327 68.7881 32.2227L70.679 28.2002C70.8191 27.9313 71.1926 27.9313 71.321 28.2125Z" fill="#EAEAEA"/>
</g>
<path id="Vector_17" d="M7.32099 28.2125L9.2119 32.2349C9.25859 32.3449 9.36364 32.4183 9.46869 32.4305L13.7057 33.0785C13.9859 33.1274 14.1026 33.482 13.8925 33.702L10.8343 36.8197C10.7526 36.9053 10.7176 37.0276 10.741 37.1498L11.4647 41.5757C11.5113 41.8692 11.2195 42.1015 10.9627 41.9548L7.16925 39.8641C7.0642 39.8029 6.94747 39.8029 6.84242 39.8641L3.04893 41.9548C2.79214 42.0893 2.50033 41.8692 2.54702 41.5757L3.2707 37.1498C3.29405 37.0276 3.24736 36.9175 3.16565 36.832L0.10751 33.6898C-0.102592 33.482 0.0141314 33.1152 0.294266 33.0663L4.53131 32.4183C4.64803 32.4061 4.74141 32.3327 4.7881 32.2227L6.67901 28.2002C6.81908 27.9313 7.19259 27.9313 7.32099 28.2125Z" fill="#FD9800"/>
<path id="Vector_18" d="M23.321 28.2125L25.2119 32.2349C25.2586 32.3449 25.3636 32.4183 25.4687 32.4305L29.7057 33.0785C29.9859 33.1274 30.1026 33.482 29.8925 33.702L26.8343 36.8197C26.7526 36.9053 26.7176 37.0276 26.741 37.1498L27.4647 41.5757C27.5113 41.8692 27.2195 42.1015 26.9627 41.9548L23.1692 39.8641C23.0642 39.8029 22.9475 39.8029 22.8424 39.8641L19.0489 41.9548C18.7921 42.0893 18.5003 41.8692 18.547 41.5757L19.2707 37.1498C19.294 37.0276 19.2474 36.9175 19.1657 36.832L16.1075 33.6898C15.8974 33.482 16.0141 33.1152 16.2943 33.0663L20.5313 32.4183C20.648 32.4061 20.7414 32.3327 20.7881 32.2227L22.679 28.2002C22.8191 27.9313 23.1926 27.9313 23.321 28.2125Z" fill="#FD9800"/>
</g>
<g id="icon_star_5">
<g id="Vector_19">
<path d="M7.32099 14.2125L9.2119 18.2349C9.25859 18.3449 9.36364 18.4183 9.46869 18.4305L13.7057 19.0785C13.9859 19.1274 14.1026 19.482 13.8925 19.702L10.8343 22.8197C10.7526 22.9053 10.7176 23.0276 10.741 23.1498L11.4647 27.5757C11.5113 27.8692 11.2195 28.1015 10.9627 27.9548L7.16925 25.8641C7.0642 25.8029 6.94747 25.8029 6.84242 25.8641L3.04893 27.9548C2.79214 28.0893 2.50033 27.8692 2.54702 27.5757L3.2707 23.1498C3.29405 23.0276 3.24736 22.9175 3.16565 22.832L0.10751 19.6898C-0.102592 19.482 0.0141314 19.1152 0.294266 19.0663L4.53131 18.4183C4.64803 18.4061 4.74141 18.3327 4.7881 18.2227L6.67901 14.2002C6.81908 13.9313 7.19259 13.9313 7.32099 14.2125Z" fill="#EAEAEA"/>
<path d="M23.321 14.2125L25.2119 18.2349C25.2586 18.3449 25.3636 18.4183 25.4687 18.4305L29.7057 19.0785C29.9859 19.1274 30.1026 19.482 29.8925 19.702L26.8343 22.8197C26.7526 22.9053 26.7176 23.0276 26.741 23.1498L27.4647 27.5757C27.5113 27.8692 27.2195 28.1015 26.9627 27.9548L23.1692 25.8641C23.0642 25.8029 22.9475 25.8029 22.8424 25.8641L19.0489 27.9548C18.7921 28.0893 18.5003 27.8692 18.547 27.5757L19.2707 23.1498C19.294 23.0276 19.2474 22.9175 19.1657 22.832L16.1075 19.6898C15.8974 19.482 16.0141 19.1152 16.2943 19.0663L20.5313 18.4183C20.648 18.4061 20.7414 18.3327 20.7881 18.2227L22.679 14.2002C22.8191 13.9313 23.1926 13.9313 23.321 14.2125Z" fill="#EAEAEA"/>
<path d="M39.321 14.2125L41.2119 18.2349C41.2586 18.3449 41.3636 18.4183 41.4687 18.4305L45.7057 19.0785C45.9859 19.1274 46.1026 19.482 45.8925 19.702L42.8343 22.8197C42.7526 22.9053 42.7176 23.0276 42.741 23.1498L43.4647 27.5757C43.5113 27.8692 43.2195 28.1015 42.9627 27.9548L39.1692 25.8641C39.0642 25.8029 38.9475 25.8029 38.8424 25.8641L35.0489 27.9548C34.7921 28.0893 34.5003 27.8692 34.547 27.5757L35.2707 23.1498C35.294 23.0276 35.2474 22.9175 35.1657 22.832L32.1075 19.6898C31.8974 19.482 32.0141 19.1152 32.2943 19.0663L36.5313 18.4183C36.648 18.4061 36.7414 18.3327 36.7881 18.2227L38.679 14.2002C38.8191 13.9313 39.1926 13.9313 39.321 14.2125Z" fill="#EAEAEA"/>
<path d="M55.321 14.2125L57.2119 18.2349C57.2586 18.3449 57.3636 18.4183 57.4687 18.4305L61.7057 19.0785C61.9859 19.1274 62.1026 19.482 61.8925 19.702L58.8343 22.8197C58.7526 22.9053 58.7176 23.0276 58.741 23.1498L59.4647 27.5757C59.5113 27.8692 59.2195 28.1015 58.9627 27.9548L55.1692 25.8641C55.0642 25.8029 54.9475 25.8029 54.8424 25.8641L51.0489 27.9548C50.7921 28.0893 50.5003 27.8692 50.547 27.5757L51.2707 23.1498C51.294 23.0276 51.2474 22.9175 51.1657 22.832L48.1075 19.6898C47.8974 19.482 48.0141 19.1152 48.2943 19.0663L52.5313 18.4183C52.648 18.4061 52.7414 18.3327 52.7881 18.2227L54.679 14.2002C54.8191 13.9313 55.1926 13.9313 55.321 14.2125Z" fill="#EAEAEA"/>
<path d="M71.321 14.2125L73.2119 18.2349C73.2586 18.3449 73.3636 18.4183 73.4687 18.4305L77.7057 19.0785C77.9859 19.1274 78.1026 19.482 77.8925 19.702L74.8344 22.8197C74.7526 22.9053 74.7176 23.0276 74.741 23.1498L75.4647 27.5757C75.5113 27.8692 75.2195 28.1015 74.9627 27.9548L71.1693 25.8641C71.0642 25.8029 70.9475 25.8029 70.8424 25.8641L67.0489 27.9548C66.7921 28.0893 66.5003 27.8692 66.547 27.5757L67.2707 23.1498C67.2941 23.0276 67.2474 22.9175 67.1656 22.832L64.1075 19.6898C63.8974 19.482 64.0141 19.1152 64.2943 19.0663L68.5313 18.4183C68.648 18.4061 68.7414 18.3327 68.7881 18.2227L70.679 14.2002C70.8191 13.9313 71.1926 13.9313 71.321 14.2125Z" fill="#EAEAEA"/>
</g>
<path id="Vector_20" d="M7.32099 14.2125L9.2119 18.2349C9.25859 18.3449 9.36364 18.4183 9.46869 18.4305L13.7057 19.0785C13.9859 19.1274 14.1026 19.482 13.8925 19.702L10.8343 22.8197C10.7526 22.9053 10.7176 23.0276 10.741 23.1498L11.4647 27.5757C11.5113 27.8692 11.2195 28.1015 10.9627 27.9548L7.16925 25.8641C7.0642 25.8029 6.94747 25.8029 6.84242 25.8641L3.04893 27.9548C2.79214 28.0893 2.50033 27.8692 2.54702 27.5757L3.2707 23.1498C3.29405 23.0276 3.24736 22.9175 3.16565 22.832L0.10751 19.6898C-0.102592 19.482 0.0141314 19.1152 0.294266 19.0663L4.53131 18.4183C4.64803 18.4061 4.74141 18.3327 4.7881 18.2227L6.67901 14.2002C6.81908 13.9313 7.19259 13.9313 7.32099 14.2125Z" fill="#FD9800"/>
</g>
<g id="icon_star_6">
<g id="Vector_21">
<path d="M7.32099 0.212457L9.2119 4.23489C9.25859 4.34493 9.36364 4.41829 9.46869 4.43051L13.7057 5.07851C13.9859 5.12741 14.1026 5.48197 13.8925 5.70204L10.8343 8.81974C10.7526 8.90532 10.7176 9.02758 10.741 9.14985L11.4647 13.5757C11.5113 13.8692 11.2195 14.1015 10.9627 13.9548L7.16925 11.8641C7.0642 11.8029 6.94747 11.8029 6.84242 11.8641L3.04893 13.9548C2.79214 14.0893 2.50033 13.8692 2.54702 13.5757L3.2707 9.14985C3.29405 9.02758 3.24736 8.91755 3.16565 8.83196L0.10751 5.68982C-0.102592 5.48197 0.0141314 5.11518 0.294266 5.06628L4.53131 4.41829C4.64803 4.40606 4.74141 4.3327 4.7881 4.22267L6.67901 0.20023C6.81908 -0.0687472 7.19259 -0.0687472 7.32099 0.212457Z" fill="#EAEAEA"/>
<path d="M23.321 0.212457L25.2119 4.23489C25.2586 4.34493 25.3636 4.41829 25.4687 4.43051L29.7057 5.07851C29.9859 5.12741 30.1026 5.48197 29.8925 5.70204L26.8343 8.81974C26.7526 8.90532 26.7176 9.02758 26.741 9.14985L27.4647 13.5757C27.5113 13.8692 27.2195 14.1015 26.9627 13.9548L23.1692 11.8641C23.0642 11.8029 22.9475 11.8029 22.8424 11.8641L19.0489 13.9548C18.7921 14.0893 18.5003 13.8692 18.547 13.5757L19.2707 9.14985C19.294 9.02758 19.2474 8.91755 19.1657 8.83196L16.1075 5.68982C15.8974 5.48197 16.0141 5.11518 16.2943 5.06628L20.5313 4.41829C20.648 4.40606 20.7414 4.3327 20.7881 4.22267L22.679 0.20023C22.8191 -0.0687472 23.1926 -0.0687472 23.321 0.212457Z" fill="#EAEAEA"/>
<path d="M39.321 0.212457L41.2119 4.23489C41.2586 4.34493 41.3636 4.41829 41.4687 4.43051L45.7057 5.07851C45.9859 5.12741 46.1026 5.48197 45.8925 5.70204L42.8343 8.81974C42.7526 8.90532 42.7176 9.02758 42.741 9.14985L43.4647 13.5757C43.5113 13.8692 43.2195 14.1015 42.9627 13.9548L39.1692 11.8641C39.0642 11.8029 38.9475 11.8029 38.8424 11.8641L35.0489 13.9548C34.7921 14.0893 34.5003 13.8692 34.547 13.5757L35.2707 9.14985C35.294 9.02758 35.2474 8.91755 35.1657 8.83196L32.1075 5.68982C31.8974 5.48197 32.0141 5.11518 32.2943 5.06628L36.5313 4.41829C36.648 4.40606 36.7414 4.3327 36.7881 4.22267L38.679 0.20023C38.8191 -0.0687472 39.1926 -0.0687472 39.321 0.212457Z" fill="#EAEAEA"/>
<path d="M55.321 0.212457L57.2119 4.23489C57.2586 4.34493 57.3636 4.41829 57.4687 4.43051L61.7057 5.07851C61.9859 5.12741 62.1026 5.48197 61.8925 5.70204L58.8343 8.81974C58.7526 8.90532 58.7176 9.02758 58.741 9.14985L59.4647 13.5757C59.5113 13.8692 59.2195 14.1015 58.9627 13.9548L55.1692 11.8641C55.0642 11.8029 54.9475 11.8029 54.8424 11.8641L51.0489 13.9548C50.7921 14.0893 50.5003 13.8692 50.547 13.5757L51.2707 9.14985C51.294 9.02758 51.2474 8.91755 51.1657 8.83196L48.1075 5.68982C47.8974 5.48197 48.0141 5.11518 48.2943 5.06628L52.5313 4.41829C52.648 4.40606 52.7414 4.3327 52.7881 4.22267L54.679 0.20023C54.8191 -0.0687472 55.1926 -0.0687472 55.321 0.212457Z" fill="#EAEAEA"/>
<path d="M71.321 0.212457L73.2119 4.23489C73.2586 4.34493 73.3636 4.41829 73.4687 4.43051L77.7057 5.07851C77.9859 5.12741 78.1026 5.48197 77.8925 5.70204L74.8344 8.81974C74.7526 8.90532 74.7176 9.02758 74.741 9.14985L75.4647 13.5757C75.5113 13.8692 75.2195 14.1015 74.9627 13.9548L71.1693 11.8641C71.0642 11.8029 70.9475 11.8029 70.8424 11.8641L67.0489 13.9548C66.7921 14.0893 66.5003 13.8692 66.547 13.5757L67.2707 9.14985C67.2941 9.02758 67.2474 8.91755 67.1656 8.83196L64.1075 5.68982C63.8974 5.48197 64.0141 5.11518 64.2943 5.06628L68.5313 4.41829C68.648 4.40606 68.7414 4.3327 68.7881 4.22267L70.679 0.20023C70.8191 -0.0687472 71.1926 -0.0687472 71.321 0.212457Z" fill="#EAEAEA"/>
</g>
</g>
</g>
</svg>
