<svg width="24" height="24" viewBox="0 0 24 24" fill="none" xmlns="http://www.w3.org/2000/svg">
<g id="badge_comment">
<path id="Ellipse 2" d="M23.5 12C23.5 18.3513 18.3513 23.5 12 23.5C5.64873 23.5 0.5 18.3513 0.5 12C0.5 5.64873 5.64873 0.5 12 0.5C18.3513 0.5 23.5 5.64873 23.5 12Z" fill="white" stroke="#D7D7D7"/>
<path id="Vector (Stroke)" fill-rule="evenodd" clip-rule="evenodd" d="M5 11C5 8.23858 7.23858 6 10 6H14C16.7614 6 19 8.23858 19 11C19 13.7614 16.7614 16 14 16H13.7071L11.8536 17.8916C11.7106 18.0346 11.4955 18.0774 11.3087 18C11.1218 17.9226 11 17.7403 11 17.5381V16H10C7.23858 16 5 13.7614 5 11ZM10 7C7.79086 7 6 8.79086 6 11C6 13.2091 7.79086 15 10 15H11.5C11.7761 15 12 15.2239 12 15.5V16.5L13.1464 15.1464C13.2402 15.0527 13.3674 15 13.5 15H14C16.2091 15 18 13.2091 18 11C18 8.79086 16.2091 7 14 7H10Z" fill="#212121"/>
</g>
</svg>
