<svg width="24" height="24" viewBox="0 0 24 24" fill="none" xmlns="http://www.w3.org/2000/svg">
<g id="Bt_more">
<path id="Intersect" d="M19.0739 22.8297C20.8004 22.1273 22.1925 20.7399 22.8978 19.0146C23.7476 16.9357 24 14.5295 24 11.9651C24 9.40072 23.7476 6.99453 22.8978 4.91561C22.1925 3.19035 20.8004 1.80293 19.0739 1.10054C16.9881 0.251938 14.5735 0 12 0C9.42652 0 7.01189 0.251938 4.92606 1.10054C3.19963 1.80293 1.80746 3.19035 1.10221 4.91561C0.252394 6.99453 0 9.40072 0 11.9651C0 14.5295 0.252394 16.9357 1.10221 19.0146C1.80746 20.7399 3.19963 22.1273 4.92606 22.8297C7.01189 23.6783 9.42652 23.9302 12 23.9302C14.5735 23.9302 16.9881 23.6783 19.0739 22.8297Z" fill="#1D4ED8"/>
<g id="Vector">
<path fill-rule="evenodd" clip-rule="evenodd" d="M17.9998 12C17.9998 12.5523 17.589 13 17.0823 13H6.91723C6.41052 13 5.99976 12.5523 5.99976 12C5.99976 11.4477 6.41052 11 6.91723 11L17.0823 11C17.589 11 17.9998 11.4477 17.9998 12Z" fill="white"/>
<path fill-rule="evenodd" clip-rule="evenodd" d="M11.9998 18C11.4475 18 10.9998 17.5892 10.9998 17.0825L10.9998 6.91747C10.9998 6.41077 11.4475 6 11.9998 6C12.552 6 12.9998 6.41077 12.9998 6.91747L12.9998 17.0825C12.9998 17.5892 12.552 18 11.9998 18Z" fill="white"/>
</g>
</g>
</svg>
