<svg width="40" height="40" viewBox="0 0 40 40" fill="none" xmlns="http://www.w3.org/2000/svg">
<g id="Arrow">
<g id="Intersect" filter="url(#filter0_d_5865_11444)">
<path d="M9.23443 12.3408C9.77128 8.70516 12.705 5.77127 16.3406 5.23443C17.4892 5.06483 18.7136 5 20 5C21.2863 5 22.5108 5.06483 23.6594 5.23443C27.2949 5.77127 30.2287 8.70516 30.7656 12.3408C30.9352 13.4893 31 14.7137 31 16C31 17.2863 30.9352 18.5107 30.7656 19.6592C30.2287 23.2948 27.2949 26.2287 23.6594 26.7656C22.5108 26.9352 21.2863 27 20 27C18.7136 27 17.4892 26.9352 16.3406 26.7656C12.705 26.2287 9.77128 23.2948 9.23443 19.6592C9.06483 18.5107 9 17.2863 9 16C9 14.7137 9.06483 13.4893 9.23443 12.3408Z" stroke="white" stroke-width="2"/>
</g>
<path id="Vector 1 (Stroke)" fill-rule="evenodd" clip-rule="evenodd" d="M17.1757 21.2242C16.9414 20.9899 16.9414 20.61 17.1757 20.3756L21.5515 15.9999L17.1757 11.6242C16.9414 11.3899 16.9414 11.01 17.1757 10.7756C17.41 10.5413 17.7899 10.5413 18.0243 10.7756L22.8243 15.5756C23.0586 15.81 23.0586 16.1899 22.8243 16.4242L18.0243 21.2242C17.7899 21.4585 17.4101 21.4585 17.1757 21.2242Z" fill="white"/>
</g>
<defs>
<filter id="filter0_d_5865_11444" x="0" y="0" width="40" height="40" filterUnits="userSpaceOnUse" color-interpolation-filters="sRGB">
<feFlood flood-opacity="0" result="BackgroundImageFix"/>
<feColorMatrix in="SourceAlpha" type="matrix" values="0 0 0 0 0 0 0 0 0 0 0 0 0 0 0 0 0 0 127 0" result="hardAlpha"/>
<feOffset dy="4"/>
<feGaussianBlur stdDeviation="4"/>
<feColorMatrix type="matrix" values="0 0 0 0 0 0 0 0 0 0 0 0 0 0 0 0 0 0 0.1 0"/>
<feBlend mode="normal" in2="BackgroundImageFix" result="effect1_dropShadow_5865_11444"/>
<feBlend mode="normal" in="SourceGraphic" in2="effect1_dropShadow_5865_11444" result="shape"/>
</filter>
</defs>
</svg>
