<svg width="16" height="16" viewBox="0 0 16 16" fill="none" xmlns="http://www.w3.org/2000/svg">
<g id="icon/write" clip-path="url(#clip0_11259_6939)">
<path id="Union" fill-rule="evenodd" clip-rule="evenodd" d="M11.2929 0.292893C11.6834 -0.0976311 12.3166 -0.0976311 12.7071 0.292893L15.7071 3.29289C16.0977 3.68342 16.0977 4.31658 15.7071 4.70711L5.70713 14.7071C5.57897 14.8353 5.41839 14.9262 5.24256 14.9701L1.24256 15.9701C0.901782 16.0553 0.541295 15.9555 0.292914 15.7071C0.0445341 15.4587 -0.055315 15.0982 0.0298787 14.7575L1.02988 10.7575C1.07384 10.5816 1.16476 10.4211 1.29291 10.2929L11.2929 0.292893ZM2.90299 11.5112L2.37439 13.6256L4.48877 13.097L10.5858 7.00001L9.00001 5.41422L2.90299 11.5112ZM13.5858 4L12 5.5858L10.4142 4.00001L12 2.41421L13.5858 4ZM9 14C8.44771 14 8 14.4477 8 15C8 15.5523 8.44771 16 9 16H15C15.5523 16 16 15.5523 16 15C16 14.4477 15.5523 14 15 14H9Z" fill="white"/>
</g>
<defs>
<clipPath id="clip0_11259_6939">
<rect width="16" height="16" fill="white"/>
</clipPath>
</defs>
</svg>
