<svg width="24" height="24" viewBox="0 0 24 24" fill="none" xmlns="http://www.w3.org/2000/svg">
<g id="Arrow">
<path id="Intersect" d="M22.7656 15.6592C22.2287 19.2948 19.295 22.2287 15.6594 22.7656C14.5108 22.9352 13.2864 23 12 23C10.7136 23 9.48921 22.9352 8.34064 22.7656C4.70505 22.2287 1.77128 19.2948 1.23443 15.6592C1.06483 14.5107 1 13.2863 1 12C1 10.7137 1.06483 9.48932 1.23443 8.34079C1.77128 4.70516 4.70505 1.77127 8.34064 1.23443C9.48921 1.06483 10.7137 1 12 1C13.2864 1 14.5108 1.06483 15.6594 1.23443C19.295 1.77127 22.2287 4.70516 22.7656 8.34079C22.9352 9.48932 23 10.7137 23 12C23 13.2863 22.9352 14.5107 22.7656 15.6592Z" stroke="white" stroke-width="2"/>
<path id="Vector 1 (Stroke)" fill-rule="evenodd" clip-rule="evenodd" d="M14.8243 6.77583C15.0586 7.01015 15.0586 7.39005 14.8243 7.62436L10.4485 12.0001L14.8243 16.3758C15.0586 16.6102 15.0586 16.99 14.8243 17.2244C14.5899 17.4587 14.2101 17.4587 13.9757 17.2244L9.17574 12.4244C8.94142 12.19 8.94142 11.8101 9.17574 11.5758L13.9757 6.77583C14.2101 6.54152 14.5899 6.54152 14.8243 6.77583Z" fill="white"/>
</g>
</svg>
