<svg width="16" height="16" viewBox="0 0 16 16" fill="none" xmlns="http://www.w3.org/2000/svg">
<g id="icon_search">
<g id="Vector">
<path fill-rule="evenodd" clip-rule="evenodd" d="M3.32912 9.26697C4.96881 10.9067 7.62728 10.9067 9.26697 9.26697C10.9067 7.62728 10.9067 4.96881 9.26697 3.32912C7.62728 1.68942 4.96881 1.68942 3.32912 3.32912C1.68942 4.96881 1.68942 7.62728 3.32912 9.26697ZM1.84465 10.7514C4.30419 13.211 8.29189 13.211 10.7514 10.7514C13.211 8.29189 13.211 4.30419 10.7514 1.84465C8.29189 -0.614885 4.30419 -0.614885 1.84465 1.84465C-0.614884 4.30419 -0.614885 8.29189 1.84465 10.7514Z" fill="#1D4ED8"/>
<path fill-rule="evenodd" clip-rule="evenodd" d="M15.6926 15.6926C15.2826 16.1025 14.618 16.1025 14.2081 15.6926L8.5247 10.0092L10.0092 8.5247L15.6926 14.2081C16.1025 14.618 16.1025 15.2826 15.6926 15.6926Z" fill="#1D4ED8"/>
</g>
</g>
</svg>
