<svg width="16" height="16" viewBox="0 0 16 16" fill="none" xmlns="http://www.w3.org/2000/svg">
<g id="icon_study" clip-path="url(#clip0_11259_7295)">
<path id="Vector (Stroke)" fill-rule="evenodd" clip-rule="evenodd" d="M4 2.00049C3.44772 2.00049 3 2.4482 3 3.00049V10.1712C3.31278 10.0606 3.64936 10.0005 4 10.0005H13V2.00049H4ZM15 1.00049C15 0.448204 14.5523 0.000488281 14 0.000488281H4C2.34315 0.000488281 1 1.34363 1 3.00049V13.0005C1 14.6573 2.34315 16.0005 4 16.0005H14C14.5523 16.0005 15 15.5528 15 15.0005V1.00049ZM3 13.0005C3 13.5528 3.44772 14.0005 4 14.0005H13V12.0005H4C3.44772 12.0005 3 12.4482 3 13.0005ZM5 5.00049C5 4.4482 5.44772 4.00049 6 4.00049H10C10.5523 4.00049 11 4.4482 11 5.00049C11 5.55277 10.5523 6.00049 10 6.00049H6C5.44772 6.00049 5 5.55277 5 5.00049Z" fill="white"/>
</g>
<defs>
<clipPath id="clip0_11259_7295">
<rect width="16" height="16" fill="white" transform="translate(0 0.000488281)"/>
</clipPath>
</defs>
</svg>
