<svg width="16" height="16" viewBox="0 0 16 16" fill="none" xmlns="http://www.w3.org/2000/svg">
<g id="icon_menu">
<g id="Vector">
<path d="M16 15C16 15.5523 15.5523 16 15 16L1 16C0.447715 16 -3.91405e-08 15.5523 -8.74228e-08 15C-1.35705e-07 14.4477 0.447715 14 1 14L15 14C15.5523 14 16 14.4477 16 15Z" fill="#1D4ED8"/>
<path d="M10 8C10 8.55229 9.55228 9 9 9L0.999999 9C0.447715 9 -6.511e-07 8.55229 -6.99382e-07 8C-7.47665e-07 7.44772 0.447714 7 0.999999 7L9 7C9.55228 7 10 7.44772 10 8Z" fill="#1D4ED8"/>
<path d="M16 1C16 1.55229 15.5523 2 15 2L0.999999 2C0.447714 2 -1.26306e-06 1.55229 -1.31134e-06 1C-1.35962e-06 0.447716 0.447713 1.35962e-06 0.999999 1.31134e-06L15 8.74228e-08C15.5523 3.91405e-08 16 0.447715 16 1Z" fill="#1D4ED8"/>
</g>
</g>
</svg>
