<svg width="17" height="16" viewBox="0 0 17 16" fill="none" xmlns="http://www.w3.org/2000/svg">
<g id="icon/attatch">
<path id="Vector (Stroke)" fill-rule="evenodd" clip-rule="evenodd" d="M11.6661 2.59135C10.8844 1.80288 9.62067 1.80288 8.83898 2.59135L3.52966 7.94669C2.15678 9.33148 2.15678 11.5802 3.52967 12.965C4.89781 14.345 7.11239 14.345 8.48054 12.965L13.7898 7.60966C14.1787 7.21745 14.8118 7.21472 15.204 7.60356C15.5963 7.99239 15.599 8.62555 15.2102 9.01776L9.90084 14.3731C7.75028 16.5423 4.25992 16.5423 2.10936 14.3731C-0.0364529 12.2087 -0.0364549 8.70301 2.10936 6.53859L7.41867 1.18325C8.98279 -0.394418 11.5223 -0.394418 13.0864 1.18325C14.6458 2.75614 14.6458 5.30274 13.0864 6.87562L7.77712 12.231C6.79945 13.2171 5.21075 13.2171 4.23309 12.231C3.26017 11.2496 3.26017 9.66208 4.23309 8.68073L8.12658 4.75348C8.51542 4.36127 9.14858 4.35854 9.54078 4.74738C9.93299 5.13621 9.93572 5.76937 9.54689 6.16158L5.65339 10.0888C5.4534 10.2905 5.4534 10.6211 5.65339 10.8229C5.84863 11.0198 6.16157 11.0198 6.35681 10.8229L11.6661 5.46752C12.4526 4.67427 12.4526 3.3846 11.6661 2.59135Z" fill="#4B4B4B"/>
</g>
</svg>
