<svg width="24" height="24" viewBox="0 0 24 24" fill="none" xmlns="http://www.w3.org/2000/svg">
<g id="badge_view">
<path id="Ellipse 3" d="M23.5 12C23.5 18.3513 18.3513 23.5 12 23.5C5.64873 23.5 0.5 18.3513 0.5 12C0.5 5.64873 5.64873 0.5 12 0.5C18.3513 0.5 23.5 5.64873 23.5 12Z" fill="white" stroke="#D7D7D7"/>
<g id="Vector">
<path fill-rule="evenodd" clip-rule="evenodd" d="M6.55269 12C6.61616 12.1291 6.71099 12.3138 6.83609 12.5357C7.09051 12.9871 7.46681 13.5866 7.95511 14.1834C8.94659 15.3952 10.3186 16.5 11.9999 16.5C13.6813 16.5 15.0533 15.3952 16.0448 14.1834C16.5331 13.5866 16.9094 12.9871 17.1638 12.5357C17.2889 12.3138 17.3837 12.1291 17.4472 12C17.3837 11.8709 17.2889 11.6862 17.1638 11.4643C16.9094 11.0129 16.5331 10.4134 16.0448 9.81662C15.0533 8.6048 13.6813 7.5 11.9999 7.5C10.3186 7.5 8.94659 8.6048 7.95511 9.81662C7.46681 10.4134 7.09051 11.0129 6.83609 11.4643C6.71099 11.6862 6.61616 11.8709 6.55269 12ZM17.9999 12C18.4582 11.8 18.4581 11.7999 18.4581 11.7997L18.4573 11.798L18.4556 11.7941L18.4498 11.781C18.4448 11.7699 18.4377 11.7542 18.4284 11.7342C18.41 11.6942 18.383 11.6369 18.3476 11.5648C18.2768 11.4207 18.1723 11.2169 18.035 10.9732C17.761 10.4871 17.3532 9.83657 16.8187 9.18338C15.7648 7.8952 14.1368 6.5 11.9999 6.5C9.86311 6.5 8.23512 7.8952 7.18115 9.18338C6.64672 9.83657 6.23893 10.4871 5.96494 10.9732C5.82762 11.2169 5.72308 11.4207 5.65232 11.5648C5.61692 11.6369 5.58992 11.6942 5.57145 11.7342C5.56221 11.7542 5.5551 11.7699 5.55014 11.781L5.54429 11.7941L5.54258 11.798L5.54203 11.7992C5.54195 11.7994 5.54168 11.8 5.99995 12L5.54203 11.7992C5.48639 11.9267 5.48604 12.0725 5.54168 12.2L5.99995 12C5.54168 12.2 5.5416 12.1998 5.54168 12.2L5.54258 12.202L5.54429 12.2059L5.55014 12.219C5.5551 12.2301 5.56221 12.2458 5.57145 12.2658C5.58992 12.3058 5.61692 12.3631 5.65232 12.4352C5.72308 12.5793 5.82762 12.7831 5.96494 13.0268C6.23893 13.5129 6.64672 14.1634 7.18115 14.8166C8.23512 16.1048 9.86311 17.5 11.9999 17.5C14.1368 17.5 15.7648 16.1048 16.8187 14.8166C17.3532 14.1634 17.761 13.5129 18.035 13.0268C18.1723 12.7831 18.2768 12.5793 18.3476 12.4352C18.383 12.3631 18.41 12.3058 18.4284 12.2658C18.4377 12.2458 18.4448 12.2301 18.4498 12.219L18.4556 12.2059L18.4573 12.202L18.4579 12.2008C18.4579 12.2006 18.4582 12.2 17.9999 12ZM17.9999 12L18.4579 12.2008C18.5135 12.0733 18.5137 11.9272 18.4581 11.7997L17.9999 12Z" fill="#212121"/>
<path fill-rule="evenodd" clip-rule="evenodd" d="M11.9999 10.5C11.1715 10.5 10.4999 11.1716 10.4999 12C10.4999 12.8284 11.1715 13.5 11.9999 13.5C12.8284 13.5 13.4999 12.8284 13.4999 12C13.4999 11.1716 12.8284 10.5 11.9999 10.5ZM9.49995 12C9.49995 10.6193 10.6192 9.5 11.9999 9.5C13.3807 9.5 14.4999 10.6193 14.4999 12C14.4999 13.3807 13.3807 14.5 11.9999 14.5C10.6192 14.5 9.49995 13.3807 9.49995 12Z" fill="#212121"/>
</g>
</g>
</svg>
