<svg width="16" height="16" viewBox="0 0 16 16" fill="none" xmlns="http://www.w3.org/2000/svg">
<g id="icon/Scrap" clip-path="url(#clip0_11259_5088)">
<g id="Vector">
<path fill-rule="evenodd" clip-rule="evenodd" d="M3 3C2.44772 3 2 3.44772 2 4V13C2 13.5523 2.44772 14 3 14H11C11.5523 14 12 13.5523 12 13V8.5C12 7.94772 12.4477 7.5 13 7.5C13.5523 7.5 14 7.94772 14 8.5V13C14 14.6569 12.6569 16 11 16H3C1.34315 16 0 14.6569 0 13V4C0 2.34315 1.34315 1 3 1H6C6.55228 1 7 1.44772 7 2C7 2.55228 6.55228 3 6 3H3Z" fill="#212121"/>
<path fill-rule="evenodd" clip-rule="evenodd" d="M12.2929 0.292893C12.6834 -0.0976311 13.3166 -0.0976311 13.7071 0.292893L15.7071 2.29289C16.0976 2.68342 16.0976 3.31658 15.7071 3.70711L13.7071 5.70711C13.3166 6.09763 12.6834 6.09763 12.2929 5.70711C11.9024 5.31658 11.9024 4.68342 12.2929 4.29289L12.6239 3.96191C12.5374 3.96333 12.4495 3.9654 12.3599 3.96825C11.4269 3.99786 10.5283 4.11569 9.74639 4.42848C8.98532 4.73291 8.32759 5.2238 7.8453 6.03998C7.35342 6.8724 7 8.11864 7 10C7 10.5523 6.55228 11 6 11C5.44772 11 5 10.5523 5 10C5 7.88136 5.39659 6.2526 6.12345 5.02252C6.85991 3.7762 7.88968 3.01709 9.00361 2.57152C10.0967 2.13431 11.2606 2.00214 12.2964 1.96925C12.3799 1.9666 12.4642 1.96463 12.549 1.96324L12.2929 1.70711C11.9024 1.31658 11.9024 0.683417 12.2929 0.292893Z" fill="#212121"/>
</g>
</g>
<defs>
<clipPath id="clip0_11259_5088">
<rect width="16" height="16" fill="white"/>
</clipPath>
</defs>
</svg>
