<svg width="32" height="32" viewBox="0 0 32 32" fill="none" xmlns="http://www.w3.org/2000/svg">
<g id="Property 1=hover">
<path id="Rectangle 32" d="M0 4C0 1.79086 1.79086 0 4 0H28C30.2091 0 32 1.79086 32 4V28C32 30.2091 30.2091 32 28 32H4C1.79086 32 0 30.2091 0 28V4Z" fill="#212121"/>
<path id="Vector (Stroke)" fill-rule="evenodd" clip-rule="evenodd" d="M12.8 9.6H9.6V12.8H12.8V9.6ZM22.4 9.6H19.2V12.8H22.4V9.6ZM12.8 19.2H9.6V22.4H12.8V19.2ZM22.4 19.2H19.2V22.4H22.4V19.2ZM8.8 8C8.35817 8 8 8.35817 8 8.8V13.6C8 14.0418 8.35817 14.4 8.8 14.4H13.6C14.0418 14.4 14.4 14.0418 14.4 13.6V8.8C14.4 8.35817 14.0418 8 13.6 8H8.8ZM18.4 8C17.9582 8 17.6 8.35817 17.6 8.8V13.6C17.6 14.0418 17.9582 14.4 18.4 14.4H23.2C23.6418 14.4 24 14.0418 24 13.6V8.8C24 8.35817 23.6418 8 23.2 8H18.4ZM13.6 17.6C14.0418 17.6 14.4 17.9582 14.4 18.4V23.2C14.4 23.6418 14.0418 24 13.6 24H8.8C8.35817 24 8 23.6418 8 23.2V18.4C8 17.9582 8.35817 17.6 8.8 17.6H13.6ZM18.4 17.6C17.9582 17.6 17.6 17.9582 17.6 18.4V23.2C17.6 23.6418 17.9582 24 18.4 24H23.2C23.6418 24 24 23.6418 24 23.2V18.4C24 17.9582 23.6418 17.6 23.2 17.6H18.4Z" fill="white"/>
</g>
</svg>
