<svg width="32" height="32" viewBox="0 0 32 32" fill="none" xmlns="http://www.w3.org/2000/svg">
<g id="Property 1=Default">
<path id="Rectangle 32" d="M0.5 4C0.5 2.067 2.067 0.5 4 0.5H28C29.933 0.5 31.5 2.067 31.5 4V28C31.5 29.933 29.933 31.5 28 31.5H4C2.067 31.5 0.5 29.933 0.5 28V4Z" fill="white" stroke="#D7D7D7"/>
<path id="Vector (Stroke)" fill-rule="evenodd" clip-rule="evenodd" d="M12.8 9.6H9.6V12.8H12.8V9.6ZM22.4 9.6H19.2V12.8H22.4V9.6ZM12.8 19.2H9.6V22.4H12.8V19.2ZM22.4 19.2H19.2V22.4H22.4V19.2ZM8.8 8C8.35817 8 8 8.35817 8 8.8V13.6C8 14.0418 8.35817 14.4 8.8 14.4H13.6C14.0418 14.4 14.4 14.0418 14.4 13.6V8.8C14.4 8.35817 14.0418 8 13.6 8H8.8ZM18.4 8C17.9582 8 17.6 8.35817 17.6 8.8V13.6C17.6 14.0418 17.9582 14.4 18.4 14.4H23.2C23.6418 14.4 24 14.0418 24 13.6V8.8C24 8.35817 23.6418 8 23.2 8H18.4ZM13.6 17.6C14.0418 17.6 14.4 17.9582 14.4 18.4V23.2C14.4 23.6418 14.0418 24 13.6 24H8.8C8.35817 24 8 23.6418 8 23.2V18.4C8 17.9582 8.35817 17.6 8.8 17.6H13.6ZM18.4 17.6C17.9582 17.6 17.6 17.9582 17.6 18.4V23.2C17.6 23.6418 17.9582 24 18.4 24H23.2C23.6418 24 24 23.6418 24 23.2V18.4C24 17.9582 23.6418 17.6 23.2 17.6H18.4Z" fill="#212121"/>
</g>
</svg>
