<svg width="32" height="32" viewBox="0 0 32 32" fill="none" xmlns="http://www.w3.org/2000/svg">
<g id="Property 1=hover">
<path id="Rectangle 41" d="M0 4C0 1.79086 1.79086 0 4 0H28C30.2091 0 32 1.79086 32 4V28C32 30.2091 30.2091 32 28 32H4C1.79086 32 0 30.2091 0 28V4Z" fill="#212121"/>
<g id="Vector">
<path d="M17.6 8.8C17.6 8.35817 17.9582 8 18.4 8H23.2C23.6418 8 24 8.35817 24 8.8C24 9.24183 23.6418 9.6 23.2 9.6H18.4C17.9582 9.6 17.6 9.24183 17.6 8.8Z" fill="white"/>
<path d="M17.6 18.4C17.6 17.9582 17.9582 17.6 18.4 17.6H23.2C23.6418 17.6 24 17.9582 24 18.4C24 18.8418 23.6418 19.2 23.2 19.2H18.4C17.9582 19.2 17.6 18.8418 17.6 18.4Z" fill="white"/>
<path fill-rule="evenodd" clip-rule="evenodd" d="M12.8 9.6H9.6V12.8H12.8V9.6ZM9 8C8.44772 8 8 8.44772 8 9V13.4C8 13.9523 8.44772 14.4 9 14.4H13.4C13.9523 14.4 14.4 13.9523 14.4 13.4V9C14.4 8.44772 13.9523 8 13.4 8H9Z" fill="white"/>
<path fill-rule="evenodd" clip-rule="evenodd" d="M12.8 19.2H9.6V22.4H12.8V19.2ZM9 17.6C8.44772 17.6 8 18.0477 8 18.6V23C8 23.5523 8.44772 24 9 24H13.4C13.9523 24 14.4 23.5523 14.4 23V18.6C14.4 18.0477 13.9523 17.6 13.4 17.6H9Z" fill="white"/>
<path d="M17.6 13.6C17.6 13.1582 17.9582 12.8 18.4 12.8H23.2C23.6418 12.8 24 13.1582 24 13.6C24 14.0418 23.6418 14.4 23.2 14.4H18.4C17.9582 14.4 17.6 14.0418 17.6 13.6Z" fill="white"/>
<path d="M17.6 23.2C17.6 22.7582 17.9582 22.4 18.4 22.4H23.2C23.6418 22.4 24 22.7582 24 23.2C24 23.6418 23.6418 24 23.2 24H18.4C17.9582 24 17.6 23.6418 17.6 23.2Z" fill="white"/>
</g>
</g>
</svg>
