<svg width="32" height="32" viewBox="0 0 32 32" fill="none" xmlns="http://www.w3.org/2000/svg">
<g id="Property 1=Default">
<path id="Rectangle 21" d="M0.5 4C0.5 2.067 2.067 0.5 4 0.5H28C29.933 0.5 31.5 2.067 31.5 4V28C31.5 29.933 29.933 31.5 28 31.5H4C2.067 31.5 0.5 29.933 0.5 28V4Z" fill="white" stroke="#D7D7D7"/>
<g id="Vector">
<path d="M8 23.2C8 22.7582 8.35817 22.4 8.8 22.4H23.2C23.6418 22.4 24 22.7582 24 23.2C24 23.6418 23.6418 24 23.2 24H8.8C8.35817 24 8 23.6418 8 23.2Z" fill="#212121"/>
<path fill-rule="evenodd" clip-rule="evenodd" d="M22.4 9.6H9.6V17.6H22.4V9.6ZM9 8C8.44772 8 8 8.44771 8 9V18.2C8 18.7523 8.44772 19.2 9 19.2H23C23.5523 19.2 24 18.7523 24 18.2V9C24 8.44772 23.5523 8 23 8H9Z" fill="#212121"/>
</g>
</g>
</svg>
